<?xml version="1.0" standalone="no"?>
<svg viewBox="0 0 200 200" xmlns="http://www.w3.org/2000/svg">
  <path fill="#F2F4F8" d="M33.8,-53C47.2,-44.1,63.6,-40.3,71.3,-30.5C79,-20.7,77.9,-4.8,71.4,7.2C64.9,19.1,52.8,27.2,43.9,38.7C35,50.2,29.3,65.2,18.7,72.1C8.2,79,-7.2,77.9,-20.9,73C-34.5,68.1,-46.5,59.4,-57.6,48.7C-68.8,38,-79.1,25.5,-80.1,12.1C-81,-1.2,-72.7,-15.3,-64.2,-27.5C-55.8,-39.7,-47.3,-50,-36.6,-60.1C-25.8,-70.2,-12.9,-80.1,-1.3,-78C10.3,-76,20.5,-61.9,33.8,-53Z" transform="translate(100 100)" />
</svg>
