<svg width="530" height="663" viewBox="0 0 530 663" fill="none" xmlns="http://www.w3.org/2000/svg">
<g clip-path="url(#clip0_107_8202)">
<path d="M100.34 643.325C100.34 654.194 79.4642 663 53.7143 663C27.9644 663 7.08881 654.194 7.08881 643.325C7.08881 632.456 27.9644 623.651 53.7143 623.651C79.4642 623.651 100.34 632.456 100.34 643.325Z" fill="#BBFCE6"/>
<path d="M500.396 142.251C500.396 132.62 497.053 122.695 491.712 114.574L491.842 114.487C486.881 106.799 480.118 100.686 472.682 97.8957L218.179 2.47567C211.742 0.0651941 205.825 0.52123 201.125 3.24659L185.699 13.0079L190.573 510.543C190.573 510.858 190.616 511.075 190.692 511.216C190.79 529.675 203.1 549.208 218.288 554.898L475.895 656.018L486.957 648.559C495.37 642.858 500.375 637.017 500.375 624.834V142.251H500.396Z" fill="#1A1A1A"/>
<path d="M316.228 234.761C316.228 234.761 176.873 539.892 177.34 520.956L184.277 12.3998L200.777 2.44303C205.586 -0.369191 211.579 -0.868659 218.027 1.56353L472.779 97.7436C480.226 100.556 486.903 106.767 491.723 114.595L316.228 234.761Z" fill="#333333"/>
<path d="M456.539 658.157L202.666 562.64C187.425 556.928 175.69 537.178 175.69 518.654V33.7901C175.69 15.2664 187.729 4.92958 202.97 10.6517L456.702 106.191C471.943 111.903 483.537 131.675 483.537 150.199V635.062C483.537 653.586 471.781 663.88 456.539 658.168" fill="black"/>
<path d="M451.448 660.644L197.575 565.126C182.333 559.415 170.598 539.664 170.598 521.14V36.2766C170.598 17.7528 182.637 7.41603 197.879 13.1382L451.611 108.678C466.852 114.389 478.446 134.161 478.446 152.685V637.549C478.446 656.073 466.689 666.366 451.448 660.655" fill="#333333"/>
<path d="M460.1 142.392C460.1 139.612 458.471 137.288 455.833 136.3L201.754 41.0324C196.066 38.8933 188.945 43.7143 188.945 49.7079V470.01V518.61C188.945 521.39 190.573 523.714 193.211 524.702L447.29 619.97C452.978 622.109 460.1 617.288 460.1 611.294V190.992V142.392Z" fill="#4BBFA0"/>
<path d="M360.411 277.552L285.105 284.251L297.122 243.816C322.08 240.461 339.644 246.064 360.65 257.291L360.411 277.552Z" fill="#459B7C"/>
<path d="M310.16 281.222L306.046 211.003L347.862 225.271L361.28 277.595C363.114 286.716 310.16 300.462 310.16 281.222Z" fill="#F57E71"/>
<path d="M377.596 274.87C377.596 274.87 371.994 271.026 359.119 266.553L348.622 230.656C348.622 230.656 353.594 237.92 342.564 248.876L344.497 256.173C347.102 265.999 353.388 274.306 362.126 279.463L373.319 285.055L377.596 274.881V274.87Z" fill="#E05F51"/>
<path d="M455.833 136.3L345.496 94.9314L201.754 41.0324C196.066 38.8933 188.945 43.7143 188.945 49.7079V325.838C188.945 325.838 458.471 137.288 455.833 136.3Z" fill="#50D6B6"/>
<path d="M241.16 391.365L241.03 391.311C241.03 391.311 241.074 391.344 241.16 391.365Z" fill="#FF619A"/>
<path d="M283.129 253.339C270.721 254.837 259.127 258.757 249.498 265.815C245.188 268.268 241.117 272.145 237.307 277.954C237.307 277.965 237.285 277.975 237.285 277.986C235.505 280.397 234.365 282.514 233.692 284.469C222.445 309.485 229.328 335.892 227.504 369.856C229.111 382.332 231.249 387.229 241.15 390.986L241.606 391.181C241.432 391.355 241.28 391.376 241.172 391.355L264.598 401.04C264.598 401.04 302.344 251.015 283.129 253.339Z" fill="#BBFCE6"/>
<path d="M440.787 423.842L437.737 325.034C437.086 317.814 433.818 311.679 428.846 307.336C426.349 304.143 423.201 301.331 419.26 299.084C402.749 289.659 403.281 288.508 380.18 281.428C359.13 274.979 316.478 422.474 316.38 422.452L378.497 448.131C378.801 448.262 379.116 448.392 379.431 448.511L381.081 449.195C381.081 449.195 381.135 449.174 381.233 449.141C402.922 456.003 442.34 442.235 440.787 423.831" fill="#BBFCE6"/>
<path d="M317.509 316.207C317.509 318.443 315.859 319.529 313.84 318.639C311.81 317.748 310.171 315.218 310.171 312.993C310.171 310.767 311.821 309.67 313.84 310.56C315.87 311.451 317.509 313.981 317.509 316.207Z" fill="white"/>
<path d="M317.509 332.124C317.509 334.361 315.859 335.447 313.84 334.557C311.81 333.666 310.171 331.136 310.171 328.91C310.171 326.685 311.821 325.588 313.84 326.478C315.87 327.369 317.509 329.898 317.509 332.124Z" fill="white"/>
<path d="M317.509 348.053C317.509 350.29 315.859 351.376 313.84 350.485C311.81 349.595 310.171 347.065 310.171 344.839C310.171 342.613 311.821 341.516 313.84 342.407C315.87 343.297 317.509 345.827 317.509 348.053Z" fill="white"/>
<path d="M324.913 286.64C324.913 286.64 304.504 288.931 300.694 255.337L287.113 255.098C285.235 256.748 281.316 256.238 279.482 267.834C278.396 274.729 278.885 281.602 280.611 288.052L285.648 306.869C286.777 311.092 292.346 312.428 296.156 309.399L324.913 286.64Z" fill="#50D6B6"/>
<path d="M325.445 286.662C325.445 286.662 319.659 286.868 315.903 284.512L285.637 307.086L285.952 308.248C286.939 311.852 291.683 313.014 294.984 310.463L325.434 286.662H325.445Z" fill="#FCFEFF"/>
<path d="M314.774 286.325C314.774 286.325 337.658 291.244 360.65 257.291L378.367 274.077C379.702 276.683 379.213 277.433 376.869 280.136L346.027 316.706C342.456 320.854 335.834 321.19 333.522 317.357L314.774 286.325Z" fill="#50D6B6"/>
<path d="M314.774 286.325C314.774 286.325 320.202 286.575 325.445 285.62L345.593 316.098L344.605 317.238C341.522 320.767 335.877 321.093 333.836 317.835L314.784 286.314L314.774 286.325Z" fill="#FCFEFF"/>
<path d="M266.422 258.496C259.16 289.322 245.557 324.98 249.726 345.795L264.913 342.342L254.958 369.943L257.889 398.228L270.341 403.429C274.911 361.311 283.998 304.567 302.04 245.63C287.482 246.737 282.858 249.962 266.422 258.496Z" fill="white"/>
<path d="M406.136 288.095L362.441 367.239L340.708 365.708L342.119 398.184L327.03 426.849L309.368 419.499C316.891 394.102 327.084 364.351 340.513 333.536C350.25 311.201 362.962 277.215 360.661 257.302C375.24 262.753 393.934 276.759 406.147 288.095" fill="white"/>
<path d="M360.031 258.54C367.25 265.88 373.482 274.392 371.517 283.73C369.997 290.94 365.72 296.63 364.58 304.111C362.344 318.78 366.545 334.611 366.979 349.758C367.109 354.22 374.328 355.545 374.198 351.061C373.612 330.973 368.054 311.624 375.859 293.741C381.927 279.854 377.704 267.432 365.112 254.642C361.605 251.08 356.481 254.967 360.01 258.551" fill="#292685"/>
<path d="M368.26 290.071C358.805 305.359 335.628 311.342 336.822 333.807C337.061 338.281 344.28 339.616 344.041 335.11C342.966 314.806 365.883 308.704 374.513 294.74C376.684 291.233 370.431 286.553 368.26 290.071Z" fill="#292685"/>
<path d="M361.627 356.044L338.146 399.911C332.664 409.151 328.734 413.896 315.012 405.481C314.274 407.196 313.569 408.934 312.939 410.704L315.045 412.05C325 418.391 336.898 416.643 341.522 408.011L369.66 355.436C374.285 346.793 366.154 347.575 361.627 356.044Z" fill="#817EED"/>
<path d="M308.586 401.377L316.033 405.199C318.128 406.274 319.268 408.684 318.562 410.562L318.204 411.529C317.498 413.396 315.208 414.048 313.113 412.973L305.666 409.151C303.571 408.076 302.431 405.665 303.125 403.787L303.484 402.821C304.189 400.953 306.48 400.302 308.575 401.377" fill="#292685"/>
<path d="M344.052 345.903L344.106 399.281C344.562 410.91 345.713 417.707 360.694 420.888C360.542 422.843 360.368 424.797 360.107 426.708L357.784 426.263C346.809 424.157 337.788 413.961 337.777 403.45L337.701 339.486C337.69 328.975 344.03 335.599 344.052 345.903Z" fill="#817EED"/>
<path d="M367.782 422.246L359.977 419.911C357.784 419.26 355.787 420.4 355.537 422.452L355.418 423.516C355.168 425.568 356.775 427.794 358.967 428.446L366.773 430.78C368.966 431.442 370.963 430.291 371.213 428.239L371.332 427.186C371.571 425.134 369.975 422.908 367.782 422.257" fill="#292685"/>
<path d="M365.98 353.601L369.856 355.415C371.864 356.359 373.959 355.654 374.546 353.84L375.143 351.973C375.718 350.159 374.556 347.923 372.548 346.989L368.673 345.176C366.664 344.231 364.558 344.937 363.983 346.75L363.386 348.618C362.81 350.431 363.972 352.668 365.98 353.601Z" fill="#292685"/>
<path d="M338.917 341.245L342.933 342.309C345.018 342.863 346.842 341.723 346.994 339.758L347.156 337.738C347.319 335.773 345.756 333.731 343.672 333.178L339.655 332.113C337.571 331.56 335.747 332.7 335.595 334.665L335.432 336.685C335.269 338.65 336.833 340.691 338.928 341.245" fill="#292685"/>
<path d="M275.28 361.126C277.929 334.947 278.57 308.617 282.912 282.416C285.767 265.228 290.924 244.5 311.072 238.355C315.089 237.128 314.589 231.036 310.529 232.274C291.955 237.931 283.368 252.915 279.026 270.038C271.459 299.833 271.969 330.843 268.952 360.724C268.55 364.698 274.879 365.111 275.28 361.115" fill="#292685"/>
<path d="M255.219 365.806C252.722 374.655 258.074 383.689 267.182 385.958C276.29 388.238 285.702 382.907 288.199 374.058C290.696 365.209 285.344 356.186 276.236 353.906C267.128 351.625 257.716 356.957 255.219 365.806Z" fill="#6763DB"/>
<path d="M259.019 363.276C257.086 370.095 261.222 377.044 268.235 378.803C275.248 380.562 282.5 376.458 284.432 369.639C286.353 362.82 282.228 355.871 275.215 354.112C268.202 352.353 260.951 356.457 259.029 363.276" fill="#FBFBFF"/>
<path d="M259.257 358.194C257.325 365.013 261.461 371.962 268.474 373.721C275.487 375.48 282.738 371.376 284.671 364.557C286.592 357.738 282.467 350.789 275.454 349.03C268.441 347.271 261.19 351.376 259.268 358.194" fill="#292685"/>
<path d="M326.042 260.223L309.921 265.359C291.521 268.497 279.254 256.314 278.211 238.789L274.77 180.948C273.728 163.435 287.927 146.529 306.328 143.391L318.269 141.349C336.67 138.211 352.573 149.981 353.616 167.495L357.057 225.336C357.73 228.55 344.432 257.085 326.031 260.212" fill="#F57E71"/>
<path d="M323.675 186.497C311.3 193.859 294.701 196.845 280.708 193.652C265.521 190.189 254.763 174.618 266.314 162.479C272.556 155.921 277.908 148.005 291.39 140.85C329.603 120.545 382.394 131.002 384.891 172.903C384.891 172.903 387.79 231.308 352.845 244.685L351.336 238.789C351.336 238.789 364.884 220.385 348.893 211.644C344.063 209.006 340.643 202.089 340.936 195.02C341.229 187.876 330.319 182.545 323.675 186.497Z" fill="black"/>
<path d="M360.324 226.053C355.515 231.46 349.241 231.416 346.299 225.955C343.357 220.493 344.877 211.677 349.675 206.269C354.484 200.862 360.759 200.905 363.701 206.367C366.642 211.829 365.123 220.645 360.324 226.053Z" fill="#F57E71"/>
<path d="M350.923 213.924C350.923 213.924 356.514 207.323 358.707 212.567C360.9 217.811 352.975 224.511 352.975 224.511C352.975 224.511 356.872 219.245 353.985 217.084C351.086 214.923 350.934 213.924 350.934 213.924" fill="#E05F51"/>
<path d="M279.612 359.595C279.612 363.504 276.312 367.054 272.23 367.532C268.148 368.01 264.848 365.22 264.848 361.311C264.848 357.402 268.148 353.851 272.23 353.373C276.312 352.896 279.612 355.686 279.612 359.595Z" fill="#6763DB"/>
<path d="M309.096 265.261C309.737 266.933 332.523 258.92 331.882 256.802C331.882 256.802 320.31 269.626 309.791 274.892L309.096 265.261Z" fill="#E05F51"/>
<path d="M284.812 144.965C275.953 150.991 271.427 157.267 266.314 162.642C254.763 174.781 265.532 190.352 280.708 193.815C294.701 197.007 311.3 194.032 323.675 186.66C325.749 185.422 328.246 185.096 330.677 185.444C331.481 183.044 331.926 180.558 331.926 177.995C331.926 159.993 310.931 145.367 284.823 144.965" fill="#1A1A1A"/>
<path d="M427.022 494.484L222.793 415.025C219.004 413.559 215.91 416.198 215.91 420.899V496.677C215.91 501.368 219.004 506.417 222.793 507.883L427.022 587.341C430.811 588.807 433.905 586.169 433.905 581.467V505.689C433.905 500.988 430.811 495.95 427.022 494.484Z" fill="#BBFCE6"/>
<path d="M286.158 487.665C286.158 503.018 274.499 510.597 260.115 504.604C245.731 498.599 234.072 481.291 234.072 465.927C234.072 450.563 245.731 442.995 260.115 448.989C274.499 454.993 286.158 472.301 286.158 487.665Z" fill="#50D6B6"/>
<path d="M334.824 489.142L298.273 473.897V485.352L334.824 500.608V489.142Z" fill="#50D6B6"/>
<path d="M406.136 538.861L298.273 493.876V505.331L406.136 550.327V538.861Z" fill="#50D6B6"/>
<path d="M33.338 445.656L30.1139 518.48C30.1139 518.48 18.6068 532.791 20.9082 556.299C22.4172 571.728 31.3406 620.534 31.3406 620.534L42.9888 621.783L50.6964 507.416L33.338 445.656Z" fill="#F57E71"/>
<path d="M31.6228 619.688C30.483 619.427 29.3323 620.057 28.9198 621.143C27.4217 625.138 24.3821 634.302 26.7703 637.636C28.6267 640.22 30.2116 640.133 32.2742 640.882C33.642 641.371 35.1075 641.458 36.5188 641.132L56.0809 627.31C58.6863 626.637 54.3005 621.74 50.4142 621.816C45.16 621.913 43.3362 622.348 43.3362 622.348L31.612 619.688H31.6228Z" fill="#292685"/>
<path d="M43.1951 618.721L42.9454 627.407C42.9454 627.407 39.0156 627.049 37.5827 623.727C36.7468 621.794 34.9447 620.437 32.893 619.97L31.0583 619.557L32.0245 613.042L43.2059 618.71L43.1951 618.721Z" fill="#F57E71"/>
<path d="M45.3771 586.451C45.3771 586.451 42.674 571.369 42.0118 549.653C41.8273 543.627 38.4945 538.046 33.1318 535.299C29.7991 533.594 25.9236 533.106 22.2435 536.222C22.2435 536.222 24.8489 526.417 26.5098 524.148C28.1707 521.879 48.775 535.277 48.775 535.277L45.3771 586.451Z" fill="#E05F51"/>
<path d="M63.3759 462.572L56.7539 533.453C56.7539 533.453 44.7692 545.897 45.909 569.23C46.6581 584.54 53.1064 633.575 53.1064 633.575L64.4941 636.387L76.0772 528.882L63.3868 462.572H63.3759Z" fill="#F57E71"/>
<path d="M53.2258 630.274C52.0968 629.97 50.9244 630.546 50.4684 631.62C48.8075 635.551 45.4096 644.596 47.6568 648.016C49.4046 650.665 51.0004 650.644 53.0304 651.48C54.3765 652.023 55.842 652.175 57.2641 651.903L85.0115 642.88C87.6385 642.305 90.092 635.106 79.8767 635.171C74.6225 635.204 64.8415 633.412 64.8415 633.412L53.2258 630.285V630.274Z" fill="#292685"/>
<path d="M65.0151 631.957L64.2335 638.439C64.2335 638.439 60.3255 637.929 59.0228 634.552C58.2629 632.587 56.5151 631.164 54.4851 630.611L52.6721 630.122L53.8989 623.651L65.026 631.957H65.0151Z" fill="#F57E71"/>
<path d="M71.3766 522.78L76.62 533.833L65.0043 631.957L64.4832 636.387H64.4724L64.2227 638.439C64.2227 638.439 63.0069 638.276 61.7042 637.549C61.7042 637.549 72.5056 550.685 71.3766 522.78Z" fill="#E05F51"/>
<path d="M71.2681 555.397C71.2681 555.397 73.6889 541.434 61.5305 539.664C61.5305 539.664 54.04 538.209 49.448 546.005C49.448 546.005 52.8676 536.906 56.6888 532.27C60.51 527.644 76.62 532.867 76.62 532.867L71.2681 555.386V555.397Z" fill="#E05F51"/>
<path d="M42.9454 627.408L45.5073 580.197L43.2819 560.316L41.0891 626.93L42.9454 627.408Z" fill="#E05F51"/>
<path d="M25.5979 525.874L25.663 504.832L50.273 510.348L48.775 535.277L25.5979 525.874Z" fill="#E05F51"/>
<path d="M55.5706 533.768L53.7143 514.93L77.3256 513.399L76.6091 533.833L55.5706 533.768Z" fill="#E05F51"/>
<path d="M79.3448 405.839C79.2471 398.402 64.049 386.773 45.0623 386.425C26.0755 386.078 22.0155 389.813 22.1132 397.261C22.1132 397.261 2.90935 417.718 12.3213 456.557C19.3233 485.461 19.4644 519.837 19.4644 519.837C19.4644 519.837 38.6682 533.584 58.9468 529.61C65.178 528.393 81.5702 526.634 80.3326 516.623L79.3556 405.839H79.3448Z" fill="#50D6B6"/>
<path d="M79.3447 405.839C79.2905 402.148 75.7406 393.429 69.5746 390.877C66.8932 389.769 67.7616 528.057 69.77 527.319C75.4801 525.201 81.2445 524.029 80.3218 516.623L79.3447 405.839Z" fill="#4BBFA0"/>
<path d="M10.9643 450.249C10.9643 450.249 13.8194 461.259 28.453 468.425L15.1546 469.435L10.9643 450.249Z" fill="#45A07F"/>
<path d="M68.6844 414.797C68.6844 414.797 59.7501 414.102 62.1493 428.988C65.6122 450.52 61.5088 452.724 59.1748 461.91C54.4308 480.553 68.337 494.538 65.634 509.75C62.9309 524.962 60.9551 526.906 67.2732 527.981C68.0331 528.111 72.9724 526.32 73.6564 525.006C78.7043 515.288 77.4884 472.388 76.6091 468.696C75.6213 464.505 68.6844 414.797 68.6844 414.797Z" fill="#4BBFA0"/>
<path d="M5.03708 341.451C5.03708 341.451 9.21655 375.459 20.3763 373.081C31.536 370.703 55.1039 342.744 55.1039 342.744L5.03708 341.451Z" fill="#E05F51"/>
<path d="M17.8794 349.432L5.72099 348.715L5.03708 343.916L14.9375 343.97L17.8794 349.432Z" fill="#F0F0F0"/>
<path d="M20.7562 304.263C20.7562 304.263 4.35317 314.328 5.11307 329.225C5.37361 334.328 3.59326 344.568 3.59326 344.568C6.55688 347.076 11.4311 347.326 17.8794 345.719L20.7562 304.252V304.263Z" fill="#45A07F"/>
<path d="M19.4753 395.817C19.4753 395.817 23.0902 383.537 21.8744 372.907C20.094 357.38 13.2658 341.603 13.2549 341.495C12.7664 333.275 9.03201 311.147 22.3737 303.155L37.1484 298.573L57.1556 307.227C57.1556 307.227 86.4227 326.25 85.7388 345.425C85.424 354.383 77.0868 368.575 74.4163 381.007L76.0772 408.239C75.5561 426.763 9.99817 427.74 14.1342 411.181C16.0774 403.385 18.0857 400.834 19.4861 395.817" fill="#50D6B6"/>
<path d="M70.0848 340.333C71.572 350.963 64.6461 350.398 64.1576 359.085C63.6582 367.771 67.8594 372.516 64.1576 378.922C60.4557 385.329 58.2303 392.669 61.9321 399.748C64.5375 404.732 62.692 415.916 62.0733 420.943C72.3537 420.346 79.1494 413.125 79.3556 405.85L75.0676 381.116C77.749 368.683 86.0753 354.492 86.401 345.534C86.629 339.03 83.4048 332.537 79.0625 326.804C77.9335 326.142 77.2605 325.751 77.2605 325.751C77.2605 325.751 68.6084 329.714 70.0957 340.344" fill="#4BBFA0"/>
<path d="M94.2388 367.63C105.952 349.541 119.435 338.237 124.494 324.621L131.702 330.42C131.702 330.42 110.588 389.389 100.188 386.512C84.6532 382.223 94.228 367.619 94.228 367.619" fill="#F57E71"/>
<path d="M24.1215 259.256C24.1215 259.256 3.46299 278.801 2.19287 289.832C0.922746 300.864 2.03003 319.388 2.03003 319.388L7.52305 301.461C7.52305 301.461 1.41126 284.957 21.6573 269.18C41.8924 253.404 24.1324 259.256 24.1324 259.256" fill="#1A1A1A"/>
<path d="M34.1088 305.729L45.9741 277.802L63.1588 279.105L55.169 308.378L34.1088 305.729Z" fill="#D3D2D4"/>
<path d="M61.7259 333.558C61.7259 333.558 87.9968 384.21 97.767 386.718C107.526 389.216 107.874 371.854 107.874 371.854L75.7081 327.477L61.7259 333.558Z" fill="#F57E71"/>
<path d="M67.6748 328.617L61.7367 333.558C61.7367 333.558 88.0077 384.21 97.7779 386.718C101.1 387.565 103.477 386.186 105.225 384.33C95.4222 379.367 73.8626 340.224 67.6857 328.617" fill="#E05F51"/>
<path d="M36.5839 244.674C36.5839 244.674 30.2876 293.242 63.1371 294.599C63.1371 294.599 76.2943 299.116 74.9156 265.076C73.5369 231.036 50.3273 236.151 36.5839 244.674Z" fill="#F57E71"/>
<path d="M66.7738 294.404C66.7738 294.404 58.2303 288.736 53.7469 279.192L39.9383 287.835L34.695 304.339L56.0809 306.467L58.6645 294.762C58.6645 294.762 64.6026 295.663 66.7629 294.404" fill="#E05F51"/>
<path d="M95.4873 351.94L98.744 357.185C98.744 357.185 93.8589 367.478 80.9405 368.803L77.4993 363.667L95.4873 351.951V351.94Z" fill="#F0F0F0"/>
<path d="M60.6403 310.452C60.6403 310.452 74.134 316.684 81.2445 330.572C85.12 338.14 95.5958 352.483 95.5958 352.483C94.7708 360.724 88.8001 364.101 74.9265 367.207L40.7417 312.96L60.6511 310.441L60.6403 310.452Z" fill="#4BBFA0"/>
<path d="M64.5484 312.026L57.5138 306.478L26.1949 301.548C26.1949 301.548 29.8859 315.273 43.5859 312.385C51.5214 310.712 64.5484 312.026 64.5484 312.026Z" fill="#F0F0F0"/>
<path d="M50.8375 281.483C50.8375 281.483 50.273 299.203 38.8094 313.709C33.642 320.257 36.0628 338.737 20.5717 337.314C5.0805 335.892 -11.1489 316.239 10.3781 286.336C16.6636 277.606 25.2288 254.609 25.2288 254.609L50.8375 281.494V281.483Z" fill="#1A1A1A"/>
<path d="M122.594 325.523L107.222 317.499C106.31 317.032 105.909 315.772 106.332 314.686L117.405 286.13C117.828 285.033 118.914 284.534 119.826 284.99L135.089 292.753C136.001 293.22 136.403 294.48 135.979 295.565L124.961 323.992C124.678 324.708 124.331 324.839 123.625 325.11L122.594 325.523Z" fill="#598DFF"/>
<path d="M121.291 298.378C121.291 298.378 105.92 315.783 106.343 314.697L117.318 285.218L118.643 284.903C119.023 284.784 119.446 284.805 119.826 285.001L135.089 292.764C135.534 292.992 135.86 293.405 136.023 293.904L121.291 298.378Z" fill="#B2B1B3"/>
<path d="M121.129 325.566L105.909 317.814C104.997 317.347 104.639 316.087 105.062 315.001L116.135 286.445C116.558 285.359 117.622 284.849 118.534 285.316L133.743 293.068C134.655 293.535 135.002 294.795 134.579 295.88L123.506 324.437C123.083 325.534 122.04 326.033 121.129 325.566Z" fill="#292685"/>
<path d="M122.866 320.875L107.885 313.264L117.568 288.084L132.462 295.652L122.594 320.235C122.507 320.452 123.083 320.984 122.876 320.886" fill="#BBFCE6"/>
<path d="M125.037 312.265C125.601 313.394 125.167 316.662 125.471 318.53C126.274 323.514 127.946 328.031 127.946 328.031C127.946 328.031 125.33 332.667 121.834 329.768C118.328 326.869 120.868 318.932 120.868 318.932L121.943 309.735C121.943 309.735 122.952 308.117 125.037 312.276" fill="#F57E71"/>
<path d="M138.053 313.535C137.727 311.928 137.369 310.148 137.369 310.148C136.707 307.336 135.306 305.142 132.853 303.666L129.661 311.885C127.078 315.208 125.069 318.128 125.373 320.3L123.767 321.853C123.539 322.07 123.441 322.396 123.517 322.71L125.688 331.983C125.873 332.743 126.828 332.982 127.295 332.374C127.783 331.712 128.456 330.745 129.216 329.584L130.964 332.352C130.964 332.352 135.936 322.428 137.488 318.074C137.499 318.031 137.521 317.976 137.553 317.922C138.15 316.532 138.368 315.012 138.064 313.535" fill="#F57E71"/>
<path d="M8.66289 331.082C13.4394 332.7 13.8519 326.391 15.7843 320.68C17.7166 314.969 19.7792 296.977 15.0135 295.37C10.237 293.752 5.44958 312.113 3.51726 317.824C1.58493 323.536 3.89721 329.475 8.67375 331.082" fill="#1A1A1A"/>
<path d="M80.0287 367.304L86.8678 363.58C83.7631 356.403 78.5306 344.709 70.899 334.861C61.6282 322.884 49.5891 314.122 39.2762 313.253L45.2143 348.672L54.1377 340.442C54.1377 340.442 77.4667 371.495 80.0178 367.304" fill="#50D6B6"/>
<path d="M66.155 294.252C66.155 294.252 61.2699 288.606 63.6039 281.874C65.9379 275.142 68.6953 261.645 65.2323 257.573C61.7693 253.502 58.7731 264.675 58.7731 264.675L58.0783 276.054L52.1728 279.941L53.3344 293.589L66.155 294.241V294.252Z" fill="#E05F51"/>
<path d="M42.3592 290.028L44.6823 289.8C46.7558 290.278 50.1536 285.402 50.8375 283.394C52.0425 279.832 56.4391 277.954 57.5681 272.579C58.0132 270.451 62.3881 271.32 63.224 267.476C64.7655 260.396 73.2547 253.404 73.2547 253.404C73.2547 253.404 77.4124 251.873 76.3486 248.322C74.7962 243.132 71.7023 244.229 68.261 241.362C60.5643 234.956 33.5226 232.622 26.4989 250.255C18.4874 270.375 42.37 290.039 42.37 290.039" fill="#1A1A1A"/>
<path d="M54.1486 236.759C54.1486 236.759 53.9749 252.655 64.9935 252.513C76.0121 252.372 73.5587 244.587 73.5587 244.587C73.5587 244.587 71.5612 243.458 69.7374 242.405C67.9137 241.351 66.2853 237.964 54.1377 236.759" fill="#333333"/>
<path d="M76.5005 248.713C75.7949 246.368 74.7853 245.315 73.5586 244.587C71.8217 246.086 63.1697 253.86 61.4545 261.732C60.4232 266.488 55.0061 265.413 54.4525 268.051C53.4755 272.72 40.8394 289.854 32.9255 310.072C29.9185 317.748 29.2454 333.286 18.0531 336.402C19.0301 336.609 20.0289 336.761 21.0276 336.848C36.5188 338.27 34.0979 319.79 39.2761 313.242C48.1236 302.037 50.4793 288.92 51.0872 283.535C52.4116 280.136 56.6128 278.204 57.7201 272.959C58.1652 270.831 62.54 271.7 63.3759 267.856C64.9174 260.776 73.4067 253.784 73.4067 253.784C73.4067 253.784 77.5644 252.253 76.5005 248.702" fill="#333333"/>
<path d="M62.3555 275.467C62.3338 278.822 60.1626 281.537 57.503 281.526C54.8433 281.515 52.7047 278.779 52.7156 275.424C52.7373 272.069 54.9084 269.354 57.5681 269.376C60.2278 269.387 62.3664 272.123 62.3555 275.478" fill="#E05F51"/>
<path d="M99.2977 360.073L102.576 364.069L101.99 356.663L99.2977 360.073Z" fill="#E05F51"/>
<path d="M268.745 493.637C270.916 494.506 273.706 492.508 273.174 490.466C272.653 488.479 271.937 486.634 271.296 485.852C270.721 485.157 269.994 484.636 269.364 484.18C268.713 483.713 267.855 483.04 267.03 482.377C266.759 482.16 266.476 481.943 266.205 481.726L264.544 480.336C264.294 480.086 264.056 479.837 263.806 479.576C263.762 479.532 263.676 479.456 263.632 479.402C263.621 479.294 263.632 479.185 263.632 479.087L263.61 477.089C264.327 476.699 264.783 475.939 264.946 474.983C266.086 475.461 266.39 474.158 266.531 473.235C266.628 472.583 266.791 470.955 265.912 470.434C265.934 470.336 265.955 470.227 265.988 470.14C266.14 469.597 266.281 469.033 266.303 468.414C266.324 467.795 266.227 467.111 265.934 466.459C265.868 466.307 265.771 466.145 265.662 466.036C265.684 465.83 265.619 465.558 265.543 465.319C264.935 463.463 263.643 461.888 262.254 460.976C260.875 460.064 259.409 459.749 258.041 459.728C257.032 459.717 255.697 459.966 255.61 461.486C255.61 461.682 255.642 461.867 255.707 462.051C255.523 461.997 255.371 462.116 255.262 462.247C254.958 462.659 254.828 463.256 254.828 463.886C254.828 464.516 254.948 465.178 255.078 465.841C255.1 465.938 255.121 466.058 255.132 466.177C254.047 465.732 254.199 467.654 254.296 468.436C254.416 469.413 254.687 470.868 255.718 471.335C255.773 471.769 255.859 472.203 256.011 472.638C256.229 473.267 256.533 473.821 256.891 474.321C256.891 474.321 256.891 474.331 256.891 474.342C256.891 475.026 256.902 475.71 256.912 476.395C256.912 476.449 256.934 476.568 256.912 476.633C256.902 476.59 256.728 476.72 256.684 476.742C256.522 476.829 256.359 476.905 256.196 476.992H255.751V476.97H255.642C255.349 476.937 255.045 476.937 254.741 476.948H254.709C254.318 476.959 253.927 476.992 253.547 477.024C252.852 477.089 252.158 477.024 251.474 477.1C249.78 477.307 247.446 478.838 247.001 482.214C246.795 483.8 247.631 485.2 249.183 485.852L268.734 493.626L268.745 493.637ZM266.314 473.224C266.303 473.311 266.281 473.398 266.27 473.452C266.281 473.376 266.292 473.3 266.314 473.224Z" fill="white"/>
<path d="M258.975 141.545C262.08 108.558 240.336 70.8485 210.417 57.3303C196.652 51.1086 183.56 51.0978 173.128 56.1033L173.019 56.1576C171.608 56.8417 170.251 57.6126 168.948 58.4703L144.468 73.4218L157.05 71.2828C153.652 77.1787 151.405 84.3341 150.624 92.5645C147.519 125.551 169.263 163.261 199.182 176.779C205.304 179.548 211.297 181.068 216.985 181.481L219.927 187.952L237.014 177.745C237.958 177.268 238.881 176.746 239.782 176.182L240.086 176.008C250.399 169.472 257.499 157.528 258.997 141.523" fill="#1A1A1A"/>
<path d="M236.612 154.998C233.507 187.984 206.737 203.761 176.808 190.243C146.889 176.725 125.145 139.015 128.25 106.028C131.355 73.0417 158.125 57.2542 188.054 70.7833C217.973 84.3015 239.717 122.011 236.612 154.998Z" fill="#F7931E"/>
<path d="M147.03 115.594L147.096 127.799C147.096 128.993 147.823 130.003 148.995 130.437L206.368 151.741C208.887 152.674 212.024 150.622 212.013 148.038L211.948 135.823C211.948 134.628 211.221 133.619 210.048 133.184L152.675 111.881C150.157 110.947 147.02 112.999 147.03 115.583" fill="#FCFEFF"/>
<path d="M171.76 161.795L183.875 166.29C186.393 167.224 189.531 165.172 189.52 162.588L189.194 104.476C189.194 103.281 188.467 102.272 187.294 101.837L175.179 97.342C172.661 96.4082 169.524 98.4604 169.534 101.045L169.86 159.157C169.86 160.351 170.587 161.361 171.76 161.795Z" fill="#FCFEFF"/>
<path d="M529.49 247.465L424.938 211.829V141.751L529.49 177.387V247.465Z" stroke="white" stroke-width="0.95" stroke-linecap="round" stroke-linejoin="round"/>
<g opacity="0.42">
<mask id="mask0_107_8202" style="mask-type:luminance" maskUnits="userSpaceOnUse" x="430" y="153" width="92" height="85">
<path d="M521.945 153.63H430.789V237.247H521.945V153.63Z" fill="white"/>
</mask>
<g mask="url(#mask0_107_8202)">
<path d="M509.168 180.351V180.341L430.789 153.619V206.161L443.566 210.515V210.526L521.945 237.247V184.705L509.168 180.351Z" fill="#143A8F"/>
</g>
</g>
<path d="M424.938 211.829V247.508L390.721 260.657" stroke="white" stroke-width="0.95" stroke-linecap="round" stroke-linejoin="round"/>
<path d="M440.44 175.52L517.06 200.71" stroke="white" stroke-width="0.95" stroke-linecap="round" stroke-linejoin="round"/>
<path d="M440.44 191.948L499.398 211.329" stroke="white" stroke-width="0.95" stroke-linecap="round" stroke-linejoin="round"/>
</g>
<defs>
<clipPath id="clip0_107_8202">
<rect width="530" height="663" fill="white"/>
</clipPath>
</defs>
</svg>
