<svg width="577" height="596" viewBox="0 0 577 596" fill="none" xmlns="http://www.w3.org/2000/svg">
<path d="M454.24 116.48L297.92 26.2299C297.92 26.2299 297.92 26.2299 297.91 26.2299L297.68 26.0999C297.5 25.9999 297.29 25.8799 297.27 25.8599C297.22 25.8299 297.16 25.7999 297.11 25.7799C297.05 25.7499 297 25.7299 296.95 25.6999C296.9 25.6799 296.84 25.6499 296.79 25.6299C296.73 25.6099 296.68 25.5899 296.62 25.5699C296.56 25.5499 296.51 25.5299 296.45 25.5099C296.39 25.4899 296.33 25.4699 296.27 25.4599C296.27 25.4599 296.27 25.4599 296.26 25.4599C296.26 25.4599 296.25 25.4599 296.24 25.4599C296.19 25.4499 296.14 25.4399 296.08 25.4299C296.05 25.4299 296.03 25.4299 296 25.4199C295.98 25.4199 295.96 25.4199 295.94 25.4099C295.92 25.4099 295.91 25.4099 295.89 25.4099C295.83 25.4099 295.76 25.3899 295.7 25.3899C295.7 25.3899 295.69 25.3899 295.68 25.3899C295.6 25.3899 295.53 25.3899 295.46 25.3899C295.46 25.3899 295.44 25.3899 295.43 25.3899C295.4 25.3899 295.36 25.3899 295.33 25.3899C295.29 25.3899 295.25 25.3899 295.21 25.3899C295.2 25.3899 295.19 25.3899 295.18 25.3899C295.13 25.3899 295.07 25.4099 295.02 25.4099C294.99 25.4099 294.96 25.4099 294.93 25.4199C294.93 25.4199 294.92 25.4199 294.91 25.4199C294.8 25.4399 294.7 25.4699 294.6 25.4999C294.6 25.4999 294.59 25.4999 294.58 25.4999C294.57 25.4999 294.56 25.5099 294.55 25.5199C294.42 25.5699 294.29 25.6199 294.18 25.6899L289.59 28.3599C289.71 28.2899 289.83 28.2399 289.96 28.1899C290.01 28.1699 290.06 28.1599 290.11 28.1399C290.17 28.1199 290.23 28.0999 290.29 28.0899C290.36 28.0699 290.44 28.0599 290.51 28.0499C290.54 28.0499 290.57 28.0499 290.6 28.0399C290.7 28.0299 290.81 28.0199 290.92 28.0299C290.94 28.0299 290.96 28.0299 290.98 28.0299C291.09 28.0299 291.2 28.0399 291.32 28.0599C291.32 28.0599 291.34 28.0599 291.35 28.0599C291.47 28.0799 291.59 28.0999 291.71 28.1299C291.72 28.1299 291.73 28.1299 291.74 28.1299C291.86 28.1599 291.98 28.1999 292.1 28.2499C292.11 28.2499 292.12 28.2499 292.14 28.2599C292.27 28.3099 292.4 28.3699 292.53 28.4299C292.58 28.4599 292.64 28.4899 292.69 28.5099C292.73 28.5299 292.77 28.5499 292.81 28.5799L293.68 29.0799L450.25 119.48C450.43 119.58 450.65 119.58 450.83 119.48L454.27 117.48C454.65 117.26 454.65 116.7 454.27 116.48" fill="#B5CFEA"/>
<path d="M458.38 122.64V122.62C458.38 122.56 458.38 122.5 458.38 122.45C458.38 122.39 458.38 122.33 458.38 122.27C458.38 122.27 458.38 122.25 458.38 122.24V122.22C458.38 122.18 458.38 122.14 458.37 122.1C458.37 122.04 458.36 121.99 458.35 121.93C458.35 121.9 458.35 121.88 458.34 121.85C458.34 121.84 458.34 121.83 458.34 121.81C458.34 121.79 458.34 121.77 458.34 121.75C458.34 121.69 458.32 121.63 458.31 121.58C458.3 121.52 458.29 121.47 458.28 121.42C458.27 121.36 458.25 121.3 458.24 121.25C458.23 121.19 458.21 121.14 458.2 121.08C458.2 121.06 458.2 121.05 458.19 121.03C458.19 121.02 458.19 121.01 458.19 121C458.19 120.97 458.17 120.94 458.16 120.91C458.14 120.85 458.12 120.8 458.11 120.75C458.1 120.71 458.08 120.67 458.07 120.63C458.07 120.63 458.07 120.62 458.07 120.61C458.07 120.61 458.07 120.6 458.07 120.59C458.05 120.54 458.03 120.49 458.01 120.44C457.99 120.39 457.97 120.34 457.95 120.29C457.95 120.27 457.93 120.25 457.92 120.23C457.92 120.23 457.92 120.21 457.91 120.2C457.91 120.18 457.89 120.16 457.88 120.14C457.86 120.09 457.83 120.04 457.81 119.99C457.79 119.94 457.76 119.89 457.74 119.84C457.74 119.84 457.74 119.84 457.74 119.83C457.74 119.83 457.74 119.81 457.73 119.81C457.7 119.76 457.68 119.7 457.65 119.65C457.62 119.6 457.6 119.55 457.57 119.5C457.55 119.47 457.53 119.43 457.52 119.4C457.52 119.38 457.5 119.37 457.49 119.35C457.44 119.27 457.39 119.19 457.34 119.12C457.32 119.1 457.31 119.07 457.29 119.04C457.29 119.04 457.29 119.04 457.29 119.03C457.23 118.93 457.16 118.84 457.09 118.74C457.08 118.73 457.07 118.71 457.06 118.7C457.06 118.69 457.04 118.68 457.03 118.66C457 118.63 456.98 118.6 456.96 118.56C456.92 118.51 456.88 118.46 456.84 118.41C456.82 118.39 456.81 118.37 456.79 118.35C456.79 118.35 456.77 118.33 456.76 118.32C456.75 118.3 456.73 118.28 456.71 118.27C456.67 118.22 456.63 118.18 456.58 118.13C456.55 118.09 456.51 118.06 456.48 118.03C456.48 118.03 456.47 118.02 456.46 118.01C456.45 118 456.45 118 456.44 117.99C456.39 117.94 456.35 117.9 456.3 117.85C456.25 117.8 456.2 117.76 456.15 117.71C456.1 117.67 456.05 117.63 456 117.58C455.95 117.54 455.9 117.49 455.84 117.45C455.84 117.45 455.83 117.45 455.82 117.44C455.82 117.44 455.8 117.43 455.8 117.42C455.76 117.39 455.72 117.36 455.69 117.33C455.64 117.29 455.59 117.26 455.53 117.22C455.51 117.21 455.5 117.2 455.48 117.19C455.48 117.19 455.47 117.19 455.46 117.18C455.43 117.16 455.4 117.14 455.37 117.12C455.32 117.09 455.26 117.05 455.21 117.02C455.2 117.02 451.4 114.82 451.39 114.81L446.7 117.64C446.7 117.64 450.72 119.75 450.78 119.78C450.83 119.81 450.89 119.85 450.94 119.88C450.99 119.92 451.05 119.95 451.1 119.99C451.15 120.03 451.21 120.07 451.26 120.11C451.28 120.13 451.3 120.14 451.32 120.16C451.4 120.23 451.48 120.3 451.56 120.37C451.64 120.44 451.72 120.52 451.8 120.6C451.8 120.61 451.82 120.62 451.83 120.63C451.9 120.7 451.97 120.78 452.04 120.86C452.05 120.87 452.06 120.88 452.07 120.9C452.14 120.98 452.21 121.05 452.27 121.13C452.28 121.15 452.29 121.16 452.3 121.17C452.36 121.25 452.43 121.33 452.49 121.41C452.52 121.45 452.55 121.5 452.58 121.54C452.62 121.59 452.65 121.64 452.69 121.7C452.73 121.76 452.77 121.83 452.81 121.89C452.84 121.93 452.86 121.97 452.89 122.01C452.91 122.05 452.93 122.08 452.95 122.12C452.99 122.19 453.03 122.25 453.06 122.32C453.06 122.34 453.08 122.35 453.09 122.37C453.14 122.46 453.18 122.55 453.23 122.65C453.23 122.65 453.23 122.67 453.24 122.67C453.29 122.77 453.33 122.87 453.37 122.97C453.37 122.98 453.37 122.99 453.38 123C453.42 123.1 453.46 123.2 453.49 123.29C453.49 123.3 453.49 123.32 453.5 123.33C453.53 123.43 453.57 123.52 453.59 123.62C453.59 123.64 453.59 123.65 453.6 123.67C453.63 123.77 453.65 123.86 453.68 123.96C453.68 123.97 453.68 123.99 453.69 124C453.71 124.1 453.73 124.2 453.75 124.29C453.75 124.3 453.75 124.32 453.75 124.33C453.77 124.43 453.78 124.53 453.79 124.62C453.79 124.63 453.79 124.65 453.79 124.66C453.8 124.76 453.81 124.86 453.82 124.96C453.82 125.01 453.82 125.06 453.82 125.11C453.82 125.17 453.82 125.23 453.82 125.29C453.82 125.35 453.82 125.41 453.82 125.47C453.82 125.53 453.82 125.59 453.81 125.65C453.81 125.72 453.8 125.78 453.79 125.85C453.79 125.9 453.78 125.95 453.77 126C453.77 126 453.75 126.1 453.73 126.27L437.31 227.78C437.23 228.26 435.36 231.35 435.78 231.11L440.27 227.3C441.22 226.49 441.85 225.38 442.05 224.15L458.17 124.55C458.25 124.07 458.37 123.34 458.37 123.34C458.37 123.29 458.38 123.24 458.39 123.19C458.39 123.15 458.39 123.1 458.4 123.06C458.4 123.06 458.4 123.05 458.4 123.04C458.4 123.02 458.4 123.01 458.4 123C458.4 122.94 458.4 122.88 458.41 122.82C458.41 122.77 458.41 122.72 458.41 122.68V122.66" fill="#50D6B6"/>
<path d="M450.52 119.65C452.66 120.89 454.1 123.73 453.73 126L437.07 228.98C436.7 231.25 434.67 232.09 432.53 230.85L274.8 139.79C272.66 138.55 271.22 135.71 271.59 133.44L288.25 30.45C288.62 28.18 290.65 27.34 292.79 28.58L450.52 119.64V119.65Z" fill="#1A1A1A"/>
<path d="M457.05 99.34L300.72 9.08999C300.72 9.08999 300.72 9.08999 300.71 9.08999L300.48 8.94999C300.3 8.84999 300.09 8.72999 300.07 8.70999C300.02 8.67999 299.96 8.64999 299.91 8.62999C299.85 8.59999 299.8 8.57999 299.75 8.54999C299.7 8.52999 299.64 8.49999 299.59 8.47999C299.53 8.45999 299.48 8.43999 299.42 8.41999C299.36 8.39999 299.31 8.37999 299.25 8.35999C299.19 8.33999 299.13 8.31999 299.07 8.30999C299.07 8.30999 299.07 8.30999 299.06 8.30999C299.06 8.30999 299.05 8.30999 299.04 8.30999C298.99 8.29999 298.94 8.28999 298.88 8.27999C298.85 8.27999 298.83 8.27999 298.8 8.26999C298.78 8.26999 298.76 8.26999 298.74 8.25999C298.72 8.25999 298.71 8.25999 298.69 8.25999C298.63 8.25999 298.56 8.23999 298.5 8.23999C298.5 8.23999 298.49 8.23999 298.48 8.23999C298.4 8.23999 298.33 8.23999 298.26 8.23999C298.26 8.23999 298.24 8.23999 298.23 8.23999C298.2 8.23999 298.16 8.23999 298.13 8.23999C298.09 8.23999 298.05 8.23999 298.01 8.23999C298 8.23999 297.99 8.23999 297.98 8.23999C297.93 8.23999 297.87 8.25999 297.82 8.25999C297.79 8.25999 297.76 8.25999 297.73 8.26999C297.73 8.26999 297.72 8.26999 297.71 8.26999C297.6 8.28999 297.5 8.31999 297.4 8.34999C297.4 8.34999 297.39 8.34999 297.38 8.34999C297.37 8.34999 297.36 8.35999 297.35 8.36999C297.22 8.41999 297.09 8.46999 296.98 8.53999L292.39 11.21C292.51 11.14 292.63 11.09 292.76 11.04C292.81 11.02 292.86 11.01 292.91 10.99C292.97 10.97 293.03 10.95 293.09 10.94C293.16 10.92 293.24 10.91 293.31 10.9C293.34 10.9 293.37 10.9 293.4 10.89C293.5 10.88 293.61 10.87 293.72 10.88C293.74 10.88 293.76 10.88 293.78 10.88C293.89 10.88 294 10.89 294.12 10.91H294.14C294.26 10.93 294.38 10.95 294.5 10.98C294.51 10.98 294.52 10.98 294.53 10.98C294.65 11.01 294.77 11.05 294.89 11.1C294.9 11.1 294.91 11.1 294.93 11.11C295.06 11.16 295.19 11.22 295.32 11.28C295.37 11.31 295.43 11.33 295.48 11.36C295.52 11.38 295.56 11.4 295.6 11.43L296.47 11.93L453.04 102.33C453.22 102.43 453.44 102.43 453.62 102.33L457.06 100.33C457.44 100.11 457.44 99.55 457.06 99.33" fill="#61E2C0"/>
<path d="M461.18 105.5V105.48C461.18 105.42 461.18 105.36 461.18 105.31C461.18 105.25 461.18 105.19 461.18 105.13C461.18 105.13 461.18 105.11 461.18 105.1V105.08C461.18 105.04 461.18 105 461.17 104.96C461.17 104.9 461.16 104.85 461.15 104.79C461.15 104.76 461.15 104.74 461.14 104.71C461.14 104.7 461.14 104.69 461.14 104.68C461.14 104.66 461.14 104.64 461.14 104.62C461.14 104.56 461.12 104.51 461.11 104.45C461.1 104.39 461.09 104.34 461.08 104.29C461.07 104.23 461.05 104.17 461.04 104.12C461.03 104.06 461.01 104.01 461 103.95C461 103.93 461 103.92 460.99 103.9C460.99 103.89 460.99 103.88 460.99 103.87C460.99 103.84 460.97 103.81 460.96 103.78C460.94 103.72 460.92 103.67 460.91 103.62C460.9 103.58 460.88 103.54 460.87 103.5C460.87 103.5 460.87 103.49 460.87 103.48C460.87 103.48 460.87 103.47 460.87 103.46C460.85 103.41 460.83 103.36 460.81 103.31C460.79 103.26 460.77 103.21 460.75 103.16C460.75 103.14 460.73 103.12 460.72 103.1C460.72 103.1 460.72 103.08 460.71 103.07C460.71 103.05 460.69 103.03 460.68 103.01C460.66 102.96 460.63 102.91 460.61 102.86C460.59 102.81 460.56 102.76 460.54 102.71C460.54 102.71 460.54 102.71 460.54 102.7C460.54 102.7 460.54 102.68 460.53 102.68C460.5 102.63 460.48 102.57 460.45 102.52C460.42 102.47 460.4 102.42 460.37 102.37C460.35 102.34 460.33 102.3 460.32 102.27C460.32 102.25 460.3 102.24 460.29 102.22C460.24 102.14 460.19 102.06 460.14 101.99C460.12 101.97 460.11 101.94 460.09 101.91C460.09 101.91 460.09 101.91 460.09 101.9C460.03 101.8 459.96 101.71 459.89 101.61C459.88 101.6 459.87 101.58 459.86 101.57C459.86 101.56 459.84 101.55 459.83 101.53C459.81 101.5 459.78 101.47 459.76 101.43C459.72 101.38 459.68 101.33 459.64 101.28C459.62 101.26 459.61 101.24 459.59 101.22C459.59 101.22 459.57 101.2 459.56 101.19C459.55 101.17 459.53 101.15 459.51 101.14C459.47 101.09 459.43 101.05 459.38 101C459.35 100.96 459.31 100.93 459.28 100.9C459.28 100.9 459.27 100.89 459.26 100.88C459.26 100.88 459.25 100.87 459.24 100.86C459.19 100.81 459.15 100.77 459.1 100.72C459.05 100.67 459 100.63 458.95 100.58C458.9 100.54 458.85 100.5 458.8 100.45C458.75 100.41 458.7 100.36 458.64 100.32C458.64 100.32 458.63 100.32 458.62 100.31C458.62 100.31 458.6 100.3 458.6 100.29C458.56 100.26 458.52 100.23 458.49 100.2C458.44 100.16 458.39 100.12 458.33 100.09C458.31 100.08 458.3 100.07 458.28 100.06C458.28 100.06 458.27 100.06 458.26 100.05C458.23 100.03 458.2 100.01 458.17 99.9899C458.12 99.9599 458.06 99.9199 458.01 99.8899C458 99.8899 454.2 97.6899 454.19 97.6799L449.5 100.51C449.5 100.51 453.52 102.62 453.58 102.65C453.63 102.68 453.69 102.72 453.74 102.75C453.79 102.79 453.85 102.82 453.9 102.86C453.95 102.9 454.01 102.94 454.06 102.98C454.08 103 454.1 103.01 454.12 103.03C454.2 103.1 454.28 103.17 454.36 103.24C454.44 103.31 454.52 103.39 454.6 103.47C454.6 103.48 454.62 103.49 454.63 103.5C454.7 103.57 454.77 103.65 454.84 103.73C454.85 103.74 454.86 103.75 454.87 103.77C454.94 103.85 455.01 103.92 455.07 104C455.08 104.01 455.09 104.03 455.1 104.04C455.16 104.12 455.23 104.2 455.29 104.28C455.32 104.32 455.35 104.37 455.38 104.41C455.42 104.46 455.45 104.51 455.49 104.57C455.53 104.63 455.57 104.7 455.61 104.76C455.64 104.8 455.66 104.84 455.69 104.88C455.71 104.92 455.73 104.95 455.75 104.99C455.79 105.06 455.83 105.12 455.86 105.19C455.86 105.21 455.88 105.22 455.89 105.24C455.94 105.33 455.98 105.42 456.03 105.52C456.03 105.52 456.03 105.54 456.04 105.54C456.09 105.64 456.13 105.74 456.17 105.84C456.17 105.85 456.17 105.86 456.18 105.87C456.22 105.97 456.26 106.07 456.29 106.16C456.29 106.17 456.29 106.19 456.3 106.2C456.33 106.3 456.37 106.39 456.39 106.49C456.39 106.51 456.39 106.52 456.4 106.54C456.43 106.64 456.45 106.73 456.48 106.83C456.48 106.84 456.48 106.86 456.49 106.87C456.51 106.97 456.53 107.07 456.55 107.16C456.55 107.18 456.55 107.19 456.55 107.2C456.57 107.3 456.58 107.4 456.59 107.49C456.59 107.5 456.59 107.52 456.59 107.53C456.6 107.63 456.61 107.73 456.62 107.83C456.62 107.88 456.62 107.93 456.62 107.98C456.62 108.04 456.62 108.1 456.62 108.16C456.62 108.22 456.62 108.28 456.62 108.34C456.62 108.4 456.62 108.46 456.61 108.52C456.61 108.59 456.6 108.65 456.59 108.72C456.59 108.77 456.58 108.82 456.57 108.87C456.57 108.87 456.55 108.97 456.53 109.14L440.11 210.65C440.03 211.13 438.16 214.22 438.58 213.98L443.07 210.17C444.02 209.37 444.65 208.25 444.85 207.02L460.97 107.42C461.05 106.94 461.17 106.21 461.17 106.21C461.17 106.16 461.18 106.11 461.19 106.06C461.19 106.02 461.19 105.97 461.2 105.93V105.91C461.2 105.91 461.2 105.88 461.2 105.87C461.2 105.81 461.2 105.75 461.21 105.69C461.21 105.64 461.21 105.59 461.21 105.55V105.53" fill="#50D6B6"/>
<path d="M453.33 102.51C455.47 103.75 456.91 106.59 456.54 108.86L439.88 211.84C439.51 214.11 437.48 214.95 435.34 213.71L277.61 122.65C275.47 121.41 274.03 118.57 274.4 116.3L291.06 13.3099C291.43 11.0399 293.46 10.1999 295.6 11.4399L453.33 102.5V102.51Z" fill="#333333"/>
<path d="M444.89 126.28C446.92 127.43 448.3 129.9 447.96 131.81L432.89 218.21C432.56 220.12 430.64 220.73 428.61 219.58L279.01 134.83C276.98 133.68 275.6 131.21 275.94 129.3L291.01 42.9C291.34 40.99 293.26 40.3799 295.29 41.5299L444.9 126.28H444.89Z" fill="white"/>
<path d="M373.22 80.9299C373.22 81.9199 372.52 82.3199 371.65 81.8199C370.78 81.3199 370.09 80.1099 370.09 79.1199C370.09 78.1299 370.79 77.7299 371.65 78.2299C372.51 78.7299 373.21 79.9399 373.21 80.9299" fill="white"/>
<path d="M447.89 108.91C449.92 110.06 451.3 112.53 450.96 114.44L435.89 200.84C435.56 202.75 433.64 203.36 431.61 202.21L282.01 117.46C279.98 116.31 278.6 113.84 278.94 111.93L294.01 25.5301C294.34 23.6201 296.26 23.0101 298.29 24.1601L447.9 108.91H447.89Z" fill="white"/>
<path d="M376.22 63.57C376.22 64.56 375.52 64.96 374.65 64.46C373.78 63.96 373.09 62.75 373.09 61.76C373.09 60.77 373.79 60.37 374.65 60.87C375.51 61.37 376.21 62.58 376.21 63.57" fill="white"/>
<path d="M276.38 134.61L352.86 178.67C354.33 179.52 356.39 178.52 356.66 176.84L373.85 68.6699C373.99 67.8199 373.51 66.7699 372.77 66.3499L296.36 23.0599C294.89 22.2099 292.83 23.2099 292.56 24.8899L275.4 132.53C275.26 133.38 275.65 134.19 276.39 134.61" fill="#EAEAEA"/>
<path d="M322.5 102.41L324.71 103.69C326.34 104.63 327.93 103.65 328.28 101.51L328.36 101.03L320.73 96.6399L320.55 97.7499C320.26 99.5399 321.14 101.63 322.5 102.42" fill="#333333"/>
<path d="M321.18 110.7L323.39 111.98C325.02 112.92 326.61 111.94 326.96 109.8L327.04 109.32L319.41 104.93L319.23 106.04C318.94 107.83 319.82 109.92 321.18 110.71" fill="#333333"/>
<path d="M323.83 94.1301L326.04 95.4101C327.67 96.3501 329.26 95.3701 329.61 93.2301L329.69 92.7501L322.06 88.3601L321.88 89.4701C321.59 91.2601 322.47 93.3501 323.83 94.1401" fill="#333333"/>
<path d="M325.15 85.8401L327.36 87.1201C328.99 88.0601 330.58 87.0801 330.93 84.9401L331.01 84.4601L323.38 80.0701L323.2 81.1801C322.91 82.9701 323.79 85.0601 325.15 85.8501" fill="#333333"/>
<path d="M326.47 77.55L328.68 78.83C330.31 79.77 331.9 78.79 332.25 76.65L332.33 76.17L324.7 71.78L324.52 72.89C324.23 74.68 325.11 76.77 326.47 77.56" fill="#333333"/>
<path d="M327.59 70.0099L329.8 71.2799C331.47 72.2399 333.11 71.2399 333.46 69.0499L334.14 64.8199L326.51 60.4299L325.7 65.4899C325.42 67.2299 326.27 69.2599 327.59 70.0199" fill="#333333"/>
<path d="M319.42 119.77L322.11 121.32C324.09 122.46 326.03 121.27 326.45 118.67L326.54 118.09L317.26 112.75L317.04 114.1C316.69 116.28 317.75 118.82 319.41 119.78" fill="#333333"/>
<path d="M317.82 128.55L320.82 130.28C323.03 131.55 325.19 130.23 325.65 127.33L325.75 126.68L315.42 120.73L315.18 122.24C314.79 124.67 315.98 127.5 317.82 128.56" fill="#333333"/>
<path d="M316.34 137.79L319.34 139.52C321.55 140.79 323.71 139.47 324.17 136.57L324.27 135.92L313.94 129.97L313.7 131.48C313.31 133.91 314.5 136.74 316.34 137.8" fill="#333333"/>
<path d="M314.5 146.74L318.13 148.83C320.79 150.37 323.41 148.77 323.97 145.26L324.1 144.47L311.61 137.27L311.32 139.09C310.85 142.03 312.28 145.45 314.51 146.74" fill="#333333"/>
<path d="M322.23 51.9501C321.04 51.8201 318.76 51.1801 317.7 50.5001C311.22 46.3101 309.45 41.3401 304.3 38.1601C303.38 37.5901 302.19 37.2801 301.3 38.5401C300.52 39.6301 300.35 41.5101 300.68 42.8001C301.01 44.0901 301.72 44.9001 302.44 45.5901C305.71 48.7101 309.56 50.1301 313.31 51.7501C315.14 52.5401 317.08 53.2501 318.74 54.5901C319.7 55.3701 320.82 57.4401 322.07 57.2401C322.7 57.1401 323.18 56.3301 323.4 55.3201C323.81 53.4701 323.11 52.0601 322.21 51.9601" fill="#333333"/>
<path d="M339.96 62.16C340.99 63.31 343.07 65.18 344.15 65.73C350.76 69.09 353.68 66.82 358.9 69.6C359.83 70.09 360.91 71.09 361.29 73.08C361.62 74.8 361.21 76.55 360.56 77.27C359.91 77.99 359.08 77.92 358.28 77.73C354.65 76.88 351.03 73.99 347.44 71.38C345.69 70.11 343.87 68.64 342.09 68.02C341.06 67.66 339.52 68.2 338.54 66.71C338.05 65.97 337.88 64.79 337.99 63.7C338.19 61.73 339.18 61.3 339.96 62.17" fill="#333333"/>
<path d="M309.79 57.6699C303.4 60.2199 299.38 64.5499 297.36 72.9699C295.57 80.4199 294.8 88.0399 295.03 97.2899C295.14 101.59 295.87 106.05 297.09 110.5C298.18 114.46 300.86 118.82 304.81 117.76C306.37 117.34 306.97 114.67 307.71 113.13C309.66 109.05 311.2 105.93 314.88 104.13C315.57 103.79 316.32 105.36 315.63 105.7C311.23 107.86 310.37 112.48 307.72 116.76C306.58 118.6 304.91 120.72 302.56 120.31C297.08 119.36 295.45 109.51 294.58 104.7C292.52 93.3899 292.4 81.1999 294.7 71.4599C296.79 62.5999 302.31 58.7999 309.06 56.1099C309.77 55.8299 310.53 57.3899 309.81 57.6799" fill="#333333"/>
<path d="M318.81 72.3201C312.74 70.7701 308.68 66.9801 303.99 60.8301C303.33 59.9601 304.87 57.8601 305.46 58.8001C309.06 64.5901 312.92 69.2201 318.69 70.7001C319.53 70.9201 319.65 72.5301 318.81 72.3201Z" fill="#333333"/>
<path d="M317.65 79.6301C310.76 77.7901 304.28 73.1501 298.78 66.1601C298.11 65.3001 299.86 62.7801 300.42 63.7401C303.7 69.4001 310.99 76.2701 317.53 78.0101C318.37 78.2301 318.49 79.8501 317.65 79.6301Z" fill="#333333"/>
<path d="M316.05 85.6101C309.09 84.8201 301.58 81.2301 295.35 74.7301C294.62 73.9701 295.24 71.4301 295.97 72.2001C302.02 78.5201 309.17 83.2301 315.93 84.0001C316.76 84.0901 316.87 85.7101 316.05 85.6201" fill="#333333"/>
<path d="M316.75 93.2899C309.34 92.5299 300.3 89.6099 294.15 81.2699C293.5 80.3899 294.25 77.3899 294.91 78.2799C300.79 86.2399 309.58 90.9499 316.64 91.6699C317.47 91.7499 317.58 93.3699 316.76 93.2899" fill="#333333"/>
<path d="M316.4 99.9501C309.38 100.81 300.89 97.9501 293.76 92.4101C292.96 91.7901 293.58 88.3101 294.37 88.9201C301.15 94.2001 309.28 99.1201 315.95 98.3001C316.74 98.2001 317.18 99.8501 316.4 99.9501Z" fill="#333333"/>
<path d="M315.48 105.73C308.89 106.62 301.66 105.75 294.84 100.48C294.04 99.8701 294.02 96.5001 294.81 97.1101C301.28 102.11 308.8 104.92 315.03 104.08C315.82 103.97 316.26 105.62 315.48 105.73Z" fill="#333333"/>
<path d="M310.16 111.16C308.02 111.83 305.82 112.62 303.38 112.32C300.8 112.01 298.24 110.4 295.74 108.72C294.93 108.17 294.71 105.25 295.53 105.8C297.72 107.27 300.23 109.61 302.5 110.02C304.91 110.45 307.32 110.25 309.41 109.59C310.14 109.36 310.9 110.93 310.16 111.16Z" fill="#333333"/>
<path d="M348.53 79.9801C353.1 88.8401 355.18 96.6901 354.4 105.82C353.71 113.91 352.13 121.06 349.23 128.51C347.88 131.97 345.97 134.92 343.66 137.33C341.6 139.48 338.1 140.28 335.12 135.23C333.94 133.23 334.22 130.38 334.06 128.31C333.63 122.86 333.26 118.64 330.73 113.26C330.25 112.25 329.17 112.76 329.65 113.78C332.68 120.22 332.05 124.97 333 131.33C333.41 134.06 334.18 137.58 336.25 139.72C341.09 144.71 345.32 138.24 347.45 135.16C352.47 127.92 356.12 117.91 357.06 107.39C357.91 97.8201 354.43 88.8301 349.6 79.4701C349.09 78.4801 348.01 78.9901 348.52 79.9801" fill="#333333"/>
<path d="M336.75 82.6499C342.26 87.7699 346.73 88.8899 352.43 88.7299C353.24 88.7099 352.57 85.3299 351.8 85.4899C347.11 86.5099 342.55 86.2899 337.32 81.4299C336.55 80.7199 335.99 81.9399 336.75 82.6499Z" fill="#333333"/>
<path d="M335.58 89.9601C341.85 95.7001 348.59 98.6801 355.21 98.6701C356.02 98.6701 355.3 94.7201 354.55 94.9301C350.17 96.1701 342.1 94.1901 336.15 88.7401C335.38 88.0401 334.81 89.2601 335.58 89.9601Z" fill="#333333"/>
<path d="M335.16 96.62C341.18 103.31 348.48 108.25 355.55 109.4C356.38 109.54 356.61 106.78 355.77 106.64C348.89 105.51 341.57 101.89 335.73 95.4C335.01 94.6 334.45 95.83 335.16 96.62Z" fill="#333333"/>
<path d="M332.34 102.27C338.72 109.45 347.1 116.56 354.65 116.12C355.45 116.07 355.7 112.79 354.9 112.83C347.69 113.25 339 107.89 332.92 101.05C332.21 100.25 331.64 101.48 332.35 102.27" fill="#333333"/>
<path d="M330.68 108.18C336.26 116.3 344.16 122.89 351.71 125.79C352.55 126.11 353.06 122.57 352.22 122.25C345.04 119.48 336.84 115 331.53 107.29C330.9 106.38 330.05 107.28 330.68 108.19" fill="#333333"/>
<path d="M329.76 113.96C334.98 121.66 341.24 128.55 348.46 131.37C349.3 131.7 350.31 128.93 349.47 128.6C342.62 125.93 335.56 120.34 330.62 113.06C330 112.14 329.15 113.04 329.77 113.96" fill="#333333"/>
<path d="M332.6 124.09C334.18 126.91 335.79 129.89 337.9 132.21C340.13 134.67 342.74 136.04 345.3 137.28C346.14 137.68 347.17 135.48 346.33 135.07C344.08 133.98 341.31 133.28 339.3 131.22C337.17 129.04 335.22 126.32 333.68 123.58C333.14 122.61 332.05 123.12 332.6 124.09Z" fill="#333333"/>
<path d="M295.92 54.2899C295.61 53.8899 295.31 53.3899 295.19 52.4299C295.07 51.4699 295.16 49.9599 295.53 48.6699C296.15 46.4999 297.04 46.3299 297.67 46.5399C299.28 47.0699 300.9 47.5899 302.51 48.1199C303.06 48.2999 305.68 48.7299 304.12 53.4799C303.3 55.9899 300.54 55.8099 299.78 55.9099C298.35 56.1099 297.03 55.6799 295.93 54.2999" fill="#333333"/>
<path d="M362.06 92.3899C362.44 92.3899 362.83 92.2899 363.21 91.6199C363.59 90.9499 363.95 89.5899 364.02 88.1299C364.14 85.6699 363.45 84.5999 362.86 84.0999C361.36 82.8299 359.87 81.5699 358.37 80.2999C357.86 79.8699 355.56 77.4599 355.47 83.0599C355.42 86.0099 357.77 88.7699 358.37 89.6699C359.5 91.3399 360.73 92.3799 362.05 92.3999" fill="#333333"/>
<path d="M323.59 72.47L333.06 77.93C333.32 78.08 333.57 77.93 333.62 77.59C333.67 77.26 333.51 76.86 333.25 76.71L323.78 71.25C323.53 71.1 323.27 71.25 323.22 71.59C323.17 71.93 323.33 72.32 323.59 72.47Z" fill="#333333"/>
<path d="M329.91 55.98L332.12 57.26C333.75 58.2 335.34 57.22 335.69 55.08L335.77 54.6L328.14 50.21L327.96 51.32C327.67 53.11 328.55 55.2 329.91 55.99" fill="#333333"/>
<path d="M327.03 50.8899L336.5 56.3499C336.76 56.4999 337.01 56.3499 337.06 56.0099C337.11 55.6799 336.95 55.2799 336.69 55.1299L327.22 49.6699C326.97 49.5199 326.71 49.6699 326.66 50.0099C326.61 50.3499 326.77 50.7399 327.03 50.8899Z" fill="#333333"/>
<path d="M322.27 80.75L331.74 86.21C332 86.36 332.25 86.21 332.3 85.87C332.35 85.54 332.19 85.14 331.93 84.99L322.46 79.53C322.21 79.38 321.95 79.53 321.9 79.87C321.85 80.21 322.01 80.6 322.27 80.75Z" fill="#333333"/>
<path d="M320.94 89.0401L330.41 94.5001C330.67 94.6501 330.92 94.5001 330.97 94.1601C331.02 93.8301 330.86 93.4301 330.6 93.2801L321.13 87.8201C320.88 87.6701 320.62 87.8201 320.57 88.1601C320.52 88.5001 320.68 88.8901 320.94 89.0401Z" fill="#333333"/>
<path d="M319.62 97.3301L329.09 102.79C329.35 102.94 329.6 102.79 329.65 102.45C329.7 102.12 329.54 101.72 329.28 101.57L319.81 96.1101C319.56 95.9601 319.3 96.1101 319.25 96.4501C319.2 96.7901 319.36 97.1801 319.62 97.3301Z" fill="#333333"/>
<path d="M318.3 105.61L327.77 111.07C328.03 111.22 328.28 111.07 328.33 110.73C328.38 110.4 328.22 110 327.96 109.85L318.49 104.39C318.24 104.24 317.98 104.39 317.93 104.73C317.88 105.07 318.04 105.46 318.3 105.61Z" fill="#333333"/>
<path d="M316.98 113.9L326.45 119.36C326.71 119.51 326.96 119.36 327.01 119.02C327.06 118.69 326.9 118.29 326.64 118.14L317.17 112.68C316.92 112.53 316.66 112.68 316.61 113.02C316.56 113.36 316.72 113.75 316.98 113.9Z" fill="#333333"/>
<path d="M314.87 121.73L325.9 128.09C326.15 128.24 326.41 128.09 326.46 127.75C326.51 127.41 326.35 127.02 326.09 126.87L315.06 120.51C314.81 120.36 314.55 120.51 314.5 120.85C314.45 121.19 314.61 121.58 314.87 121.73Z" fill="#333333"/>
<path d="M312.26 129.28L325.59 136.96C325.85 137.11 326.1 136.96 326.15 136.62C326.2 136.28 326.04 135.89 325.78 135.74L312.45 128.06C312.2 127.91 311.94 128.06 311.89 128.4C311.84 128.74 312 129.13 312.26 129.28Z" fill="#333333"/>
<path d="M309.94 136.99L325.83 146.14C326.08 146.29 326.34 146.14 326.39 145.8C326.44 145.46 326.28 145.07 326.02 144.92L310.13 135.77C309.88 135.62 309.62 135.77 309.57 136.11C309.52 136.45 309.68 136.84 309.94 136.99Z" fill="#333333"/>
<path d="M324.5 59.2099C324.21 61.0499 325.28 63.2899 326.89 64.2199C328.5 65.1499 330.05 64.4099 330.34 62.5799C330.63 60.7399 329.56 58.4999 327.95 57.5699C326.34 56.6399 324.79 57.3799 324.5 59.2099Z" fill="#333333"/>
<path d="M329.96 62.3601C329.67 64.2001 330.74 66.4401 332.35 67.3701C333.96 68.3001 335.51 67.5601 335.8 65.7201C336.09 63.8801 335.02 61.6401 333.41 60.7101C331.8 59.7801 330.25 60.5201 329.96 62.3501" fill="#333333"/>
<g opacity="0.48">
<mask id="mask0_254_5181" style="mask-type:luminance" maskUnits="userSpaceOnUse" x="374" y="81" width="25" height="53">
<path d="M398.08 81.6699H374.63V133.82H398.08V81.6699Z" fill="white"/>
</mask>
<g mask="url(#mask0_254_5181)">
<path d="M398.09 91.3199L381.38 81.6699L380.37 88.0599L374.64 124.17L391.34 133.82L392.35 127.43H392.36L398.09 91.3199Z" fill="#BBFCE6"/>
</g>
</g>
<g opacity="0.48">
<mask id="mask1_254_5181" style="mask-type:luminance" maskUnits="userSpaceOnUse" x="404" y="95" width="22" height="23">
<path d="M425.72 95.78H404.42V117.59H425.72V95.78Z" fill="white"/>
</mask>
<g mask="url(#mask1_254_5181)">
<path d="M425.73 107.3L405.78 95.78L404.43 106.25L424.07 117.59L425.73 107.3Z" fill="#BBFCE6"/>
</g>
</g>
<g opacity="0.48">
<mask id="mask2_254_5181" style="mask-type:luminance" maskUnits="userSpaceOnUse" x="402" y="111" width="38" height="33">
<path d="M439.83 111.89H402.15V143.02H439.83V111.89Z" fill="white"/>
</mask>
<g mask="url(#mask2_254_5181)">
<path d="M438.18 143.02L402.16 122.22L403.75 111.89L439.84 132.73L438.18 143.02Z" fill="#BBFCE6"/>
</g>
</g>
<g opacity="0.48">
<mask id="mask3_254_5181" style="mask-type:luminance" maskUnits="userSpaceOnUse" x="399" y="127" width="39" height="32">
<path d="M437.43 127.77H399.8V158.94H437.43V127.77Z" fill="white"/>
</mask>
<g mask="url(#mask3_254_5181)">
<path d="M435.78 158.94L399.8 138.17L401.27 127.77L437.43 148.64L435.78 158.94Z" fill="#BBFCE6"/>
</g>
</g>
<g opacity="0.48">
<mask id="mask4_254_5181" style="mask-type:luminance" maskUnits="userSpaceOnUse" x="372" y="132" width="62" height="40">
<path d="M433.47 132.36H372.24V171.21H433.47V132.36Z" fill="white"/>
</mask>
<g mask="url(#mask4_254_5181)">
<path d="M433.47 167.35L392.68 143.8V143.81L372.85 132.36L372.23 136.23L413.02 159.77V159.76L432.85 171.21L433.47 167.35Z" fill="#BBFCE6"/>
</g>
</g>
<g opacity="0.48">
<mask id="mask5_254_5181" style="mask-type:luminance" maskUnits="userSpaceOnUse" x="370" y="143" width="62" height="40">
<path d="M431.89 143.63H370.65V182.48H431.89V143.63Z" fill="white"/>
</mask>
<g mask="url(#mask5_254_5181)">
<path d="M431.89 178.62L391.11 155.07V155.08L371.28 143.63L370.66 147.5L411.44 171.04L431.27 182.48L431.89 178.62Z" fill="#BBFCE6"/>
</g>
</g>
<g opacity="0.48">
<mask id="mask6_254_5181" style="mask-type:luminance" maskUnits="userSpaceOnUse" x="369" y="154" width="62" height="40">
<path d="M430.32 154.9H369.09V193.75H430.32V154.9Z" fill="white"/>
</mask>
<g mask="url(#mask6_254_5181)">
<path d="M430.32 189.89L389.53 166.34V166.35L369.7 154.9L369.08 158.77L409.87 182.31L429.7 193.75L430.32 189.89Z" fill="#BBFCE6"/>
</g>
</g>
<g opacity="0.48">
<mask id="mask7_254_5181" style="mask-type:luminance" maskUnits="userSpaceOnUse" x="367" y="166" width="62" height="40">
<path d="M428.74 166.17H367.5V205.02H428.74V166.17Z" fill="white"/>
</mask>
<g mask="url(#mask7_254_5181)">
<path d="M428.74 201.16L387.96 177.61V177.62L368.13 166.17L367.51 170.04L408.29 193.58L428.12 205.02L428.74 201.16Z" fill="#BBFCE6"/>
</g>
</g>
<path d="M367.12 265.85L227.63 185.31C226.83 184.85 225.85 184.85 225.05 185.32L182.7 210.31C181.01 211.3 181.03 213.75 182.72 214.72L321.74 294.99C322.53 295.45 323.5 295.45 324.3 294.99L367.12 270.27C368.82 269.29 368.82 266.83 367.12 265.84" fill="#9EE5CB"/>
<path d="M322.13 289.58L183.11 209.32C181.42 208.34 181.4 205.9 183.09 204.9L225.44 179.91C226.23 179.44 227.22 179.44 228.02 179.9L367.52 260.44C369.22 261.42 369.22 263.88 367.52 264.87L324.7 289.59C323.91 290.05 322.93 290.05 322.14 289.59" fill="white"/>
<g opacity="0.48">
<mask id="mask8_254_5181" style="mask-type:luminance" maskUnits="userSpaceOnUse" x="221" y="182" width="18" height="11">
<path d="M238.66 182.62H221.6V192.47H238.66V182.62Z" fill="white"/>
</mask>
<g mask="url(#mask8_254_5181)">
<path d="M232.32 192.4C232.1 192.53 231.64 192.48 231.3 192.28L221.92 186.87C221.58 186.67 221.49 186.41 221.71 186.28L227.92 182.69C228.14 182.56 228.6 182.61 228.94 182.81L238.32 188.22C238.66 188.42 238.75 188.68 238.53 188.81L232.32 192.4Z" fill="#BBFCE6"/>
</g>
</g>
<g opacity="0.48">
<mask id="mask9_254_5181" style="mask-type:luminance" maskUnits="userSpaceOnUse" x="232" y="198" width="18" height="11">
<path d="M249.54 198.78H232.48V208.63H249.54V198.78Z" fill="white"/>
</mask>
<g mask="url(#mask9_254_5181)">
<path d="M243.2 208.56C242.97 208.69 242.52 208.64 242.18 208.44L232.8 203.03C232.46 202.83 232.37 202.57 232.6 202.44L238.81 198.85C239.03 198.72 239.49 198.77 239.82 198.97L249.2 204.38C249.54 204.58 249.63 204.84 249.41 204.97L243.2 208.56Z" fill="#BBFCE6"/>
</g>
</g>
<g opacity="0.48">
<mask id="mask10_254_5181" style="mask-type:luminance" maskUnits="userSpaceOnUse" x="226" y="205" width="19" height="11">
<path d="M244.04 205.49H226.98V215.34H244.04V205.49Z" fill="white"/>
</mask>
<g mask="url(#mask10_254_5181)">
<path d="M237.7 215.27C237.47 215.4 237.02 215.35 236.68 215.15L227.3 209.74C226.97 209.55 226.87 209.28 227.09 209.15L233.31 205.56C233.53 205.43 233.99 205.49 234.33 205.68L243.71 211.09C244.05 211.29 244.14 211.55 243.92 211.68L237.7 215.27Z" fill="#BBFCE6"/>
</g>
</g>
<g opacity="0.48">
<mask id="mask11_254_5181" style="mask-type:luminance" maskUnits="userSpaceOnUse" x="212" y="206" width="18" height="11">
<path d="M229.16 206.79H212.1V216.64H229.16V206.79Z" fill="white"/>
</mask>
<g mask="url(#mask11_254_5181)">
<path d="M222.82 216.57C222.6 216.7 222.14 216.65 221.8 216.45L212.42 211.04C212.09 210.85 211.99 210.58 212.21 210.45L218.43 206.86C218.65 206.73 219.11 206.78 219.45 206.98L228.83 212.39C229.17 212.58 229.26 212.85 229.03 212.98L222.82 216.57Z" fill="#BBFCE6"/>
</g>
</g>
<g opacity="0.48">
<mask id="mask12_254_5181" style="mask-type:luminance" maskUnits="userSpaceOnUse" x="199" y="209" width="22" height="14">
<path d="M220.57 209.84H199.19V222.18H220.57V209.84Z" fill="white"/>
</mask>
<g mask="url(#mask12_254_5181)">
<path d="M213.18 222.13C212.96 222.26 212.41 222.16 211.97 221.9L199.68 214.81C199.24 214.56 199.06 214.24 199.28 214.11L206.58 209.9C206.8 209.77 207.35 209.87 207.79 210.13L220.08 217.22C220.53 217.48 220.7 217.79 220.48 217.92L213.18 222.13Z" fill="#BBFCE6"/>
</g>
</g>
<g opacity="0.48">
<mask id="mask13_254_5181" style="mask-type:luminance" maskUnits="userSpaceOnUse" x="283" y="261" width="14" height="8">
<path d="M296.7 261.06H283.22V268.84H296.7V261.06Z" fill="white"/>
</mask>
<g mask="url(#mask13_254_5181)">
<path d="M293.91 268.78C293.72 268.89 293.3 268.82 292.96 268.62L283.59 263.21C283.25 263.01 283.12 262.76 283.31 262.66L286.01 261.1C286.2 260.99 286.63 261.07 286.97 261.26L296.34 266.67C296.68 266.87 296.8 267.11 296.62 267.22L293.92 268.78H293.91Z" fill="#BBFCE6"/>
</g>
</g>
<g opacity="0.48">
<mask id="mask14_254_5181" style="mask-type:luminance" maskUnits="userSpaceOnUse" x="295" y="268" width="15" height="9">
<path d="M309.23 268.48H295.75V276.26H309.23V268.48Z" fill="white"/>
</mask>
<g mask="url(#mask14_254_5181)">
<path d="M306.44 276.2C306.25 276.31 305.83 276.24 305.49 276.04L296.12 270.63C295.78 270.43 295.65 270.18 295.84 270.08L298.54 268.52C298.73 268.41 299.16 268.49 299.5 268.68L308.87 274.09C309.21 274.29 309.33 274.53 309.15 274.64L306.45 276.2H306.44Z" fill="#BBFCE6"/>
</g>
</g>
<g opacity="0.48">
<mask id="mask15_254_5181" style="mask-type:luminance" maskUnits="userSpaceOnUse" x="309" y="276" width="14" height="8">
<path d="M322.4 276.03H309.03V283.75H322.4V276.03Z" fill="white"/>
</mask>
<g mask="url(#mask15_254_5181)">
<path d="M319.72 283.7C319.54 283.8 319.12 283.73 318.78 283.53L309.4 278.12C309.06 277.93 308.93 277.68 309.11 277.58L311.71 276.08C311.89 275.98 312.32 276.05 312.65 276.25L322.03 281.66C322.37 281.85 322.5 282.1 322.32 282.2L319.72 283.7Z" fill="#BBFCE6"/>
</g>
</g>
<g opacity="0.48">
<mask id="mask16_254_5181" style="mask-type:luminance" maskUnits="userSpaceOnUse" x="300" y="265" width="15" height="9">
<path d="M314.24 265.68H300.87V273.39H314.24V265.68Z" fill="white"/>
</mask>
<g mask="url(#mask16_254_5181)">
<path d="M311.55 273.34C311.37 273.44 310.95 273.37 310.61 273.17L301.23 267.76C300.89 267.57 300.76 267.32 300.94 267.22L303.54 265.72C303.72 265.62 304.15 265.69 304.48 265.89L313.86 271.3C314.2 271.49 314.33 271.74 314.15 271.84L311.55 273.34Z" fill="#BBFCE6"/>
</g>
</g>
<g opacity="0.48">
<mask id="mask17_254_5181" style="mask-type:luminance" maskUnits="userSpaceOnUse" x="215" y="219" width="71" height="41">
<path d="M285.11 219.14H215.31V259.42H285.11V219.14Z" fill="white"/>
</mask>
<g mask="url(#mask17_254_5181)">
<path d="M277.7 259.36C277.48 259.49 277.01 259.43 276.68 259.24L215.65 224.02C215.32 223.83 215.22 223.56 215.44 223.43L222.74 219.21C222.96 219.08 223.43 219.14 223.76 219.33L284.79 254.55C285.13 254.75 285.22 255.01 285 255.14L277.7 259.35V259.36Z" fill="#BBFCE6"/>
</g>
</g>
<g opacity="0.48">
<mask id="mask18_254_5181" style="mask-type:luminance" maskUnits="userSpaceOnUse" x="221" y="225" width="51" height="30">
<path d="M271.89 225.16H221.89V254.02H271.89V225.16Z" fill="white"/>
</mask>
<g mask="url(#mask18_254_5181)">
<path d="M271.45 254.02C271.45 254.02 271.2 253.91 270.93 253.75L222.36 225.72C222.09 225.57 221.88 225.43 221.9 225.42L222.35 225.16C222.35 225.16 222.6 225.27 222.86 225.43L271.43 253.46C271.7 253.62 271.91 253.75 271.9 253.76L271.45 254.02Z" fill="#BBFCE6"/>
</g>
</g>
<g opacity="0.48">
<mask id="mask19_254_5181" style="mask-type:luminance" maskUnits="userSpaceOnUse" x="224" y="214" width="19" height="11">
<path d="M242.02 214.2H224.96V224.05H242.02V214.2Z" fill="white"/>
</mask>
<g mask="url(#mask19_254_5181)">
<path d="M235.68 223.98C235.46 224.11 235 224.06 234.66 223.86L225.28 218.45C224.95 218.26 224.85 217.99 225.07 217.86L231.28 214.27C231.5 214.14 231.97 214.2 232.3 214.39L241.68 219.8C242.02 220 242.11 220.26 241.89 220.39L235.68 223.98Z" fill="#BBFCE6"/>
</g>
</g>
<g opacity="0.48">
<mask id="mask20_254_5181" style="mask-type:luminance" maskUnits="userSpaceOnUse" x="237" y="221" width="18" height="11">
<path d="M254.93 221.65H237.87V231.5H254.93V221.65Z" fill="white"/>
</mask>
<g mask="url(#mask20_254_5181)">
<path d="M248.59 231.43C248.37 231.56 247.91 231.5 247.57 231.31L238.19 225.9C237.85 225.71 237.76 225.44 237.98 225.31L244.19 221.72C244.41 221.59 244.88 221.65 245.21 221.84L254.59 227.25C254.92 227.44 255.02 227.71 254.79 227.84L248.58 231.43H248.59Z" fill="#BBFCE6"/>
</g>
</g>
<g opacity="0.48">
<mask id="mask21_254_5181" style="mask-type:luminance" maskUnits="userSpaceOnUse" x="250" y="229" width="18" height="10">
<path d="M267.84 229.11H250.78V238.96H267.84V229.11Z" fill="white"/>
</mask>
<g mask="url(#mask21_254_5181)">
<path d="M261.5 238.88C261.28 239.01 260.82 238.96 260.48 238.76L251.1 233.35C250.76 233.16 250.67 232.89 250.9 232.76L257.11 229.17C257.33 229.04 257.79 229.09 258.13 229.29L267.51 234.7C267.84 234.89 267.94 235.16 267.71 235.29L261.5 238.88Z" fill="#BBFCE6"/>
</g>
</g>
<g opacity="0.48">
<mask id="mask22_254_5181" style="mask-type:luminance" maskUnits="userSpaceOnUse" x="263" y="236" width="18" height="11">
<path d="M280.75 236.56H263.69V246.41H280.75V236.56Z" fill="white"/>
</mask>
<g mask="url(#mask22_254_5181)">
<path d="M274.42 246.34C274.2 246.47 273.74 246.42 273.4 246.22L264.02 240.81C263.68 240.61 263.59 240.35 263.81 240.22L270.02 236.63C270.24 236.5 270.7 236.55 271.04 236.75L280.42 242.16C280.76 242.35 280.85 242.62 280.62 242.75L274.41 246.34H274.42Z" fill="#BBFCE6"/>
</g>
</g>
<g opacity="0.48">
<mask id="mask23_254_5181" style="mask-type:luminance" maskUnits="userSpaceOnUse" x="276" y="244" width="18" height="10">
<path d="M293.68 244.01H276.61V253.86H293.68V244.01Z" fill="white"/>
</mask>
<g mask="url(#mask23_254_5181)">
<path d="M287.33 253.79C287.11 253.92 286.65 253.86 286.31 253.67L276.93 248.26C276.6 248.07 276.5 247.8 276.73 247.67L282.94 244.08C283.16 243.95 283.62 244 283.96 244.2L293.34 249.61C293.68 249.81 293.77 250.07 293.55 250.2L287.34 253.79H287.33Z" fill="#BBFCE6"/>
</g>
</g>
<g opacity="0.48">
<mask id="mask24_254_5181" style="mask-type:luminance" maskUnits="userSpaceOnUse" x="289" y="251" width="18" height="11">
<path d="M306.58 251.46H289.52V261.31H306.58V251.46Z" fill="white"/>
</mask>
<g mask="url(#mask24_254_5181)">
<path d="M300.25 261.24C300.03 261.37 299.57 261.32 299.23 261.12L289.85 255.71C289.51 255.51 289.42 255.25 289.64 255.12L295.85 251.53C296.07 251.4 296.53 251.45 296.87 251.65L306.25 257.06C306.59 257.25 306.68 257.52 306.46 257.65L300.25 261.24Z" fill="#BBFCE6"/>
</g>
</g>
<g opacity="0.48">
<mask id="mask25_254_5181" style="mask-type:luminance" maskUnits="userSpaceOnUse" x="302" y="258" width="34" height="21">
<path d="M335.67 258.91H302.43V278.09H335.67V258.91Z" fill="white"/>
</mask>
<g mask="url(#mask25_254_5181)">
<path d="M329.34 278.02C329.12 278.15 328.66 278.1 328.32 277.9L302.77 263.15C302.43 262.95 302.34 262.69 302.56 262.56L308.77 258.97C308.99 258.84 309.45 258.89 309.79 259.09L335.34 273.84C335.68 274.04 335.77 274.3 335.55 274.43L329.34 278.02Z" fill="#BBFCE6"/>
</g>
</g>
<g opacity="0.48">
<mask id="mask26_254_5181" style="mask-type:luminance" maskUnits="userSpaceOnUse" x="239" y="212" width="18" height="11">
<path d="M256.9 212.9H239.84V222.75H256.9V212.9Z" fill="white"/>
</mask>
<g mask="url(#mask26_254_5181)">
<path d="M250.55 222.68C250.32 222.81 249.88 222.76 249.54 222.56L240.16 217.15C239.82 216.96 239.73 216.69 239.95 216.56L246.17 212.97C246.39 212.84 246.85 212.89 247.18 213.09L256.56 218.5C256.9 218.7 256.98 218.96 256.76 219.08L250.54 222.67L250.55 222.68Z" fill="#BBFCE6"/>
</g>
</g>
<g opacity="0.48">
<mask id="mask27_254_5181" style="mask-type:luminance" maskUnits="userSpaceOnUse" x="252" y="220" width="18" height="11">
<path d="M269.81 220.36H252.75V230.21H269.81V220.36Z" fill="white"/>
</mask>
<g mask="url(#mask27_254_5181)">
<path d="M263.47 230.13C263.24 230.26 262.79 230.2 262.45 230.01L253.07 224.6C252.74 224.41 252.64 224.14 252.87 224.01L259.09 220.42C259.31 220.29 259.77 220.34 260.1 220.54L269.48 225.95C269.81 226.14 269.91 226.41 269.69 226.54L263.47 230.13Z" fill="#BBFCE6"/>
</g>
</g>
<g opacity="0.48">
<mask id="mask28_254_5181" style="mask-type:luminance" maskUnits="userSpaceOnUse" x="265" y="227" width="18" height="11">
<path d="M282.71 227.81H265.65V237.66H282.71V227.81Z" fill="white"/>
</mask>
<g mask="url(#mask28_254_5181)">
<path d="M276.38 237.59C276.15 237.72 275.7 237.66 275.36 237.47L265.98 232.06C265.65 231.87 265.55 231.6 265.77 231.47L271.99 227.88C272.21 227.75 272.68 227.81 273.01 228L282.39 233.41C282.72 233.6 282.82 233.87 282.6 234L276.38 237.59Z" fill="#BBFCE6"/>
</g>
</g>
<g opacity="0.48">
<mask id="mask29_254_5181" style="mask-type:luminance" maskUnits="userSpaceOnUse" x="278" y="235" width="18" height="11">
<path d="M295.63 235.26H278.57V245.11H295.63V235.26Z" fill="white"/>
</mask>
<g mask="url(#mask29_254_5181)">
<path d="M289.3 245.04C289.07 245.17 288.62 245.12 288.28 244.92L278.9 239.51C278.56 239.31 278.47 239.05 278.69 238.92L284.91 235.33C285.13 235.2 285.59 235.26 285.93 235.45L295.31 240.86C295.65 241.05 295.74 241.32 295.52 241.45L289.3 245.04Z" fill="#BBFCE6"/>
</g>
</g>
<g opacity="0.48">
<mask id="mask30_254_5181" style="mask-type:luminance" maskUnits="userSpaceOnUse" x="291" y="242" width="18" height="11">
<path d="M308.56 242.71H291.49V252.56H308.56V242.71Z" fill="white"/>
</mask>
<g mask="url(#mask30_254_5181)">
<path d="M302.22 252.49C301.99 252.62 301.54 252.56 301.2 252.37L291.82 246.96C291.48 246.76 291.39 246.5 291.61 246.37L297.83 242.78C298.05 242.65 298.51 242.7 298.84 242.9L308.22 248.31C308.55 248.5 308.65 248.77 308.43 248.9L302.21 252.49H302.22Z" fill="#BBFCE6"/>
</g>
</g>
<g opacity="0.48">
<mask id="mask31_254_5181" style="mask-type:luminance" maskUnits="userSpaceOnUse" x="304" y="250" width="18" height="11">
<path d="M321.46 250.16H304.4V260.01H321.46V250.16Z" fill="white"/>
</mask>
<g mask="url(#mask31_254_5181)">
<path d="M315.13 259.94C314.9 260.07 314.45 260.02 314.11 259.82L304.73 254.41C304.39 254.21 304.29 253.95 304.52 253.82L310.74 250.23C310.96 250.1 311.42 250.16 311.76 250.35L321.14 255.76C321.48 255.95 321.57 256.22 321.35 256.35L315.13 259.94Z" fill="#BBFCE6"/>
</g>
</g>
<g opacity="0.48">
<mask id="mask32_254_5181" style="mask-type:luminance" maskUnits="userSpaceOnUse" x="317" y="257" width="18" height="11">
<path d="M334.37 257.61H317.31V267.46H334.37V257.61Z" fill="white"/>
</mask>
<g mask="url(#mask32_254_5181)">
<path d="M328.04 267.39C327.81 267.52 327.36 267.47 327.02 267.27L317.64 261.86C317.31 261.67 317.21 261.41 317.44 261.28L323.66 257.69C323.88 257.56 324.34 257.61 324.67 257.81L334.05 263.22C334.39 263.41 334.48 263.68 334.26 263.81L328.04 267.4V267.39Z" fill="#BBFCE6"/>
</g>
</g>
<g opacity="0.48">
<mask id="mask33_254_5181" style="mask-type:luminance" maskUnits="userSpaceOnUse" x="245" y="206" width="18" height="11">
<path d="M262.4 206.2H245.34V216.05H262.4V206.2Z" fill="white"/>
</mask>
<g mask="url(#mask33_254_5181)">
<path d="M256.06 215.97C255.83 216.1 255.38 216.05 255.04 215.85L245.66 210.44C245.33 210.25 245.23 209.98 245.46 209.85L251.68 206.26C251.9 206.13 252.36 206.18 252.69 206.38L262.07 211.79C262.41 211.98 262.5 212.25 262.28 212.38L256.07 215.97H256.06Z" fill="#BBFCE6"/>
</g>
</g>
<g opacity="0.48">
<mask id="mask34_254_5181" style="mask-type:luminance" maskUnits="userSpaceOnUse" x="258" y="213" width="18" height="11">
<path d="M275.31 213.65H258.25V223.5H275.31V213.65Z" fill="white"/>
</mask>
<g mask="url(#mask34_254_5181)">
<path d="M268.97 223.42C268.74 223.55 268.28 223.5 267.95 223.31L258.57 217.9C258.23 217.71 258.14 217.44 258.37 217.31L264.58 213.72C264.8 213.59 265.26 213.65 265.6 213.84L274.98 219.25C275.31 219.44 275.41 219.71 275.19 219.84L268.98 223.43L268.97 223.42Z" fill="#BBFCE6"/>
</g>
</g>
<g opacity="0.48">
<mask id="mask35_254_5181" style="mask-type:luminance" maskUnits="userSpaceOnUse" x="271" y="221" width="18" height="10">
<path d="M288.21 221.1H271.15V230.95H288.21V221.1Z" fill="white"/>
</mask>
<g mask="url(#mask35_254_5181)">
<path d="M281.88 230.88C281.65 231.01 281.2 230.96 280.86 230.76L271.48 225.35C271.15 225.16 271.05 224.89 271.28 224.76L277.49 221.17C277.71 221.04 278.17 221.09 278.5 221.29L287.88 226.7C288.22 226.9 288.31 227.16 288.09 227.29L281.88 230.88Z" fill="#BBFCE6"/>
</g>
</g>
<g opacity="0.48">
<mask id="mask36_254_5181" style="mask-type:luminance" maskUnits="userSpaceOnUse" x="284" y="228" width="18" height="11">
<path d="M301.13 228.55H284.06V238.4H301.13V228.55Z" fill="white"/>
</mask>
<g mask="url(#mask36_254_5181)">
<path d="M294.8 238.33C294.57 238.46 294.12 238.41 293.78 238.22L284.4 232.81C284.06 232.61 283.97 232.35 284.2 232.22L290.42 228.63C290.64 228.5 291.1 228.55 291.44 228.75L300.82 234.16C301.16 234.36 301.25 234.62 301.03 234.75L294.82 238.34L294.8 238.33Z" fill="#BBFCE6"/>
</g>
</g>
<g opacity="0.48">
<mask id="mask37_254_5181" style="mask-type:luminance" maskUnits="userSpaceOnUse" x="296" y="236" width="19" height="10">
<path d="M314.05 236H296.99V245.85H314.05V236Z" fill="white"/>
</mask>
<g mask="url(#mask37_254_5181)">
<path d="M307.71 245.78C307.48 245.91 307.03 245.86 306.69 245.67L297.31 240.26C296.97 240.06 296.88 239.8 297.11 239.67L303.32 236.08C303.54 235.95 304 236 304.34 236.2L313.72 241.61C314.05 241.8 314.14 242.07 313.92 242.19L307.71 245.78Z" fill="#BBFCE6"/>
</g>
</g>
<g opacity="0.48">
<mask id="mask38_254_5181" style="mask-type:luminance" maskUnits="userSpaceOnUse" x="309" y="243" width="18" height="11">
<path d="M326.96 243.45H309.9V253.3H326.96V243.45Z" fill="white"/>
</mask>
<g mask="url(#mask38_254_5181)">
<path d="M320.63 253.23C320.4 253.36 319.95 253.31 319.6 253.11L310.22 247.7C309.89 247.51 309.79 247.24 310.02 247.11L316.23 243.52C316.45 243.39 316.91 243.45 317.24 243.64L326.62 249.05C326.96 249.25 327.05 249.51 326.83 249.64L320.62 253.23H320.63Z" fill="#BBFCE6"/>
</g>
</g>
<g opacity="0.48">
<mask id="mask39_254_5181" style="mask-type:luminance" maskUnits="userSpaceOnUse" x="322" y="250" width="18" height="11">
<path d="M339.87 250.9H322.81V260.75H339.87V250.9Z" fill="white"/>
</mask>
<g mask="url(#mask39_254_5181)">
<path d="M333.54 260.68C333.31 260.81 332.86 260.76 332.52 260.56L323.14 255.15C322.8 254.95 322.71 254.69 322.94 254.56L329.15 250.97C329.37 250.84 329.83 250.89 330.17 251.09L339.55 256.5C339.89 256.69 339.98 256.96 339.76 257.09L333.55 260.68H333.54Z" fill="#BBFCE6"/>
</g>
</g>
<g opacity="0.48">
<mask id="mask40_254_5181" style="mask-type:luminance" maskUnits="userSpaceOnUse" x="213" y="187" width="24" height="15">
<path d="M236.62 187.56H213.03V201.18H236.62V187.56Z" fill="white"/>
</mask>
<g mask="url(#mask40_254_5181)">
<path d="M230.29 201.11C230.06 201.24 229.61 201.19 229.27 200.99L213.37 191.81C213.03 191.61 212.94 191.35 213.17 191.22L219.38 187.63C219.6 187.5 220.06 187.55 220.4 187.75L236.3 196.93C236.64 197.13 236.73 197.39 236.51 197.52L230.3 201.11H230.29Z" fill="#BBFCE6"/>
</g>
</g>
<g opacity="0.48">
<mask id="mask41_254_5181" style="mask-type:luminance" maskUnits="userSpaceOnUse" x="337" y="249" width="25" height="15">
<path d="M361.34 249.65H337.76V263.26H361.34V249.65Z" fill="white"/>
</mask>
<g mask="url(#mask41_254_5181)">
<path d="M355.01 263.19C354.79 263.32 354.33 263.27 353.99 263.07L338.09 253.89C337.76 253.7 337.66 253.43 337.89 253.3L344.1 249.71C344.32 249.58 344.79 249.64 345.12 249.83L361.02 259.01C361.36 259.21 361.45 259.47 361.23 259.6L355.02 263.19H355.01Z" fill="#BBFCE6"/>
</g>
</g>
<g opacity="0.48">
<mask id="mask42_254_5181" style="mask-type:luminance" maskUnits="userSpaceOnUse" x="204" y="192" width="28" height="16">
<path d="M231.13 192.51H204.48V207.89H231.13V192.51Z" fill="white"/>
</mask>
<g mask="url(#mask42_254_5181)">
<path d="M224.79 207.82C224.56 207.95 224.11 207.9 223.77 207.7L204.81 196.76C204.47 196.57 204.38 196.3 204.6 196.17L210.82 192.58C211.04 192.45 211.5 192.51 211.84 192.7L230.8 203.64C231.14 203.84 231.23 204.1 231.01 204.23L224.79 207.82Z" fill="#BBFCE6"/>
</g>
</g>
<g opacity="0.48">
<mask id="mask43_254_5181" style="mask-type:luminance" maskUnits="userSpaceOnUse" x="195" y="197" width="22" height="13">
<path d="M216.24 197.45H195.92V209.18H216.24V197.45Z" fill="white"/>
</mask>
<g mask="url(#mask43_254_5181)">
<path d="M209.91 209.12C209.69 209.25 209.23 209.2 208.89 209L196.25 201.71C195.91 201.51 195.82 201.25 196.04 201.12L202.25 197.53C202.47 197.4 202.93 197.45 203.27 197.65L215.91 204.94C216.25 205.14 216.34 205.4 216.12 205.53L209.91 209.12Z" fill="#BBFCE6"/>
</g>
</g>
<g opacity="0.48">
<mask id="mask44_254_5181" style="mask-type:luminance" maskUnits="userSpaceOnUse" x="234" y="190" width="18" height="10">
<path d="M251.57 190.07H234.51V199.92H251.57V190.07Z" fill="white"/>
</mask>
<g mask="url(#mask44_254_5181)">
<path d="M245.23 199.85C245.01 199.98 244.55 199.93 244.21 199.73L234.84 194.32C234.5 194.12 234.41 193.86 234.63 193.73L240.84 190.14C241.06 190.01 241.52 190.06 241.86 190.26L251.23 195.67C251.57 195.87 251.66 196.13 251.44 196.26L245.23 199.85Z" fill="#BBFCE6"/>
</g>
</g>
<g opacity="0.48">
<mask id="mask45_254_5181" style="mask-type:luminance" maskUnits="userSpaceOnUse" x="247" y="197" width="18" height="11">
<path d="M264.43 197.48H247.37V207.33H264.43V197.48Z" fill="white"/>
</mask>
<g mask="url(#mask45_254_5181)">
<path d="M258.09 207.27C257.87 207.4 257.41 207.35 257.07 207.15L247.69 201.74C247.35 201.55 247.26 201.28 247.48 201.15L253.69 197.56C253.91 197.43 254.37 197.48 254.71 197.68L264.09 203.09C264.43 203.29 264.52 203.55 264.3 203.68L258.09 207.27Z" fill="#BBFCE6"/>
</g>
</g>
<g opacity="0.48">
<mask id="mask46_254_5181" style="mask-type:luminance" maskUnits="userSpaceOnUse" x="260" y="204" width="18" height="11">
<path d="M277.33 204.94H260.27V214.79H277.33V204.94Z" fill="white"/>
</mask>
<g mask="url(#mask46_254_5181)">
<path d="M271 214.71C270.78 214.84 270.32 214.79 269.98 214.59L260.6 209.18C260.26 208.99 260.17 208.72 260.4 208.59L266.61 205C266.84 204.87 267.29 204.92 267.63 205.12L277.01 210.53C277.35 210.73 277.44 210.99 277.21 211.12L271 214.71Z" fill="#BBFCE6"/>
</g>
</g>
<g opacity="0.48">
<mask id="mask47_254_5181" style="mask-type:luminance" maskUnits="userSpaceOnUse" x="273" y="212" width="18" height="11">
<path d="M290.25 212.39H273.19V222.24H290.25V212.39Z" fill="white"/>
</mask>
<g mask="url(#mask47_254_5181)">
<path d="M283.92 222.17C283.7 222.3 283.24 222.25 282.9 222.05L273.53 216.64C273.19 216.44 273.1 216.18 273.32 216.05L279.53 212.46C279.75 212.33 280.21 212.38 280.55 212.58L289.92 217.99C290.26 218.18 290.35 218.45 290.13 218.58L283.92 222.17Z" fill="#BBFCE6"/>
</g>
</g>
<g opacity="0.48">
<mask id="mask48_254_5181" style="mask-type:luminance" maskUnits="userSpaceOnUse" x="286" y="219" width="18" height="11">
<path d="M303.17 219.84H286.11V229.69H303.17V219.84Z" fill="white"/>
</mask>
<g mask="url(#mask48_254_5181)">
<path d="M296.83 229.62C296.61 229.75 296.15 229.7 295.81 229.5L286.43 224.09C286.09 223.89 286 223.63 286.22 223.5L292.43 219.91C292.66 219.78 293.11 219.83 293.45 220.03L302.83 225.44C303.17 225.64 303.26 225.9 303.03 226.03L296.82 229.62H296.83Z" fill="#BBFCE6"/>
</g>
</g>
<g opacity="0.48">
<mask id="mask49_254_5181" style="mask-type:luminance" maskUnits="userSpaceOnUse" x="299" y="227" width="18" height="11">
<path d="M316.08 227.29H299.02V237.14H316.08V227.29Z" fill="white"/>
</mask>
<g mask="url(#mask49_254_5181)">
<path d="M309.75 237.07C309.53 237.2 309.07 237.15 308.73 236.95L299.35 231.54C299.02 231.35 298.92 231.08 299.15 230.95L305.36 227.36C305.58 227.23 306.04 227.28 306.38 227.48L315.76 232.89C316.09 233.08 316.19 233.35 315.96 233.48L309.75 237.07Z" fill="#BBFCE6"/>
</g>
</g>
<g opacity="0.48">
<mask id="mask50_254_5181" style="mask-type:luminance" maskUnits="userSpaceOnUse" x="311" y="234" width="18" height="11">
<path d="M328.99 234.74H311.93V244.59H328.99V234.74Z" fill="white"/>
</mask>
<g mask="url(#mask50_254_5181)">
<path d="M322.66 244.52C322.44 244.65 321.98 244.6 321.64 244.4L312.26 238.99C311.92 238.79 311.83 238.53 312.05 238.4L318.26 234.81C318.48 234.68 318.94 234.73 319.28 234.93L328.66 240.34C329 240.54 329.09 240.8 328.87 240.93L322.66 244.52Z" fill="#BBFCE6"/>
</g>
</g>
<g opacity="0.48">
<mask id="mask51_254_5181" style="mask-type:luminance" maskUnits="userSpaceOnUse" x="324" y="242" width="18" height="11">
<path d="M341.91 242.19H324.85V252.04H341.91V242.19Z" fill="white"/>
</mask>
<g mask="url(#mask51_254_5181)">
<path d="M335.57 251.97C335.35 252.1 334.89 252.05 334.56 251.86L325.17 246.44C324.84 246.25 324.74 245.98 324.97 245.85L331.18 242.26C331.41 242.13 331.86 242.18 332.2 242.38L341.59 247.8C341.92 247.99 342.02 248.26 341.79 248.39L335.58 251.98L335.57 251.97Z" fill="#BBFCE6"/>
</g>
</g>
<g opacity="0.48">
<mask id="mask52_254_5181" style="mask-type:luminance" maskUnits="userSpaceOnUse" x="330" y="258" width="23" height="16">
<path d="M352.8 258.36H330.24V273.15H352.8V258.36Z" fill="white"/>
</mask>
<g mask="url(#mask52_254_5181)">
<path d="M343.08 258.54C342.92 258.45 342.73 258.38 342.53 258.36C342.33 258.34 342.17 258.36 342.07 258.42L335.86 262.01C335.76 262.07 335.71 262.16 335.75 262.28C335.79 262.39 335.91 262.51 336.06 262.6L338.51 264.01L330.36 268.72C330.25 268.78 330.21 268.88 330.25 268.99C330.29 269.1 330.41 269.21 330.56 269.31L336.88 272.96C337.04 273.05 337.23 273.12 337.43 273.14C337.63 273.17 337.79 273.14 337.9 273.08L352.67 264.55C352.77 264.49 352.82 264.4 352.77 264.28C352.73 264.16 352.61 264.05 352.45 263.96L343.07 258.55L343.08 258.54Z" fill="#BBFCE6"/>
</g>
</g>
<path d="M404.35 308.29L387.07 320.13C380.7 324.5 371.06 323.93 365.64 318.87C360.22 313.81 361.01 306.1 367.38 301.73L384.66 289.89C391.03 285.52 400.67 286.09 406.09 291.15C411.51 296.21 410.72 303.92 404.35 308.28" fill="#D3E5DF"/>
<path d="M400.02 304.3L382.74 316.14C376.37 320.51 366.73 319.94 361.31 314.88C355.89 309.82 356.68 302.11 363.05 297.74L380.33 285.9C386.7 281.53 396.34 282.1 401.76 287.16C407.18 292.22 406.39 299.93 400.02 304.29" fill="#50D6B6"/>
<path d="M395.96 285.87C393.88 286.37 391.97 287.41 390.37 288.82C390.04 289.11 389.85 289.66 389.85 290.08C389.85 290.5 390.04 291.04 390.37 291.34C391.12 292.03 392.15 292 392.9 291.34C393.08 291.18 393.27 291.03 393.46 290.88C393.34 290.97 393.22 291.07 393.1 291.16C393.87 290.57 394.7 290.08 395.59 289.7C395.45 289.76 395.3 289.82 395.16 289.88C395.73 289.64 396.31 289.45 396.91 289.31C397.82 289.09 398.45 288.01 398.16 287.11C397.85 286.16 396.94 285.63 395.96 285.86" fill="#4DB290"/>
<path d="M230.86 199.12C230.86 199.12 216.66 197.46 213.98 200.4C211.3 203.35 231.53 206.7 230.86 199.12Z" fill="#FFC2B0"/>
<path d="M222.05 197.22C222.05 197.22 209.06 198.36 199.5 213.31C199.5 213.31 224.58 201.3 222.05 197.22Z" fill="#FFC2B0"/>
<path d="M218.88 194.36C218.88 194.36 202.91 196.16 194.47 212.47C194.47 212.47 199.92 217.3 202.59 215.92C209.69 212.23 220.72 197.33 218.88 194.37" fill="#FFC2B0"/>
<path d="M236.56 196.01C236.56 196.01 222.27 195.43 219.82 198.57C217.37 201.71 237.8 203.51 236.56 196.01Z" fill="#FFC2B0"/>
<path d="M231.27 193.62C231.27 193.62 216.98 193.04 214.53 196.18C212.08 199.32 232.51 201.12 231.27 193.62Z" fill="#FFC2B0"/>
<path d="M195.15 213.67L214.01 202.6C214.01 202.6 241.08 196.78 243.16 201.17C245.88 206.9 227.98 206.29 227.98 206.29C227.98 206.29 213.59 213.22 213.63 213.71C213.65 213.91 212.55 215 213.02 215.98C213.82 217.63 214.63 217.37 216.44 216.85L222.49 214.19C222.49 214.19 230.65 210.3 231.15 213.85C231.59 217.04 224.12 218.64 224.12 218.64L212.03 225.65L202.75 227.13C198.44 227.82 194.23 225.39 192.67 221.31L192.57 221.04C191.51 218.28 192.61 215.15 195.16 213.65" fill="#FFC2B0"/>
<path d="M312.25 238.21C312.25 238.21 313.37 239.05 313.23 240.65C313.23 240.66 313.23 240.67 313.23 240.68C312.96 243.53 309.07 246.85 301.67 250.55C301.44 250.74 300.69 251.57 299.66 252.74C302.23 251.69 305.47 251.31 307.91 251.91C317.58 254.29 321.47 257.28 321.63 257.4L321.85 257.57L321.87 257.85C321.87 257.95 321.91 258.89 320.93 259.63C319.02 261.07 314.71 260.61 308.12 258.25C306.35 257.62 304.32 257.94 302.06 259.2C303.61 258.65 305.23 258.55 306.64 258.93C311.05 260.12 319.67 264.54 320.04 264.73L320.38 264.91V265.3C320.38 265.4 320.33 266.26 319.37 266.9C319.04 267.12 318.64 267.29 318.17 267.39C318.31 267.43 318.38 267.46 318.38 267.46L318.98 267.65L318.78 268.25C317.31 272.65 312.48 271.25 308.95 270.23C308.5 270.1 308.05 269.97 307.62 269.85C305.97 269.4 303.6 269.35 302.36 270.66C298.92 274.27 296.65 277.17 295.96 278.83C295.79 279.24 293.68 282.28 293.42 282.75C288.4 291.55 277.54 285.32 277.46 275.05C283.6 265.6 290.33 250.53 296.16 247.32L296.23 247.24L311.91 237.98L312.24 238.22L312.25 238.21Z" fill="#FFC2B0"/>
<path d="M112.87 349.68L42.4199 404.1C30.9099 411.14 22.28 404.15 22.29 392.05L20.95 372.34C20.96 360.23 30.3799 344.57 41.8899 337.52L112.93 294.03C124.44 286.99 133.84 291.13 133.83 303.23V314.86C133.81 326.96 124.38 342.63 112.88 349.68" fill="#283D75"/>
<path d="M223.56 320.38C236.41 315.63 249.14 310.52 260.9 303.42C270.25 297.78 279.33 291.9 289.09 286.94C298.45 282.18 291.5 267.43 282.14 272.19C272.38 277.15 263.3 283.03 253.95 288.67C242.19 295.76 229.46 300.87 216.61 305.63C206.75 309.28 213.79 324 223.56 320.38Z" fill="#FFC2B0"/>
<path d="M275.48 300.01C275.48 300.01 260.87 290.3 265.88 276.71L275.34 271.22C281.9 271.94 288.48 289.68 286.21 293.44L275.49 300.01H275.48Z" fill="#50D6B6"/>
<path d="M201.73 306.22L268.44 273.55C271.42 276.39 276.76 289.03 278.68 301.06L237.87 319.09C220.75 327.2 212.11 322.32 200.49 308.81C200.42 308.73 200.49 308.81 201.74 306.22" fill="#F0F8FF"/>
<path d="M131.76 262.19C144.58 257.37 157.28 252.18 169 245.02C178.32 239.33 187.37 233.4 197.1 228.39C206.43 223.58 199.4 208.86 190.06 213.68C180.33 218.7 171.28 224.62 161.96 230.32C150.24 237.48 137.54 242.66 124.72 247.49C114.88 251.19 122 265.88 131.76 262.2" fill="#FFC2B0"/>
<path d="M183.56 241.54C183.56 241.54 168.9 231.91 173.82 218.29L183.25 212.75C189.81 213.43 196.49 231.14 194.24 234.91L183.55 241.54H183.56Z" fill="#50D6B6"/>
<path d="M109.85 248.15L176.38 215.1C179.37 217.93 184.79 230.53 186.77 242.56L124.49 272.69C114.45 267.46 110.16 258.94 109.84 248.15" fill="#EAEAEA"/>
<path d="M152.96 419.96L219.08 389.04C219.08 389.04 211.67 335.65 172.81 341.67C108.77 351.58 97.4999 337.81 97.4999 337.81L94.7199 388.65C90.1199 443.36 131.68 432.55 152.96 419.97" fill="#F0F8FF"/>
<path d="M152.96 419.96L219.08 389.04L215.31 374.21C119.43 425.91 94.7199 388.64 94.7199 388.64C90.1199 443.35 131.68 432.54 152.96 419.96Z" fill="#E8F7F2"/>
<path d="M484.98 348.76L425.93 314.67C423.81 313.44 424.1 311.26 426.58 309.79L507.95 261.57C510.43 260.1 514.17 259.9 516.29 261.12L575.34 295.21C577.46 296.43 577.17 298.62 574.69 300.09L493.32 348.31C490.84 349.78 487.1 349.98 484.98 348.76Z" fill="#D3E5DF"/>
<path d="M572.49 294.17C572.28 293.95 572.02 293.74 571.7 293.56L512.65 259.47C510.53 258.25 506.79 258.45 504.31 259.92L422.94 308.14C422.66 308.3 422.41 308.48 422.19 308.66L420.87 309.28L420.9 311.24C421 311.91 421.46 312.54 422.29 313.02L481.34 347.11C483.46 348.33 487.19 348.13 489.68 346.66L571.05 298.44C572.34 297.68 573.03 296.72 573.11 295.81V294.25L572.49 294.18V294.17Z" fill="#999999"/>
<path d="M481.34 345.54L422.29 311.45C420.17 310.22 420.46 308.04 422.94 306.57L504.31 258.35C506.79 256.88 510.53 256.68 512.65 257.9L571.7 291.99C573.82 293.21 573.53 295.4 571.05 296.87L489.68 345.09C487.2 346.56 483.46 346.76 481.34 345.54Z" fill="#50D6B6"/>
<path d="M484.99 340.33L428.22 307.56L509.79 260.46L566.56 293.24L484.99 340.33Z" fill="white"/>
<g style="mix-blend-mode:multiply">
<mask id="mask53_254_5181" style="mask-type:luminance" maskUnits="userSpaceOnUse" x="520" y="267" width="35" height="20">
<path d="M554.31 267.22H520.07V286.99H554.31V267.22Z" fill="white"/>
</mask>
<g mask="url(#mask53_254_5181)">
<path d="M552.53 280.98L550.59 279.86C552.88 278.54 552.88 276.4 550.59 275.08L540.08 269.01C537.79 267.69 534.08 267.69 531.79 269.01L530.49 268.26C528.11 266.88 524.25 266.88 521.87 268.26C519.49 269.64 519.49 271.86 521.87 273.24L543.92 285.97C546.3 287.35 550.16 287.35 552.54 285.97C554.92 284.59 554.92 282.36 552.54 280.99" fill="#A8C4E5"/>
</g>
</g>
<path d="M516.98 283.17C520.33 281.24 520.5 278.2 517.35 276.37C515.58 275.34 513.13 274.92 510.73 275.09C511.04 273.71 510.31 272.29 508.54 271.27C505.39 269.44 499.88 269.67 496.53 271.6C495.87 271.98 495.27 272.45 494.7 272.99C494.7 272.99 494.9 272.88 494.89 272.9C494.39 273.45 494.2 273.97 494.08 274.56C492.98 278.23 495.06 283.87 495.06 283.87C507.57 286.01 512.65 284.62 512.65 284.62L512.98 284.56C514.04 284.31 516.11 283.68 516.98 283.18" fill="#50D6B6"/>
<path d="M548.7 299L522.71 283.56C521.79 283.01 521.76 281.69 522.67 281.11C523.13 280.82 523.72 280.8 524.19 281.08L550.18 296.52C551.1 297.07 551.13 298.39 550.22 298.97C549.76 299.27 549.17 299.28 548.7 299Z" fill="#50D6B6"/>
<path d="M527.31 308.17L501.32 292.73C501.32 292.73 501.22 292.68 501.18 292.66L480.26 280.23C479.79 279.95 479.2 279.96 478.74 280.26C477.84 280.84 477.86 282.16 478.78 282.71L504.77 298.15C504.77 298.15 504.86 298.2 504.91 298.22L525.83 310.65C526.3 310.93 526.89 310.92 527.35 310.62C528.25 310.04 528.23 308.72 527.31 308.17Z" fill="#E1E8EF"/>
<path d="M518.81 314.2L492.82 298.76C492.82 298.76 492.72 298.71 492.68 298.69L471.76 286.26C471.29 285.98 470.7 285.99 470.24 286.29C469.34 286.87 469.36 288.19 470.28 288.74L496.27 304.18C496.27 304.18 496.36 304.23 496.41 304.25L517.33 316.68C517.8 316.96 518.39 316.95 518.85 316.65C519.75 316.07 519.73 314.75 518.81 314.2Z" fill="#E1E8EF"/>
<path d="M510.32 320.22L484.33 304.78C484.33 304.78 484.23 304.73 484.19 304.71L463.27 292.28C462.8 292 462.21 292.01 461.75 292.31C460.85 292.89 460.87 294.21 461.79 294.76L487.78 310.2C487.78 310.2 487.87 310.25 487.92 310.27L508.84 322.7C509.31 322.98 509.9 322.97 510.36 322.67C511.26 322.09 511.24 320.77 510.32 320.22Z" fill="#E1E8EF"/>
<path d="M543.67 303.49L517.68 288.05C516.76 287.5 516.73 286.18 517.64 285.6C518.1 285.31 518.69 285.29 519.16 285.57L545.15 301.01C546.07 301.56 546.1 302.88 545.19 303.46C544.73 303.76 544.14 303.77 543.67 303.49Z" fill="#50D6B6"/>
<path d="M487.54 332.06L474.68 324.42C474.05 324.05 473.25 324.2 472.8 324.78C472.27 325.46 472.46 326.46 473.2 326.9L486.1 334.56C486.7 334.91 487.48 334.8 487.95 334.23C488.54 333.53 488.31 332.52 487.52 332.05" fill="#50D6B6"/>
<path d="M494.17 327.88L474.54 316.22C473.92 315.85 473.12 316 472.67 316.57C472.13 317.25 472.32 318.26 473.07 318.7L492.74 330.39C493.34 330.74 494.12 330.63 494.59 330.06C495.18 329.36 494.95 328.35 494.16 327.88" fill="#50D6B6"/>
<g style="mix-blend-mode:multiply">
<mask id="mask54_254_5181" style="mask-type:luminance" maskUnits="userSpaceOnUse" x="462" y="297" width="60" height="14">
<path d="M521.3 297.18H462.53V310.52H521.3V297.18Z" fill="white"/>
</mask>
<g mask="url(#mask54_254_5181)">
<path d="M521.31 303.56L521.16 299.01C521.13 297.97 520.25 297.15 519.22 297.19L518.58 297.21C517.92 297.23 517.35 297.6 517.03 298.13L476.12 299.76C475.03 299.8 474.09 300.35 473.5 301.17L473.42 301.14C470.99 300.17 468.23 300.44 466.03 301.87L463.71 303.38L462.68 304.06C462.49 304.19 462.51 304.48 462.72 304.57L463.81 305.09L466.59 306.31C468.8 307.28 471.33 307.21 473.49 306.11L474.1 305.8C474.72 306.31 475.53 306.61 476.4 306.58L516.06 305C515.92 305.83 515.52 306.59 514.9 307.2C514.15 307.94 513.12 308.32 512.06 308.36L494.45 308.93C494.01 308.94 493.66 309.32 493.67 309.76C493.68 310.2 494.06 310.55 494.5 310.54L512.25 309.97C513.82 309.92 515.26 309.24 516.31 308.07C517.04 307.25 517.48 306.23 517.65 305.16C517.98 305.42 518.41 305.57 518.86 305.55L519.5 305.53C520.54 305.5 521.36 304.62 521.32 303.58" fill="#4DB290"/>
</g>
</g>
<path d="M475.62 299.55L474.46 299.09C472.02 298.12 469.27 298.39 467.07 299.82L464.75 301.33L463.72 302.01C463.53 302.14 463.55 302.43 463.76 302.53L464.86 303.05L467.64 304.27C469.85 305.24 472.38 305.17 474.54 304.07L475.86 303.4L475.63 299.56L475.62 299.55Z" fill="#50D6B6"/>
<path d="M520.76 302.8L477.44 304.53C475.55 304.61 473.95 303.12 473.89 301.23C473.83 299.36 475.29 297.79 477.16 297.71L520.19 295.99L520.75 302.79L520.76 302.8Z" fill="#50D6B6"/>
<path d="M517.95 301.55L517.81 297.22C517.77 296.12 518.64 295.19 519.74 295.16H520.16C521.26 295.11 522.18 295.98 522.22 297.08L522.36 301.41C522.4 302.51 521.53 303.44 520.43 303.47H520.01C518.91 303.52 517.98 302.65 517.95 301.55Z" fill="#50D6B6"/>
<path d="M494.71 307.7C494.7 307.26 495.04 306.88 495.49 306.87L513.1 306.3C514.15 306.27 515.19 305.88 515.94 305.14C516.76 304.34 517.2 303.25 517.16 302.11L516.98 296.43L518.59 296.38L518.77 301.88C518.82 303.38 518.35 304.88 517.35 306C516.31 307.17 514.86 307.85 513.29 307.9L495.54 308.47C495.1 308.48 494.72 308.14 494.71 307.69" fill="#50D6B6"/>
<path d="M552.53 279.1L550.59 277.98C552.88 276.66 552.88 274.52 550.59 273.2L540.08 267.13C537.79 265.81 534.08 265.81 531.79 267.13L530.49 266.38C528.11 265 524.25 265 521.87 266.38C519.49 267.76 519.49 269.98 521.87 271.36L543.92 284.09C546.3 285.47 550.16 285.47 552.54 284.09C554.92 282.71 554.92 280.48 552.54 279.11" fill="#E1E8EF"/>
<path d="M546.5 278.65L530.4 269.09C529.83 268.75 529.82 267.93 530.37 267.57C530.65 267.39 531.02 267.38 531.31 267.55L547.41 277.11C547.98 277.45 547.99 278.27 547.44 278.63C547.16 278.81 546.79 278.82 546.5 278.65Z" fill="white"/>
<path d="M86.46 261.16C86.46 261.16 96.18 331.12 97.51 337.8C97.51 337.8 103.15 370.05 160.75 350.98L180.79 272.27L86.46 261.16Z" fill="#F0F8FF"/>
<path d="M149.91 357.01L159.99 353.96C171.19 305.02 192.16 306.88 180.79 272.28C180.79 272.28 148.58 350.33 149.91 357.01Z" fill="#E8F7F2"/>
<path d="M169.41 290.6C171.64 289.36 177.34 279.89 177.34 279.89C179.4 266.97 185.83 254.6 173.97 243.22C170.92 240.29 141.64 222.22 118.6 217.03C107.43 214.51 96.03 220.31 91.04 230.61C89.26 234.28 87.43 240.16 86.26 244.21C85.24 247.73 85.48 253.91 85.93 257.91C87.53 272.14 92.82 257.78 93.81 269.6C93.77 269.28 90.06 267.96 90.03 267.64C90.03 267.64 97.71 276.24 99.15 293.55C100.04 304.35 100.67 312.16 100.71 313.25C100.71 313.3 100.71 313.37 100.71 313.39L139.63 346.86L162.46 309.49L169.41 290.59V290.6Z" fill="#F0F8FF"/>
<path d="M123.81 223.81L133.42 188.19L154.73 203.89L147.24 231.68C146.37 236.97 121.71 235.96 123.82 223.81" fill="#FFC2B0"/>
<path d="M111.21 219.16C104.56 224.02 118.81 232.92 125.09 235.93C133.08 239.77 153.96 236.23 162.45 235.73C165.49 235.55 151.52 227 148.45 227.18C135.41 227.95 126.57 228.5 122.02 217.93C119.86 212.92 103.95 191.4 117.37 219L111.22 219.16H111.21Z" fill="#50D6B6"/>
<path d="M145.29 139.16C145.29 139.16 125.05 117.42 120.02 151.12C116.52 174.56 129.18 197.17 148.91 209.4C161.19 217.01 178.26 212.05 180.64 200.47C186.2 183.88 188.52 167.96 184.37 153.35C187.25 139.39 175.94 142.85 157.76 139.27L145.28 139.15L145.29 139.16Z" fill="#FFC2B0"/>
<path d="M119.42 200.01C119.42 200.01 97.4099 192.02 105.53 157.05C112.65 126.4 138.03 126.5 157.91 127.35C166.72 127.73 181.86 135.87 185.34 144.49C189.44 154.64 185.16 154.1 174.71 157.77C170.31 159.32 170.86 172.15 169.34 176.27C166.64 183.6 157.97 185.56 155.21 192.65C152.6 199.36 147.49 206.47 140.73 206.31C128.7 206.03 119.42 200 119.42 200" fill="#915151"/>
<path d="M164.99 185.8C164.68 191.6 161.07 196.13 156.91 195.91C156.45 195.89 156.01 195.81 155.59 195.68C152.11 194.62 149.67 190.18 149.94 185.01C150.25 179.21 153.86 174.68 158.02 174.9C162.18 175.12 165.3 180 165 185.8" fill="#FFC2B0"/>
<path d="M142.97 148.73C141.28 156.16 133.63 160.75 125.88 158.98C118.13 157.22 113.22 149.77 114.91 142.34C116.6 134.91 124.25 130.32 132 132.09C139.75 133.85 144.66 141.3 142.97 148.73Z" fill="#27725E"/>
<path d="M117.68 136.02C124.69 135.94 130.97 141.97 131.93 149.35C133.34 160.16 140.64 207.19 127.6 228.5C116.17 228.65 105.72 224.81 97.56 211.6C97.56 211.6 92.09 197.59 96.38 173.11C100.63 148.8 110.74 138.2 110.74 138.2C112.61 136.81 114.22 136.06 117.69 136.02" fill="#9E5858"/>
<path d="M191.05 186.44C191.07 187.12 190.53 187.68 190 188.11C188.5 189.33 186.76 190.26 184.9 190.82C184.01 191.09 182.99 191.26 182.21 190.76C181.38 190.23 181.12 189.15 181.07 188.17C180.92 185.57 181.72 181.03 184.76 180.28C186 179.97 184.73 171.36 185 172.57C186.09 177.43 189.27 183.56 191.06 186.44" fill="#FFC2B0"/>
<path d="M178.4 177.72C178.23 179.24 178.79 180.54 179.63 180.63C180.48 180.72 181.3 179.57 181.46 178.05C181.62 176.53 181.07 175.23 180.23 175.14C179.38 175.05 178.56 176.2 178.4 177.72Z" fill="#21275E"/>
<path d="M177.49 171.85C178.94 170.99 181.08 170.04 182.79 170.51C184.14 170.87 184.73 168.79 183.38 168.43C181.08 167.81 178.38 168.81 176.41 169.98C175.21 170.69 176.29 172.57 177.49 171.86" fill="#915151"/>
<path d="M170.97 195.03C171.26 196.42 172.05 197.61 173.22 198.4C174.14 199.02 175.22 199.3 176.3 199.44C176.64 199.48 176.99 199.51 177.33 199.51C177.94 199.51 178.52 198.97 178.5 198.34C178.47 197.7 177.99 197.18 177.33 197.17C177.06 197.17 176.8 197.16 176.53 197.13C176.49 197.13 176.44 197.12 176.4 197.12C176.21 197.1 176.51 197.15 176.55 197.14C176.47 197.15 176.34 197.11 176.26 197.09C176.06 197.05 175.86 197.01 175.66 196.95C175.46 196.89 175.26 196.82 175.06 196.75C174.83 196.66 175.29 196.86 175.13 196.78C175.08 196.76 175.04 196.74 174.99 196.72C174.88 196.67 174.78 196.61 174.67 196.55C174.57 196.49 174.47 196.43 174.38 196.37C174.34 196.34 174.29 196.31 174.25 196.28C174.15 196.21 174.4 196.4 174.38 196.38C174.35 196.35 174.31 196.32 174.28 196.29C174.09 196.13 173.94 195.95 173.77 195.77C173.69 195.68 173.87 195.91 173.86 195.89C173.84 195.85 173.8 195.81 173.77 195.77C173.73 195.71 173.69 195.66 173.66 195.6C173.58 195.47 173.51 195.33 173.44 195.19C173.33 194.96 173.52 195.43 173.44 195.17C173.41 195.1 173.39 195.02 173.36 194.95C173.3 194.77 173.26 194.59 173.22 194.4C173.1 193.8 172.36 193.4 171.79 193.59C171.16 193.8 170.84 194.38 170.98 195.02" fill="#D18B77"/>
<path d="M160.13 186.5C160.81 185.96 160.86 184.94 160.23 184.34C159.33 183.48 157.95 182.7 156.92 184.54C155.88 186.4 157.01 188.63 158 190.05C158.18 190.31 158.57 190.12 158.5 189.82C158.28 188.89 158.27 187.8 159.19 187.19C159.57 186.93 159.88 186.71 160.13 186.51" fill="#D18B77"/>
<path d="M237.79 526.43L238.15 526.38C240.61 526.02 242.31 523.73 241.94 521.27L224.42 403.17C224.06 400.71 221.77 399.01 219.31 399.38L218.95 399.43C216.49 399.8 214.79 402.08 215.16 404.54L232.68 522.64C233.04 525.1 235.33 526.8 237.79 526.43Z" fill="#283D75"/>
<path d="M15.9499 534.15C13.4799 533.78 11.7699 531.48 12.1399 529.01L33.4299 385.46C33.7999 382.99 36.0999 381.28 38.5699 381.65C41.0399 382.02 42.7499 384.32 42.3799 386.79L21.0899 530.34C20.7199 532.81 18.4199 534.52 15.9499 534.15Z" fill="#283D75"/>
<path d="M120.35 595.2C117.7 594.81 115.87 592.34 116.27 589.69L141.14 422.03C141.53 419.38 144 417.55 146.65 417.95C149.3 418.34 151.13 420.81 150.73 423.46L125.87 591.12C125.48 593.77 123.01 595.6 120.36 595.2" fill="#283D75"/>
<path d="M136.2 476.64L34.06 417.43C24.48 411.9 19.19 400.88 19.19 400.88C15.61 392.65 24.16 386.69 33.74 392.22L127.45 447.39C137.03 452.92 140.64 458.7 139.1 465.56C139.1 465.56 148.36 482.9 136.22 476.64" fill="#50D6B6"/>
<path d="M225.22 432.78L154.18 476.27C142.67 483.31 133.78 480.01 134.42 468.92L135.03 458.27C135.67 447.19 145.6 432.35 157.1 425.31L228.14 381.82C239.65 374.78 248.54 378.08 247.9 389.17L247.29 399.82C246.65 410.9 236.72 425.74 225.22 432.78Z" fill="#50D6B6"/>
<path d="M19.24 399.39L1.44999 288.17C-1.56001 271.72 10.73 266.25 28.08 276.31L97.45 316.56C109.95 323.81 121.81 337.36 127.12 350.44L156.4 422.66C164.8 443.36 146.68 463.74 129.15 453.3L19.23 399.39H19.24Z" fill="#50D6B6"/>
<path d="M198.81 120.99C198.81 127.11 209.63 132.08 222.98 132.08C236.33 132.08 247.16 127.12 247.16 120.99C247.16 114.86 236.34 109.9 222.98 109.9C209.62 109.9 198.81 114.86 198.81 120.99Z" fill="#D3E5DF"/>
<path d="M224.75 127.52C217.18 131.89 204.88 131.87 197.26 127.47C189.65 123.08 189.61 115.97 197.17 111.6C204.74 107.23 217.04 107.25 224.66 111.65C232.28 116.05 232.31 123.15 224.75 127.52Z" fill="#BBFCE6"/>
<path d="M182.44 92.3101L191.59 120.35L230.26 120.99L239.08 93.9601L182.44 92.3101Z" fill="#BBFCE6"/>
<path d="M227.07 93.4299L218.24 120.35C217.02 124.47 215.91 125.39 212.74 127.22C210.44 128.54 207.71 129.69 204.81 130.19C211.34 131.29 218.61 130.05 223.73 127.1C226.9 125.27 228.73 124.34 229.23 120.35L238.06 93.4299H227.07Z" fill="#9EE5CB"/>
<path d="M231.33 102.29C220.15 108.74 201.97 108.71 190.72 102.22C179.47 95.73 179.42 85.23 190.59 78.78C201.77 72.33 219.95 72.36 231.19 78.85C242.44 85.34 242.5 95.84 231.32 102.29" fill="white"/>
<path d="M228.24 100.09C218.65 105.63 203.04 105.6 193.39 100.03C183.73 94.46 183.69 85.45 193.28 79.91C202.87 74.37 218.48 74.4 228.13 79.97C237.78 85.54 237.83 94.55 228.24 100.09Z" fill="#27725E"/>
<path d="M211.76 81.6101C214.2 59.3801 233.11 22.8401 233.11 22.8401C208.74 30.0701 207.14 54.1501 207.14 54.1501L211.76 81.6101Z" fill="#50D6B6"/>
<path d="M206.25 61.97C208.82 39.75 198.07 0 198.07 0C220.21 12.48 216.41 36.31 216.41 36.31L206.24 61.97H206.25Z" fill="#50D6B6"/>
<path d="M243.59 35.16C223.25 39.75 210.96 75.35 210.96 75.35V75.42C210.2 30.05 181.55 18.02 181.55 18.02C190.11 30.47 198.17 72.9 200.6 86.61C201.51 91.76 206.08 95.53 211.31 95.28C211.6 95.27 211.89 95.24 212.19 95.21C216.66 94.72 220.19 91.23 221.06 86.81C224.82 67.82 243.6 35.15 243.6 35.15" fill="#50D6B6"/>
<path d="M456.83 356.48L456.87 353.89C456.87 353.38 456.58 352.89 455.95 352.51L432.83 338.69C431.44 337.86 429 337.93 427.38 338.83L384.79 362.58C383.94 363.05 383.49 363.66 383.44 364.25V364.35C383.44 364.38 383.44 364.4 383.44 364.43L383.47 366.58C383.25 367.24 383.52 367.91 384.31 368.38L407.43 382.2C408.12 382.61 409.08 382.8 410.07 382.78C410.32 382.78 410.56 382.75 410.81 382.72C411.3 382.65 411.79 382.53 412.24 382.36C412.47 382.27 412.68 382.17 412.89 382.06L455.48 358.31C456.34 357.83 456.8 357.2 456.83 356.6C456.83 356.55 456.83 356.51 456.83 356.46" fill="#D3E5DF"/>
<path d="M380.44 364.83L380.4 362.49L383.39 364.49C383.39 364.49 382.51 366.6 382.42 366.52C382.33 366.45 380.44 364.83 380.44 364.83Z" fill="#50D6B6"/>
<path d="M404.41 380.46L381.29 366.64C379.9 365.81 380.1 364.41 381.73 363.5L424.32 339.75C425.95 338.84 428.39 338.78 429.77 339.61L452.89 353.43C454.28 354.26 454.08 355.66 452.45 356.57L409.86 380.32C408.23 381.23 405.79 381.29 404.41 380.46Z" fill="#E0E0E0"/>
<path d="M407.14 367.55L424.32 339.75C425.95 338.84 428.39 338.78 429.77 339.61L452.89 353.43C454.28 354.26 454.08 355.66 452.45 356.57L409.86 380.32C409.05 380.77 408.03 381.02 407.04 381.04L407.14 367.56V367.55Z" fill="#FCFEFF"/>
<path d="M425.65 358.52L430.02 352.78L453.86 352.13L453.81 354.86L427.66 362.76L425.65 358.52Z" fill="#FCFEFF"/>
<path d="M403.17 378.27C403.17 378.68 402.87 378.83 402.52 378.63C402.17 378.42 401.89 377.92 401.9 377.52C401.9 377.12 402.2 376.96 402.55 377.17C402.9 377.38 403.18 377.88 403.17 378.28" fill="#999999"/>
<path d="M404.45 377.79L381.33 363.97C379.94 363.14 380.14 361.74 381.77 360.83L424.36 337.08C425.99 336.17 428.43 336.11 429.81 336.94L452.93 350.76C454.32 351.59 454.12 352.99 452.49 353.9L409.9 377.65C408.27 378.56 405.83 378.62 404.45 377.79Z" fill="#1A1A1A"/>
<path d="M442.11 346.64L435.72 342.83C435.46 342.67 435.49 342.4 435.8 342.23C436.11 342.06 436.58 342.05 436.84 342.2L443.23 346.02C443.49 346.18 443.45 346.45 443.15 346.62C442.84 346.79 442.37 346.8 442.11 346.65" fill="#999999"/>
<path d="M394.92 373.93L389.79 370.87C389.57 370.74 389.4 370.4 389.4 370.1C389.4 369.81 389.58 369.68 389.8 369.81L394.93 372.88C395.15 373.01 395.32 373.35 395.32 373.65C395.32 373.94 395.13 374.07 394.92 373.94" fill="#999999"/>
<path d="M446.4 359.01L448.97 357.58C449.12 357.49 449.25 357.26 449.25 357.06C449.25 356.86 449.13 356.76 448.98 356.85L446.41 358.28C446.26 358.37 446.13 358.6 446.13 358.8C446.13 359 446.25 359.1 446.4 359.01Z" fill="#999999"/>
<path d="M442.75 361.22L445.32 359.79C445.47 359.7 445.6 359.47 445.6 359.27C445.6 359.07 445.48 358.97 445.33 359.06L442.76 360.49C442.61 360.58 442.48 360.81 442.48 361.01C442.48 361.21 442.6 361.31 442.75 361.22Z" fill="#999999"/>
<path d="M425.65 338.5L389.83 358.47C389 358.93 388.98 360.13 389.8 360.62L411.17 373.39C411.55 373.62 412.02 373.62 412.41 373.41L448.23 353.44C449.06 352.97 449.08 351.78 448.26 351.29L426.89 338.52C426.51 338.29 426.04 338.29 425.65 338.5Z" fill="#E8F7F2"/>
<mask id="mask55_254_5181" style="mask-type:luminance" maskUnits="userSpaceOnUse" x="415" y="346" width="22" height="12">
<path d="M436.24 346.42H415.88V357.85H436.24V346.42Z" fill="white"/>
</mask>
<g mask="url(#mask55_254_5181)">
<mask id="mask56_254_5181" style="mask-type:luminance" maskUnits="userSpaceOnUse" x="415" y="346" width="22" height="12">
<path d="M415.89 353.48L422.92 346.42L436.25 350.79L429.22 357.85L415.89 353.48Z" fill="white"/>
</mask>
<g mask="url(#mask56_254_5181)">
<path d="M424.76 348.01C423.12 348.11 421.61 348.5 420.46 349.15L421.53 349.5L424.76 348.01Z" fill="#50D6B6"/>
<path d="M429.58 348.6C429.08 348.44 428.56 348.31 428.05 348.21L424.89 353.36L426.21 352.91C426.43 352.83 426.73 352.83 426.97 352.91L428.79 353.51C429.12 353.43 429.51 353.44 429.85 353.56C430.42 353.74 430.63 354.13 430.33 354.43C430.03 354.73 429.34 354.82 428.78 354.64C428.49 354.55 428.3 354.4 428.21 354.23L426.67 353.73L423.93 354.67C423.7 354.74 423.42 354.74 423.18 354.67L423.08 354.63C422.83 354.52 422.73 354.34 422.82 354.18L426.39 348.34L422.12 350.31C421.89 350.41 421.56 350.43 421.29 350.34L419.58 349.78C419.51 349.84 419.45 349.9 419.39 349.96C417.45 351.91 418.85 354.47 422.54 355.68C426.22 356.89 430.78 356.28 432.72 354.33C434.66 352.38 433.25 349.82 429.57 348.62" fill="#50D6B6"/>
</g>
</g>
<mask id="mask57_254_5181" style="mask-type:luminance" maskUnits="userSpaceOnUse" x="402" y="351" width="24" height="14">
<path d="M425.13 351.7H402.69V364.25H425.13V351.7Z" fill="white"/>
</mask>
<g mask="url(#mask57_254_5181)">
<mask id="mask58_254_5181" style="mask-type:luminance" maskUnits="userSpaceOnUse" x="402" y="351" width="24" height="14">
<path d="M402.69 354.53L407.38 351.7L425.13 361.41L420.44 364.25L402.69 354.53Z" fill="white"/>
</mask>
<g mask="url(#mask58_254_5181)">
<path d="M407.72 351.88C407.52 351.77 407.28 351.77 407.08 351.88C406.87 351.99 406.85 352.14 407.06 352.27L407.8 352.74L405.07 354.2C404.82 354.34 404.8 354.5 405 354.62C405.01 354.62 405.03 354.64 405.04 354.64C405.23 354.74 405.49 354.73 405.73 354.61L408.47 353.15L409.21 353.62C409.21 353.62 409.24 353.64 409.25 353.64C409.44 353.74 409.69 353.74 409.89 353.64C410.1 353.53 410.11 353.38 409.91 353.25L407.76 351.9C407.76 351.9 407.74 351.89 407.73 351.88" fill="#333333"/>
<path d="M407.84 355.76C407.84 355.76 407.81 355.74 407.8 355.74C407.54 355.57 407.49 355.39 407.72 355.28C407.92 355.17 408.21 355.17 408.48 355.32C408.5 355.32 408.51 355.34 408.53 355.35C408.69 355.45 408.81 355.55 408.92 355.69L408.4 355.97C408.22 355.93 408.02 355.86 407.85 355.77M410.11 354.4C409.86 354.27 409.61 354.18 409.4 354.12C409.16 354.05 408.97 354.08 408.82 354.15C408.65 354.25 408.64 354.39 408.78 354.48C408.78 354.48 408.8 354.48 408.8 354.49C408.87 354.53 408.97 354.56 409.07 354.58C409.2 354.62 409.35 354.67 409.49 354.75C409.51 354.75 409.52 354.77 409.54 354.78C409.9 355.01 409.88 355.17 409.61 355.31L409.41 355.42C409.28 355.27 409.13 355.15 408.94 355.03C408.9 355.01 408.87 354.99 408.83 354.97C408.21 354.63 407.53 354.67 407.11 354.89C406.59 355.17 406.52 355.61 407.17 356.02C407.22 356.05 407.27 356.08 407.32 356.11C407.77 356.36 408.24 356.47 408.48 356.51C408.63 356.52 408.72 356.51 408.85 356.44L410.19 355.72C410.94 355.32 410.9 354.9 410.22 354.48C410.18 354.45 410.14 354.43 410.1 354.41" fill="#333333"/>
<path d="M410.73 357.43C410.73 357.43 410.7 357.41 410.69 357.41C410.54 357.31 410.39 357.17 410.37 357.06L411.69 356.36C411.85 356.38 412.07 356.46 412.23 356.54C412.24 356.54 412.26 356.56 412.27 356.56C412.58 356.76 412.53 356.97 412.24 357.15C412.06 357.26 411.88 357.36 411.7 357.44C411.39 357.58 411.04 357.6 410.73 357.43ZM413.13 355.18C412.94 355.08 412.68 355.08 412.45 355.21L409.46 356.81C409.33 356.88 409.29 356.94 409.31 357.02C409.35 357.18 409.54 357.51 410.02 357.8C410.05 357.82 410.09 357.84 410.12 357.86C410.75 358.21 411.56 358.21 412.21 357.91C412.45 357.8 412.82 357.61 413.01 357.48C413.6 357.11 413.64 356.61 413.07 356.25C413.04 356.23 413.01 356.22 412.98 356.2C412.8 356.1 412.58 356.02 412.4 355.98L413.08 355.61C413.33 355.48 413.35 355.32 413.15 355.2C413.15 355.2 413.13 355.19 413.12 355.18" fill="#333333"/>
<path d="M414.93 357.45C414.74 357.34 414.48 357.35 414.25 357.47L412.1 358.63C411.85 358.76 411.83 358.92 412.03 359.04C412.03 359.04 412.05 359.05 412.06 359.06C412.25 359.17 412.51 359.16 412.74 359.04L414.89 357.88C415.13 357.76 415.15 357.6 414.96 357.48C414.95 357.48 414.94 357.47 414.93 357.46M416.04 356.87C415.84 356.76 415.52 356.76 415.3 356.87C415.06 357 415.03 357.19 415.23 357.32C415.23 357.32 415.25 357.32 415.25 357.33C415.46 357.44 415.78 357.44 416.01 357.31C416.24 357.19 416.27 356.99 416.06 356.86C416.06 356.86 416.04 356.86 416.04 356.85" fill="#333333"/>
<path d="M414.81 359.99C414.81 359.99 414.77 359.97 414.75 359.96C414.59 359.86 414.45 359.72 414.43 359.61L415.75 358.91C415.9 358.93 416.11 359 416.26 359.08C416.28 359.09 416.3 359.1 416.32 359.12C416.63 359.31 416.58 359.53 416.29 359.71C416.12 359.82 415.93 359.92 415.76 360C415.45 360.14 415.1 360.16 414.8 360M417.18 357.74C416.99 357.63 416.73 357.64 416.49 357.76L413.5 359.36C413.36 359.43 413.33 359.49 413.35 359.57C413.39 359.73 413.58 360.06 414.06 360.36C414.09 360.38 414.13 360.4 414.16 360.42C414.79 360.76 415.59 360.77 416.25 360.47C416.49 360.37 416.85 360.17 417.05 360.05C417.64 359.67 417.68 359.17 417.11 358.81C417.08 358.79 417.06 358.78 417.03 358.77C416.85 358.67 416.62 358.59 416.44 358.54L417.13 358.17C417.37 358.04 417.4 357.88 417.2 357.76C417.2 357.76 417.18 357.75 417.17 357.74" fill="#333333"/>
<path d="M419.93 359.47C419.81 359.41 419.67 359.41 419.52 359.48L416.09 361.31C415.95 361.39 415.94 361.48 416.05 361.55H416.07C416.19 361.62 416.34 361.62 416.48 361.55L419.91 359.71C420.06 359.63 420.07 359.54 419.95 359.47H419.94" fill="#50D6B6"/>
<path d="M420.08 360.77C419.96 360.7 419.82 360.71 419.67 360.78L417.27 362.06C417.13 362.14 417.11 362.23 417.23 362.3C417.23 362.3 417.24 362.3 417.25 362.3C417.37 362.37 417.51 362.36 417.65 362.29L420.05 361.01C420.2 360.93 420.21 360.84 420.09 360.77H420.07M421.07 360.21C420.93 360.14 420.72 360.14 420.57 360.22C420.4 360.31 420.39 360.44 420.52 360.52C420.52 360.52 420.52 360.52 420.53 360.52C420.68 360.6 420.9 360.6 421.06 360.52C421.22 360.43 421.24 360.3 421.09 360.21C421.09 360.21 421.08 360.21 421.07 360.2" fill="#50D6B6"/>
<path d="M419.69 363.38C419.69 363.38 419.65 363.36 419.63 363.34C419.42 363.2 419.22 362.99 419.19 362.84L420.87 361.94C421.09 361.96 421.4 362.07 421.62 362.19C421.65 362.2 421.67 362.22 421.69 362.23C422.1 362.48 422.06 362.78 421.68 363.02C421.49 363.14 421.23 363.29 421.01 363.38C420.58 363.57 420.1 363.58 419.7 363.36M422.3 360.94C422.18 360.88 422.04 360.88 421.89 360.95L418.69 362.66C418.59 362.71 418.56 362.75 418.58 362.81C418.62 362.97 418.82 363.3 419.23 363.55C419.26 363.57 419.29 363.59 419.33 363.61C419.93 363.94 420.7 363.93 421.35 363.64C421.58 363.53 421.92 363.35 422.12 363.23C422.71 362.86 422.74 362.38 422.16 362.01C422.13 361.99 422.11 361.98 422.08 361.97C421.85 361.84 421.57 361.74 421.34 361.7L422.28 361.2C422.43 361.12 422.44 361.03 422.32 360.96H422.31" fill="#50D6B6"/>
</g>
</g>
<path d="M209.21 316.73L151.17 264.06C144.95 258.41 144.14 248.91 149.34 242.3C155.27 234.74 167.14 239.36 175.89 246.33L225.79 293.45L209.22 316.73H209.21Z" fill="#F0F8FF"/>
</svg>
