<svg width="693" height="462" viewBox="0 0 693 462" fill="none" xmlns="http://www.w3.org/2000/svg">
<path d="M673.596 414.941C673.596 415.079 532.695 415.181 358.928 415.181C185.16 415.181 44.2411 415.079 44.2411 414.941C44.2411 414.802 185.105 414.7 358.928 414.7C532.751 414.7 673.596 414.811 673.596 414.941Z" fill="#263238"/>
<path d="M576.317 413.352H649.267V189.873H576.317V413.352Z" fill="#EBEBEB"/>
<path d="M518.761 413.351H576.317L576.419 189.873H518.761V413.351Z" fill="#E0E0E0"/>
<path d="M583.349 243.058H645.229V225.632H583.349V243.058Z" fill="#263238"/>
<path d="M640.036 241.164H643.501V227.831H640.036V241.164Z" fill="#455A64"/>
<path d="M635.952 230.63C635.95 230.851 636.014 231.066 636.135 231.25C636.256 231.434 636.429 231.577 636.632 231.662C636.835 231.747 637.059 231.77 637.275 231.728C637.491 231.685 637.689 231.579 637.845 231.424C638.001 231.268 638.106 231.07 638.149 230.854C638.191 230.638 638.169 230.414 638.084 230.211C637.999 230.008 637.855 229.835 637.671 229.714C637.488 229.593 637.272 229.529 637.052 229.531C636.761 229.533 636.483 229.65 636.277 229.856C636.071 230.061 635.955 230.34 635.952 230.63Z" fill="white"/>
<path d="M635.952 235.343C635.95 235.563 636.014 235.778 636.135 235.962C636.256 236.146 636.429 236.29 636.632 236.375C636.835 236.46 637.059 236.482 637.275 236.44C637.491 236.397 637.689 236.292 637.845 236.136C638.001 235.98 638.106 235.782 638.149 235.566C638.191 235.35 638.169 235.126 638.084 234.923C637.999 234.72 637.855 234.547 637.671 234.426C637.488 234.305 637.272 234.241 637.052 234.243C636.907 234.243 636.764 234.272 636.631 234.327C636.498 234.382 636.376 234.463 636.274 234.565C636.172 234.667 636.091 234.789 636.036 234.922C635.981 235.055 635.952 235.198 635.952 235.343Z" fill="white"/>
<path d="M628.144 239.778H631.554V229.531H628.144V239.778Z" fill="#455A64"/>
<path d="M623.22 239.778H626.629V229.531H623.22V239.778Z" fill="#455A64"/>
<path d="M618.304 239.778H621.713V229.531H618.304V239.778Z" fill="#455A64"/>
<path d="M613.388 239.778H616.798V229.531H613.388V239.778Z" fill="#455A64"/>
<path d="M608.463 239.778H611.873V229.531H608.463V239.778Z" fill="#455A64"/>
<path d="M603.548 239.778H606.957V229.531H603.548V239.778Z" fill="#455A64"/>
<path d="M598.632 239.778H602.041V229.531H598.632V239.778Z" fill="#455A64"/>
<path d="M593.707 239.778H597.117V229.531H593.707V239.778Z" fill="#455A64"/>
<path d="M588.791 239.778H592.201V229.531H588.791V239.778Z" fill="#455A64"/>
<path d="M583.876 239.778H587.285V229.531H583.876V239.778Z" fill="#455A64"/>
<path d="M583.349 268.089H645.229V250.663H583.349V268.089Z" fill="#263238"/>
<path d="M640.036 266.186H643.501V252.853H640.036V266.186Z" fill="#455A64"/>
<path d="M635.952 255.662C635.95 255.882 636.014 256.097 636.135 256.281C636.256 256.465 636.429 256.608 636.632 256.693C636.835 256.779 637.059 256.801 637.275 256.759C637.491 256.716 637.689 256.61 637.845 256.455C638.001 256.299 638.106 256.101 638.149 255.885C638.191 255.669 638.169 255.445 638.084 255.242C637.999 255.039 637.855 254.866 637.671 254.745C637.488 254.624 637.272 254.56 637.052 254.562C636.907 254.562 636.764 254.59 636.631 254.646C636.498 254.701 636.376 254.782 636.274 254.884C636.172 254.986 636.091 255.107 636.036 255.241C635.981 255.374 635.952 255.517 635.952 255.662Z" fill="white"/>
<path d="M635.952 260.374C635.95 260.594 636.014 260.81 636.135 260.993C636.256 261.177 636.429 261.321 636.632 261.406C636.835 261.491 637.059 261.514 637.275 261.471C637.491 261.429 637.689 261.323 637.845 261.167C638.001 261.012 638.106 260.813 638.149 260.597C638.191 260.381 638.169 260.158 638.084 259.955C637.999 259.752 637.855 259.579 637.671 259.457C637.488 259.336 637.272 259.273 637.052 259.274C636.907 259.274 636.764 259.303 636.631 259.358C636.498 259.413 636.376 259.494 636.274 259.597C636.172 259.699 636.091 259.82 636.036 259.953C635.981 260.087 635.952 260.23 635.952 260.374Z" fill="white"/>
<path d="M628.144 264.8H631.554V254.562H628.144V264.8Z" fill="#455A64"/>
<path d="M623.22 264.8H626.629V254.562H623.22V264.8Z" fill="#455A64"/>
<path d="M618.304 264.8H621.713V254.562H618.304V264.8Z" fill="#455A64"/>
<path d="M613.388 264.8H616.798V254.562H613.388V264.8Z" fill="#455A64"/>
<path d="M608.463 264.8H611.873V254.562H608.463V264.8Z" fill="#455A64"/>
<path d="M603.548 264.8H606.957V254.562H603.548V264.8Z" fill="#455A64"/>
<path d="M598.632 264.8H602.041V254.562H598.632V264.8Z" fill="#455A64"/>
<path d="M593.707 264.8H597.117V254.562H593.707V264.8Z" fill="#455A64"/>
<path d="M588.791 264.8H592.201V254.562H588.791V264.8Z" fill="#455A64"/>
<path d="M583.876 264.8H587.285V254.562H583.876V264.8Z" fill="#455A64"/>
<path d="M583.349 293.324H645.229V275.897H583.349V293.324Z" fill="#263238"/>
<path d="M640.036 291.42H643.501V278.087H640.036V291.42Z" fill="#455A64"/>
<path d="M635.952 280.896C635.952 281.116 636.018 281.331 636.14 281.513C636.262 281.696 636.436 281.838 636.639 281.921C636.842 282.005 637.065 282.026 637.281 281.983C637.496 281.939 637.694 281.833 637.848 281.677C638.003 281.521 638.108 281.322 638.15 281.107C638.191 280.891 638.168 280.668 638.083 280.465C637.997 280.263 637.854 280.09 637.67 279.97C637.487 279.849 637.271 279.785 637.052 279.787C636.759 279.79 636.48 279.908 636.274 280.115C636.068 280.323 635.952 280.604 635.952 280.896Z" fill="white"/>
<path d="M635.952 285.599C635.95 285.819 636.014 286.035 636.135 286.219C636.256 286.402 636.429 286.546 636.632 286.631C636.835 286.716 637.059 286.739 637.275 286.696C637.491 286.654 637.689 286.548 637.845 286.392C638.001 286.237 638.106 286.038 638.149 285.823C638.191 285.607 638.169 285.383 638.084 285.18C637.999 284.977 637.855 284.804 637.671 284.683C637.488 284.562 637.272 284.498 637.052 284.5C636.761 284.502 636.483 284.619 636.277 284.824C636.071 285.03 635.955 285.308 635.952 285.599Z" fill="white"/>
<path d="M628.144 290.034H631.554V279.796H628.144V290.034Z" fill="#455A64"/>
<path d="M623.22 290.034H626.629V279.796H623.22V290.034Z" fill="#455A64"/>
<path d="M618.304 290.034H621.713V279.796H618.304V290.034Z" fill="#455A64"/>
<path d="M613.388 290.034H616.798V279.796H613.388V290.034Z" fill="#455A64"/>
<path d="M608.463 290.034H611.873V279.796H608.463V290.034Z" fill="#455A64"/>
<path d="M603.548 290.034H606.957V279.796H603.548V290.034Z" fill="#455A64"/>
<path d="M598.632 290.034H602.041V279.796H598.632V290.034Z" fill="#455A64"/>
<path d="M593.707 290.034H597.117V279.796H593.707V290.034Z" fill="#455A64"/>
<path d="M588.791 290.034H592.201V279.796H588.791V290.034Z" fill="#455A64"/>
<path d="M583.876 290.034H587.285V279.796H583.876V290.034Z" fill="#455A64"/>
<path d="M583.349 320.573H645.229V303.146H583.349V320.573Z" fill="#263238"/>
<path d="M640.036 318.669H643.501V305.336H640.036V318.669Z" fill="#455A64"/>
<path d="M635.952 308.145C635.95 308.365 636.014 308.581 636.135 308.764C636.256 308.948 636.429 309.092 636.632 309.177C636.835 309.262 637.059 309.284 637.275 309.242C637.491 309.199 637.689 309.094 637.845 308.938C638.001 308.782 638.106 308.584 638.149 308.368C638.191 308.152 638.169 307.928 638.084 307.725C637.999 307.522 637.855 307.349 637.671 307.228C637.488 307.107 637.272 307.043 637.052 307.045C636.907 307.045 636.764 307.074 636.631 307.129C636.498 307.184 636.376 307.265 636.274 307.367C636.172 307.469 636.091 307.591 636.036 307.724C635.981 307.857 635.952 308 635.952 308.145Z" fill="white"/>
<path d="M635.952 312.857C635.95 313.077 636.014 313.293 636.135 313.477C636.256 313.66 636.429 313.804 636.632 313.889C636.835 313.974 637.059 313.997 637.275 313.954C637.491 313.912 637.689 313.806 637.845 313.65C638.001 313.495 638.106 313.296 638.149 313.08C638.191 312.864 638.169 312.641 638.084 312.438C637.999 312.235 637.855 312.062 637.671 311.941C637.488 311.819 637.272 311.756 637.052 311.758C636.907 311.758 636.764 311.786 636.631 311.841C636.498 311.897 636.376 311.978 636.274 312.08C636.172 312.182 636.091 312.303 636.036 312.436C635.981 312.57 635.952 312.713 635.952 312.857Z" fill="white"/>
<path d="M628.144 317.283H631.554V307.045H628.144V317.283Z" fill="#455A64"/>
<path d="M623.22 317.283H626.629V307.045H623.22V317.283Z" fill="#455A64"/>
<path d="M618.304 317.283H621.713V307.045H618.304V317.283Z" fill="#455A64"/>
<path d="M613.388 317.283H616.798V307.045H613.388V317.283Z" fill="#455A64"/>
<path d="M608.463 317.283H611.873V307.045H608.463V317.283Z" fill="#455A64"/>
<path d="M603.548 317.283H606.957V307.045H603.548V317.283Z" fill="#455A64"/>
<path d="M598.632 317.283H602.041V307.045H598.632V317.283Z" fill="#455A64"/>
<path d="M593.707 317.283H597.117V307.045H593.707V317.283Z" fill="#455A64"/>
<path d="M588.791 317.283H592.201V307.045H588.791V317.283Z" fill="#455A64"/>
<path d="M583.876 317.283H587.285V307.045H583.876V317.283Z" fill="#455A64"/>
<path d="M583.349 348.099H645.229V330.672H583.349V348.099Z" fill="#263238"/>
<path d="M640.036 346.204H643.501V332.871H640.036V346.204Z" fill="#455A64"/>
<path d="M635.952 335.671C635.95 335.891 636.014 336.106 636.135 336.29C636.256 336.474 636.429 336.618 636.632 336.703C636.835 336.788 637.059 336.81 637.275 336.768C637.491 336.725 637.689 336.62 637.845 336.464C638.001 336.308 638.106 336.11 638.149 335.894C638.191 335.678 638.169 335.454 638.084 335.251C637.999 335.048 637.855 334.875 637.671 334.754C637.488 334.633 637.272 334.569 637.052 334.571C636.907 334.571 636.764 334.6 636.631 334.655C636.498 334.71 636.376 334.791 636.274 334.893C636.172 334.995 636.091 335.117 636.036 335.25C635.981 335.383 635.952 335.526 635.952 335.671Z" fill="white"/>
<path d="M635.952 340.383C635.95 340.603 636.014 340.819 636.135 341.003C636.256 341.186 636.429 341.33 636.632 341.415C636.835 341.5 637.059 341.523 637.275 341.48C637.491 341.438 637.689 341.332 637.845 341.176C638.001 341.021 638.106 340.822 638.149 340.606C638.191 340.39 638.169 340.167 638.084 339.964C637.999 339.761 637.855 339.588 637.671 339.467C637.488 339.345 637.272 339.282 637.052 339.284C636.907 339.284 636.764 339.312 636.631 339.367C636.498 339.423 636.376 339.504 636.274 339.606C636.172 339.708 636.091 339.829 636.036 339.962C635.981 340.096 635.952 340.239 635.952 340.383Z" fill="white"/>
<path d="M628.144 344.809H631.554V334.571H628.144V344.809Z" fill="#455A64"/>
<path d="M623.22 344.809H626.629V334.571H623.22V344.809Z" fill="#455A64"/>
<path d="M618.304 344.809H621.713V334.571H618.304V344.809Z" fill="#455A64"/>
<path d="M613.388 344.809H616.798V334.571H613.388V344.809Z" fill="#455A64"/>
<path d="M608.463 344.809H611.873V334.571H608.463V344.809Z" fill="#455A64"/>
<path d="M603.548 344.809H606.957V334.571H603.548V344.809Z" fill="#455A64"/>
<path d="M598.632 344.809H602.041V334.571H598.632V344.809Z" fill="#455A64"/>
<path d="M593.707 344.809H597.117V334.571H593.707V344.809Z" fill="#455A64"/>
<path d="M588.791 344.809H592.201V334.571H588.791V344.809Z" fill="#455A64"/>
<path d="M583.876 344.809H587.285V334.571H583.876V344.809Z" fill="#455A64"/>
<path d="M583.349 402.873H645.229V385.447H583.349V402.873Z" fill="#263238"/>
<path d="M640.036 400.97H643.501V387.637H640.036V400.97Z" fill="#455A64"/>
<path d="M635.952 390.445C635.95 390.666 636.014 390.881 636.135 391.065C636.256 391.249 636.429 391.392 636.632 391.477C636.835 391.562 637.059 391.585 637.275 391.543C637.491 391.5 637.689 391.394 637.845 391.239C638.001 391.083 638.106 390.885 638.149 390.669C638.191 390.453 638.169 390.229 638.084 390.026C637.999 389.823 637.855 389.65 637.671 389.529C637.488 389.408 637.272 389.344 637.052 389.346C636.907 389.346 636.764 389.374 636.631 389.43C636.498 389.485 636.376 389.566 636.274 389.668C636.172 389.77 636.091 389.891 636.036 390.025C635.981 390.158 635.952 390.301 635.952 390.445Z" fill="white"/>
<path d="M635.952 395.158C635.95 395.378 636.014 395.594 636.135 395.777C636.256 395.961 636.429 396.105 636.632 396.19C636.835 396.275 637.059 396.298 637.275 396.255C637.491 396.213 637.689 396.107 637.845 395.951C638.001 395.796 638.106 395.597 638.149 395.381C638.191 395.165 638.169 394.942 638.084 394.739C637.999 394.536 637.855 394.363 637.671 394.241C637.488 394.12 637.272 394.057 637.052 394.058C636.907 394.058 636.764 394.087 636.631 394.142C636.498 394.197 636.376 394.278 636.274 394.38C636.172 394.483 636.091 394.604 636.036 394.737C635.981 394.871 635.952 395.014 635.952 395.158Z" fill="white"/>
<path d="M628.144 399.584H631.554V389.346H628.144V399.584Z" fill="#455A64"/>
<path d="M623.22 399.584H626.629V389.346H623.22V399.584Z" fill="#455A64"/>
<path d="M618.304 399.584H621.713V389.346H618.304V399.584Z" fill="#455A64"/>
<path d="M613.388 399.584H616.798V389.346H613.388V399.584Z" fill="#455A64"/>
<path d="M608.463 399.584H611.873V389.346H608.463V399.584Z" fill="#455A64"/>
<path d="M603.548 399.584H606.957V389.346H603.548V399.584Z" fill="#455A64"/>
<path d="M598.632 399.584H602.041V389.346H598.632V399.584Z" fill="#455A64"/>
<path d="M593.707 399.584H597.117V389.346H593.707V399.584Z" fill="#455A64"/>
<path d="M588.791 399.584H592.201V389.346H588.791V399.584Z" fill="#455A64"/>
<path d="M583.876 399.584H587.285V389.346H583.876V399.584Z" fill="#455A64"/>
<path d="M583.349 375.514H645.229V358.087H583.349V375.514Z" fill="#263238"/>
<path d="M640.036 373.61H643.501V360.277H640.036V373.61Z" fill="#455A64"/>
<path d="M635.952 363.132C635.952 363.352 636.018 363.566 636.14 363.749C636.262 363.932 636.436 364.074 636.639 364.157C636.842 364.241 637.065 364.262 637.281 364.219C637.496 364.175 637.694 364.069 637.848 363.913C638.003 363.757 638.108 363.558 638.15 363.343C638.191 363.127 638.168 362.904 638.083 362.701C637.997 362.499 637.854 362.326 637.67 362.206C637.487 362.085 637.271 362.021 637.052 362.023C636.759 362.026 636.48 362.144 636.274 362.351C636.068 362.559 635.952 362.84 635.952 363.132Z" fill="white"/>
<path d="M635.952 367.752C635.95 367.972 636.014 368.188 636.135 368.372C636.256 368.555 636.429 368.699 636.632 368.784C636.835 368.869 637.059 368.892 637.275 368.849C637.491 368.807 637.689 368.701 637.845 368.545C638.001 368.39 638.106 368.191 638.149 367.975C638.191 367.759 638.169 367.536 638.084 367.333C637.999 367.13 637.855 366.957 637.671 366.836C637.488 366.714 637.272 366.651 637.052 366.653C636.761 366.655 636.483 366.772 636.277 366.977C636.071 367.183 635.955 367.461 635.952 367.752Z" fill="white"/>
<path d="M628.144 372.224H631.554V361.986H628.144V372.224Z" fill="#455A64"/>
<path d="M623.22 372.224H626.629V361.986H623.22V372.224Z" fill="#455A64"/>
<path d="M618.304 372.224H621.713V361.986H618.304V372.224Z" fill="#455A64"/>
<path d="M613.388 372.224H616.798V361.986H613.388V372.224Z" fill="#455A64"/>
<path d="M608.463 372.224H611.873V361.986H608.463V372.224Z" fill="#455A64"/>
<path d="M603.548 372.224H606.957V361.986H603.548V372.224Z" fill="#455A64"/>
<path d="M598.632 372.224H602.041V361.986H598.632V372.224Z" fill="#455A64"/>
<path d="M593.707 372.224H597.117V361.986H593.707V372.224Z" fill="#455A64"/>
<path d="M588.791 372.224H592.201V361.986H588.791V372.224Z" fill="#455A64"/>
<path d="M583.876 372.224H587.285V361.986H583.876V372.224Z" fill="#455A64"/>
<path d="M606.957 225.641C607 225.465 607.022 225.285 607.022 225.105C607.022 224.741 607.04 224.224 607.077 223.553C607.077 222.878 607.077 222.056 607.16 221.104C607.189 220.033 607.328 218.968 607.576 217.925C607.931 216.681 608.49 215.504 609.23 214.442C610.073 213.213 611.25 212.251 612.621 211.67C614.168 211.106 615.791 210.776 617.435 210.69L622.767 210.228C630.066 209.6 636.691 209.194 641.496 209.101C643.899 209.101 645.839 209.101 647.179 209.101H648.731C648.909 209.121 649.089 209.121 649.267 209.101L648.731 209.046L647.188 208.953C645.839 208.898 643.899 208.842 641.487 208.852C636.682 208.852 630.039 209.231 622.73 209.868L617.398 210.339C615.717 210.427 614.059 210.773 612.483 211.365C611.055 211.961 609.832 212.959 608.962 214.239C608.209 215.336 607.649 216.555 607.308 217.842C607.07 218.907 606.946 219.994 606.939 221.085C606.939 222.009 606.939 222.86 606.939 223.534C606.939 224.209 606.939 224.689 606.939 225.077C606.93 225.265 606.936 225.454 606.957 225.641Z" fill="#263238"/>
<path d="M625.733 225.641C625.748 225.472 625.748 225.302 625.733 225.133C625.733 224.754 625.733 224.273 625.733 223.673C625.733 223.072 625.733 222.268 625.797 221.381C625.844 220.379 626.106 219.4 626.564 218.508C627.231 217.509 628.204 216.753 629.336 216.355C630.636 215.855 632.046 215.711 633.42 215.939C634.153 216.067 634.861 216.31 635.518 216.66C636.202 217.004 636.77 217.54 637.153 218.203C637.342 218.537 637.441 218.914 637.441 219.298C637.441 219.681 637.342 220.058 637.153 220.393C636.956 220.739 636.691 221.041 636.373 221.281C636.055 221.52 635.692 221.693 635.305 221.788C634.92 221.873 634.519 221.861 634.139 221.751C633.76 221.641 633.414 221.438 633.134 221.159C632.566 220.629 632.218 219.906 632.156 219.131C632.095 218.357 632.325 217.587 632.801 216.974C633.226 216.369 633.79 215.874 634.446 215.532C635.09 215.237 635.782 215.058 636.488 215.006C637.19 214.895 637.865 214.802 638.521 214.738C639.842 214.59 641.071 214.497 642.217 214.451C644.471 214.368 646.301 214.405 647.567 214.405H649.018C649.187 214.417 649.357 214.417 649.526 214.405C649.363 214.361 649.195 214.343 649.027 214.35L647.567 214.276C646.31 214.229 644.472 214.156 642.208 214.202C641.08 214.202 639.833 214.303 638.512 214.433C637.846 214.507 637.163 214.59 636.46 214.691C636.1 214.747 635.758 214.784 635.389 214.858C635.009 214.932 634.642 215.06 634.298 215.237C633.587 215.602 632.975 216.135 632.515 216.789C631.985 217.477 631.729 218.337 631.797 219.202C631.866 220.068 632.253 220.878 632.885 221.474C633.213 221.793 633.615 222.026 634.055 222.151C634.495 222.277 634.96 222.292 635.407 222.194C635.851 222.091 636.268 221.896 636.632 221.623C636.997 221.349 637.3 221.002 637.523 220.605C637.742 220.216 637.856 219.777 637.856 219.33C637.856 218.883 637.742 218.444 637.523 218.055C637.1 217.328 636.478 216.738 635.73 216.355C635.034 215.987 634.282 215.737 633.504 215.615C632.068 215.383 630.596 215.542 629.244 216.077C628.04 216.505 627.013 217.321 626.324 218.397C625.868 219.33 625.619 220.352 625.594 221.39C625.539 222.314 625.594 223.072 625.594 223.7C625.594 224.329 625.594 224.782 625.65 225.16C625.66 225.323 625.687 225.484 625.733 225.641Z" fill="#263238"/>
<path d="M601.903 225.641C601.964 225.451 602.007 225.256 602.032 225.059C602.097 224.68 602.208 224.135 602.356 223.405C602.785 221.383 603.404 219.406 604.204 217.5C605.328 214.658 607.187 212.164 609.591 210.275C611.046 209.232 612.752 208.594 614.534 208.427C616.461 208.212 618.398 208.107 620.337 208.113C628.329 207.956 635.583 207.992 640.822 207.789C643.446 207.697 645.562 207.577 647.031 207.475L648.713 207.327C648.909 207.322 649.104 207.297 649.295 207.253C649.098 207.241 648.9 207.241 648.703 207.253L647.022 207.318C645.553 207.373 643.437 207.457 640.812 207.512C635.573 207.641 628.329 207.567 620.327 207.715C618.373 207.709 616.42 207.817 614.478 208.039C612.633 208.232 610.872 208.915 609.378 210.016C608.059 211.027 606.908 212.24 605.968 213.61C605.166 214.809 604.491 216.088 603.954 217.427C603.174 219.354 602.598 221.358 602.235 223.405C602.106 224.126 602.023 224.689 601.977 225.077C601.943 225.264 601.918 225.452 601.903 225.641Z" fill="#263238"/>
<path d="M584.199 201.386H644.379V192.654H584.199V201.386Z" fill="#263238"/>
<path d="M598.382 201.395H631.147V197.025H598.382V201.395Z" fill="#455A64"/>
<path d="M559.639 373.841C559.639 373.887 560.304 373.952 561.487 374.285C563.112 374.779 564.647 375.53 566.033 376.512C566.991 377.182 567.853 377.981 568.593 378.886C568.996 379.388 569.345 379.93 569.637 380.503C569.917 381.127 570.137 381.777 570.293 382.444C570.986 385.216 570.773 388.366 570.635 391.684C570.496 395.001 570.718 398.253 572.011 400.924C572.602 402.171 573.438 403.287 574.469 404.204C575.367 404.996 576.383 405.641 577.482 406.117C578.386 406.514 579.335 406.8 580.309 406.967C581.043 407.076 581.786 407.107 582.527 407.059C582.991 407.027 583.452 406.953 583.903 406.837C584.065 406.808 584.223 406.761 584.375 406.699C584.375 406.652 583.719 406.856 582.527 406.902C581.799 406.925 581.072 406.872 580.355 406.745C579.399 406.567 578.468 406.272 577.583 405.867C576.524 405.381 575.543 404.739 574.673 403.964C573.681 403.068 572.883 401.98 572.326 400.767C571.087 398.207 570.875 395.01 571.014 391.739C571.152 388.468 571.355 385.271 570.625 382.425C570.46 381.736 570.228 381.064 569.932 380.42C569.626 379.823 569.254 379.262 568.824 378.748C568.058 377.831 567.169 377.026 566.181 376.354C564.775 375.378 563.213 374.65 561.561 374.202C561.108 374.085 560.648 373.999 560.184 373.943C560.006 373.89 559.824 373.856 559.639 373.841Z" fill="#263238"/>
<path d="M582.443 409.933H587.387V403.927H582.443V409.933Z" fill="#263238"/>
<path d="M531.947 389.013H559.648V358.66H531.947V389.013Z" fill="#455A64"/>
<path d="M554.24 377.456C556.156 372.798 553.934 367.469 549.275 365.553C544.617 363.637 539.288 365.859 537.372 370.517C535.456 375.176 537.679 380.505 542.337 382.421C546.995 384.337 552.324 382.114 554.24 377.456Z" fill="#263238"/>
<path d="M541.233 373.961C541.231 374.865 541.498 375.749 541.998 376.501C542.499 377.253 543.212 377.839 544.047 378.186C544.881 378.533 545.8 378.624 546.686 378.448C547.572 378.272 548.386 377.837 549.025 377.198C549.664 376.559 550.099 375.745 550.275 374.859C550.451 373.972 550.359 373.054 550.013 372.22C549.666 371.385 549.08 370.672 548.328 370.171C547.576 369.671 546.692 369.404 545.788 369.406C544.581 369.408 543.424 369.889 542.57 370.743C541.716 371.597 541.235 372.754 541.233 373.961Z" fill="#455A64"/>
<path d="M555.047 363.382C555.047 363.55 555.097 363.714 555.19 363.854C555.283 363.994 555.416 364.103 555.572 364.167C555.727 364.231 555.898 364.248 556.063 364.215C556.228 364.183 556.379 364.102 556.498 363.983C556.617 363.864 556.698 363.712 556.731 363.547C556.763 363.383 556.747 363.212 556.682 363.056C556.618 362.901 556.509 362.768 556.369 362.675C556.229 362.581 556.065 362.531 555.897 362.531C555.671 362.531 555.455 362.621 555.296 362.78C555.136 362.94 555.047 363.156 555.047 363.382Z" fill="#263238"/>
<path d="M536.179 364.232C536.648 364.232 537.029 363.851 537.029 363.382C537.029 362.912 536.648 362.531 536.179 362.531C535.709 362.531 535.329 362.912 535.329 363.382C535.329 363.851 535.709 364.232 536.179 364.232Z" fill="#263238"/>
<path d="M535.994 386.639C536.463 386.639 536.844 386.258 536.844 385.789C536.844 385.319 536.463 384.938 535.994 384.938C535.524 384.938 535.144 385.319 535.144 385.789C535.144 386.258 535.524 386.639 535.994 386.639Z" fill="#263238"/>
<path d="M555.047 386.14C555.047 386.308 555.097 386.472 555.19 386.612C555.283 386.752 555.416 386.861 555.572 386.925C555.727 386.989 555.898 387.006 556.063 386.973C556.228 386.941 556.379 386.86 556.498 386.741C556.617 386.622 556.698 386.47 556.731 386.305C556.763 386.141 556.747 385.97 556.682 385.814C556.618 385.659 556.509 385.526 556.369 385.433C556.229 385.339 556.065 385.29 555.897 385.29C555.671 385.29 555.455 385.379 555.296 385.539C555.136 385.698 555.047 385.914 555.047 386.14Z" fill="#263238"/>
<path d="M529.701 389.013H531.938V358.66H529.701V389.013Z" fill="#263238"/>
<path d="M128.353 149.041H511.683C513.335 149.041 514.919 149.697 516.087 150.865C517.255 152.033 517.911 153.617 517.911 155.269V397.93C517.911 399.698 517.563 401.448 516.886 403.082C516.21 404.715 515.218 406.199 513.968 407.449C512.718 408.7 511.234 409.691 509.6 410.368C507.967 411.044 506.216 411.393 504.449 411.393H134.655C131.084 411.393 127.66 409.974 125.135 407.449C122.61 404.925 121.192 401.5 121.192 397.93V156.202C121.192 154.303 121.946 152.482 123.289 151.139C124.632 149.796 126.454 149.041 128.353 149.041Z" fill="#455A64"/>
<path d="M104.606 391.989H534.423V402.263C534.423 403.928 534.095 405.577 533.458 407.115C532.821 408.653 531.887 410.05 530.71 411.228C529.533 412.405 528.135 413.339 526.597 413.976C525.059 414.613 523.411 414.941 521.746 414.941H117.283C115.618 414.941 113.97 414.613 112.432 413.976C110.894 413.339 109.496 412.405 108.319 411.228C107.142 410.05 106.208 408.653 105.571 407.115C104.934 405.577 104.606 403.928 104.606 402.263V391.989Z" fill="#455A64"/>
<path d="M506.158 159.464H131.846V381.011H506.158V159.464Z" fill="#E0E0E0"/>
<path d="M280.443 391.989L285.784 400.471H360.831L365.784 391.989H280.443Z" fill="#263238"/>
<path d="M495.957 172.298H142.952V381.011H495.957V172.298Z" fill="#263238"/>
<path d="M170.016 374.895C169.831 374.895 169.683 330.441 169.683 275.62C169.683 220.799 169.831 176.336 170.016 176.336C170.201 176.336 170.349 220.781 170.349 275.62C170.349 330.459 170.219 374.895 170.016 374.895Z" fill="#E0E0E0"/>
<path d="M162.91 194.336C162.91 194.511 160.342 194.659 157.182 194.659C154.022 194.659 151.444 194.511 151.444 194.336C151.444 194.16 154.012 194.003 157.182 194.003C160.351 194.003 162.91 194.151 162.91 194.336Z" fill="#E0E0E0"/>
<path d="M163.354 183.063C163.354 183.248 160.785 183.396 157.616 183.396C154.447 183.396 151.887 183.248 151.887 183.063C151.887 182.878 154.456 182.73 157.616 182.73C160.776 182.73 163.354 182.878 163.354 183.063Z" fill="#E0E0E0"/>
<path d="M162.91 206.477C162.91 206.662 160.342 206.81 157.182 206.81C154.022 206.81 151.444 206.662 151.444 206.477C151.444 206.292 154.012 206.144 157.182 206.144C160.351 206.144 162.91 206.292 162.91 206.477Z" fill="#E0E0E0"/>
<path d="M162.91 218.619C162.91 218.803 160.342 218.951 157.182 218.951C154.022 218.951 151.444 218.803 151.444 218.619C151.444 218.434 154.012 218.286 157.182 218.286C160.351 218.286 162.91 218.434 162.91 218.619Z" fill="#E0E0E0"/>
<path d="M162.91 230.76C162.91 230.945 160.342 231.092 157.182 231.092C154.022 231.092 151.444 230.945 151.444 230.76C151.444 230.575 154.012 230.436 157.182 230.436C160.351 230.436 162.91 230.584 162.91 230.76Z" fill="#E0E0E0"/>
<path d="M162.91 242.91C162.91 243.095 160.342 243.243 157.182 243.243C154.022 243.243 151.444 243.095 151.444 242.91C151.444 242.726 154.012 242.578 157.182 242.578C160.351 242.578 162.91 242.726 162.91 242.91Z" fill="#E0E0E0"/>
<path d="M162.91 255.024C162.91 255.209 160.342 255.357 157.182 255.357C154.022 255.357 151.444 255.209 151.444 255.024C151.444 254.839 154.012 254.691 157.182 254.691C160.351 254.691 162.91 254.867 162.91 255.024Z" fill="#E0E0E0"/>
<path d="M162.91 267.193C162.91 267.378 160.342 267.526 157.182 267.526C154.022 267.526 151.444 267.378 151.444 267.193C151.444 267.008 154.012 266.87 157.182 266.87C160.351 266.87 162.91 267.036 162.91 267.193Z" fill="#E0E0E0"/>
<path d="M162.91 279.344C162.91 279.519 160.342 279.667 157.182 279.667C154.022 279.667 151.444 279.519 151.444 279.344C151.444 279.168 154.012 279.011 157.182 279.011C160.351 279.011 162.91 279.159 162.91 279.344Z" fill="#E0E0E0"/>
<path d="M162.91 291.485C162.91 291.67 160.342 291.818 157.182 291.818C154.022 291.818 151.444 291.67 151.444 291.485C151.444 291.3 154.012 291.152 157.182 291.152C160.351 291.152 162.91 291.3 162.91 291.485Z" fill="#E0E0E0"/>
<path d="M162.91 303.626C162.91 303.811 160.342 303.959 157.182 303.959C154.022 303.959 151.444 303.811 151.444 303.626C151.444 303.442 154.012 303.294 157.182 303.294C160.351 303.294 162.91 303.442 162.91 303.626Z" fill="#E0E0E0"/>
<path d="M162.91 315.777C162.91 315.953 160.342 316.1 157.182 316.1C154.022 316.1 151.444 315.953 151.444 315.777C151.444 315.602 154.012 315.444 157.182 315.444C160.351 315.444 162.91 315.592 162.91 315.777Z" fill="#E0E0E0"/>
<path d="M162.91 327.918C162.91 328.103 160.342 328.251 157.182 328.251C154.022 328.251 151.444 328.103 151.444 327.918C151.444 327.734 154.012 327.586 157.182 327.586C160.351 327.586 162.91 327.734 162.91 327.918Z" fill="#E0E0E0"/>
<path d="M162.91 340.032C162.91 340.217 160.342 340.365 157.182 340.365C154.022 340.365 151.444 340.217 151.444 340.032C151.444 339.847 154.012 339.699 157.182 339.699C160.351 339.699 162.91 339.875 162.91 340.032Z" fill="#E0E0E0"/>
<path d="M162.91 352.201C162.91 352.386 160.342 352.534 157.182 352.534C154.022 352.534 151.444 352.386 151.444 352.201C151.444 352.016 154.012 351.878 157.182 351.878C160.351 351.878 162.91 352.044 162.91 352.201Z" fill="#E0E0E0"/>
<path d="M162.91 364.352C162.91 364.536 160.342 364.684 157.182 364.684C154.022 364.684 151.444 364.536 151.444 364.352C151.444 364.167 154.012 364.019 157.182 364.019C160.351 364.019 162.91 364.167 162.91 364.352Z" fill="#E0E0E0"/>
<path d="M208.879 364.352C208.879 364.536 202.217 364.684 193.994 364.684C185.77 364.684 179.117 364.536 179.117 364.352C179.117 364.167 185.779 364.019 193.994 364.019C202.208 364.019 208.879 364.167 208.879 364.352Z" fill="#FF725E"/>
<path d="M219.164 192.516C219.164 192.7 212.501 192.848 204.287 192.848C196.073 192.848 189.401 192.7 189.401 192.516C189.401 192.331 196.064 192.183 204.287 192.183C212.511 192.183 219.164 192.331 219.164 192.516Z" fill="#FF725E"/>
<path d="M250.33 218.619C250.33 218.803 237.856 218.951 222.49 218.951C207.124 218.951 194.641 218.803 194.641 218.619C194.641 218.434 207.105 218.286 222.49 218.286C237.875 218.286 250.33 218.434 250.33 218.619Z" fill="#FF725E"/>
<path d="M314.714 218.619C314.714 218.803 302.25 218.951 286.874 218.951C271.499 218.951 259.034 218.803 259.034 218.619C259.034 218.434 271.499 218.286 286.874 218.286C302.25 218.286 314.714 218.434 314.714 218.619Z" fill="#E0E0E0"/>
<path d="M290.136 230.76C290.136 230.945 271.767 231.092 249.101 231.092C226.435 231.092 208.066 230.945 208.066 230.76C208.066 230.575 226.435 230.436 249.101 230.436C271.767 230.436 290.136 230.584 290.136 230.76Z" fill="#E0E0E0"/>
<path d="M290.136 242.91C290.136 243.095 271.767 243.243 249.101 243.243C226.435 243.243 208.066 243.095 208.066 242.91C208.066 242.726 226.435 242.578 249.101 242.578C271.767 242.578 290.136 242.726 290.136 242.91Z" fill="#E0E0E0"/>
<path d="M346.602 279.344C346.602 279.519 328.223 279.667 305.567 279.667C282.91 279.667 264.532 279.519 264.532 279.344C264.532 279.168 282.901 279.011 305.567 279.011C328.233 279.011 346.602 279.159 346.602 279.344Z" fill="#E0E0E0"/>
<path d="M322.227 255.024C322.227 255.209 303.848 255.357 281.192 255.357C258.535 255.357 240.157 255.209 240.157 255.024C240.157 254.839 258.526 254.691 281.192 254.691C303.857 254.691 322.227 254.867 322.227 255.024Z" fill="#E0E0E0"/>
<path d="M422.508 255.024C422.508 255.209 404.139 255.357 381.473 255.357C358.808 255.357 340.439 255.209 340.439 255.024C340.439 254.839 358.808 254.691 381.473 254.691C404.139 254.691 422.508 254.867 422.508 255.024Z" fill="#E0E0E0"/>
<path d="M387.636 230.76C387.636 230.945 369.258 231.092 346.602 231.092C323.945 231.092 305.567 230.945 305.567 230.76C305.567 230.575 323.936 230.436 346.602 230.436C369.267 230.436 387.636 230.584 387.636 230.76Z" fill="#FAFAFA"/>
<path d="M444.324 279.344C444.324 279.519 425.946 279.667 403.289 279.667C380.633 279.667 362.254 279.519 362.254 279.344C362.254 279.168 380.623 279.011 403.289 279.011C425.955 279.011 444.324 279.159 444.324 279.344Z" fill="#FAFAFA"/>
<path d="M433.005 242.91C433.005 243.095 404.472 243.243 369.249 243.243C334.026 243.243 305.493 243.095 305.493 242.91C305.493 242.726 334.017 242.578 369.249 242.578C404.481 242.578 433.005 242.726 433.005 242.91Z" fill="#455A64"/>
<path d="M208.879 352.201C208.879 352.386 202.217 352.534 193.994 352.534C185.77 352.534 179.117 352.386 179.117 352.201C179.117 352.016 185.779 351.878 193.994 351.878C202.208 351.878 208.879 352.044 208.879 352.201Z" fill="#FAFAFA"/>
<path d="M223.608 255.024C223.608 255.209 216.946 255.357 208.722 255.357C200.499 255.357 193.846 255.209 193.846 255.024C193.846 254.839 200.508 254.691 208.722 254.691C216.937 254.691 223.608 254.867 223.608 255.024Z" fill="#FAFAFA"/>
<path d="M462.157 255.024C462.157 255.209 455.495 255.357 447.281 255.357C439.066 255.357 432.432 255.237 432.432 255.024C432.432 254.812 439.094 254.691 447.318 254.691C455.541 254.691 462.157 254.867 462.157 255.024Z" fill="#FF725E"/>
<path d="M250.33 303.562C250.33 303.737 237.856 303.885 222.49 303.885C207.124 303.885 194.641 303.737 194.641 303.562C194.641 303.386 207.105 303.229 222.49 303.229C237.875 303.229 250.33 303.377 250.33 303.562Z" fill="#FF725E"/>
<path d="M314.714 303.562C314.714 303.737 302.25 303.885 286.874 303.885C271.499 303.885 259.034 303.737 259.034 303.562C259.034 303.386 271.499 303.229 286.874 303.229C302.25 303.229 314.714 303.377 314.714 303.562Z" fill="#E0E0E0"/>
<path d="M290.136 315.703C290.136 315.888 271.767 316.036 249.101 316.036C226.435 316.036 208.066 315.888 208.066 315.703C208.066 315.518 226.435 315.37 249.101 315.37C271.767 315.37 290.136 315.518 290.136 315.703Z" fill="#E0E0E0"/>
<path d="M290.136 327.844C290.136 328.029 271.767 328.177 249.101 328.177C226.435 328.177 208.066 328.029 208.066 327.844C208.066 327.66 226.435 327.512 249.101 327.512C271.767 327.512 290.136 327.66 290.136 327.844Z" fill="#E0E0E0"/>
<path d="M322.227 340.032C322.227 340.217 303.848 340.365 281.192 340.365C258.535 340.365 240.157 340.217 240.157 340.032C240.157 339.847 258.526 339.709 281.192 339.709C303.857 339.709 322.227 339.81 322.227 340.032Z" fill="#E0E0E0"/>
<path d="M422.508 340.032C422.508 340.217 404.139 340.365 381.473 340.365C358.808 340.365 340.439 340.217 340.439 340.032C340.439 339.847 358.808 339.709 381.473 339.709C404.139 339.709 422.508 339.81 422.508 340.032Z" fill="#E0E0E0"/>
<path d="M304.846 351.896C304.846 352.081 286.477 352.229 263.82 352.229C241.164 352.229 222.776 352.081 222.776 351.896C222.776 351.711 241.145 351.564 263.82 351.564C286.495 351.564 304.846 351.711 304.846 351.896Z" fill="#E0E0E0"/>
<path d="M276.452 203.28C276.452 203.465 258.073 203.613 235.417 203.613C212.76 203.613 194.382 203.465 194.382 203.28C194.382 203.095 212.751 202.947 235.417 202.947C258.082 202.947 276.452 203.123 276.452 203.28Z" fill="#E0E0E0"/>
<path d="M387.636 315.703C387.636 315.888 369.258 316.036 346.602 316.036C323.945 316.036 305.567 315.888 305.567 315.703C305.567 315.518 323.936 315.37 346.602 315.37C369.267 315.37 387.636 315.518 387.636 315.703Z" fill="#FAFAFA"/>
<path d="M433.005 327.844C433.005 328.029 404.472 328.177 369.249 328.177C334.026 328.177 305.493 328.029 305.493 327.844C305.493 327.66 334.017 327.512 369.249 327.512C404.481 327.512 433.005 327.66 433.005 327.844Z" fill="#455A64"/>
<path d="M223.608 340.032C223.608 340.217 216.946 340.365 208.722 340.365C200.499 340.365 193.846 340.217 193.846 340.032C193.846 339.847 200.508 339.709 208.722 339.709C216.937 339.709 223.608 339.81 223.608 340.032Z" fill="#FAFAFA"/>
<path d="M462.157 340.032C462.157 340.217 455.495 340.365 447.281 340.365C439.066 340.365 432.432 340.171 432.432 340.032C432.432 339.893 439.094 339.709 447.318 339.709C455.541 339.709 462.157 339.81 462.157 340.032Z" fill="#FF725E"/>
</svg>
