<svg width="578" height="578" viewBox="0 0 578 578" fill="none" xmlns="http://www.w3.org/2000/svg">
<path d="M303.392 367.123C303.392 367.123 303.126 382.151 303.126 390C303.126 397.849 300.56 456.25 300.56 456.25C300.56 456.25 294.306 456.25 292.734 459.383C291.162 462.516 290.133 469.301 290.133 469.301C290.133 469.301 278.654 473.475 275.001 479.208C271.348 484.942 270.308 489.127 269.221 490.687C268.134 492.248 258.274 496.953 258.274 496.953C258.274 496.953 264.054 499.554 266.1 503.207C267.493 505.728 268.709 508.343 269.741 511.033C269.741 511.033 280.145 509.472 293.74 506.86C307.334 504.247 318.27 501.646 322.443 497.473C326.616 493.3 337.552 479.74 337.552 479.74C337.552 479.74 338.604 429.142 333.379 409.317C328.154 389.491 314.351 365.573 314.351 365.573" fill="#F7931E"/>
<path d="M303.392 367.123C303.392 367.123 303.126 382.151 303.126 390C303.126 397.849 300.56 456.25 300.56 456.25C300.56 456.25 294.306 456.25 292.734 459.383C291.162 462.516 290.133 469.301 290.133 469.301C290.133 469.301 278.654 473.475 275.001 479.208C271.348 484.942 270.308 489.127 269.221 490.687C268.134 492.248 258.274 496.953 258.274 496.953C258.274 496.953 264.054 499.554 266.1 503.207C267.493 505.728 268.709 508.343 269.741 511.033C269.741 511.033 280.145 509.472 293.74 506.86C307.334 504.247 318.27 501.646 322.443 497.473C326.616 493.3 337.552 479.74 337.552 479.74C337.552 479.74 338.604 429.142 333.379 409.317C328.154 389.491 314.351 365.573 314.351 365.573" stroke="#263238" stroke-miterlimit="10"/>
<path d="M282.584 502.062C282.841 503.297 282.907 504.564 282.781 505.819" stroke="#263238" stroke-miterlimit="10"/>
<path d="M271.302 491.728C271.302 491.728 278.596 493.612 281.613 499.392" stroke="#263238" stroke-miterlimit="10"/>
<path d="M301.473 467.845C300.723 467.162 299.873 466.596 298.953 466.169" stroke="#263238" stroke-miterlimit="10"/>
<path d="M293.208 470.342C293.208 470.342 297.381 474.515 301.034 478.688C304.687 482.861 317.738 487.034 317.738 487.034C317.738 487.034 309.831 476.087 303.762 469.983" stroke="#263238" stroke-miterlimit="10"/>
<path d="M258.262 496.953C258.262 496.953 232.738 491.577 230.125 492.098C227.512 492.618 218.646 496.305 211.825 505.299C208.924 509.125 211.305 510.513 213.386 509.992C215.467 509.472 219.027 504.779 220.946 502.467C222.01 501.195 228.31 498.248 228.31 498.248C228.31 498.248 219.652 505.819 218.611 509.992C217.571 514.166 215.999 517.298 218.091 518.859C220.183 520.42 223.062 514.882 223.062 514.882L227.998 506.86L234.263 502.166C234.263 502.166 228.483 506.224 225.258 518.616C225.197 518.919 225.228 519.233 225.348 519.517C225.467 519.802 225.67 520.044 225.929 520.212C226.299 520.509 226.731 520.721 227.193 520.833C227.655 520.945 228.135 520.954 228.601 520.859C229.067 520.764 229.506 520.568 229.887 520.284C230.268 520 230.582 519.636 230.807 519.217C232.264 516.605 236.101 509.599 237.916 507.38C240.159 504.629 245.847 504.178 245.847 504.178C245.847 504.178 239.905 508.906 238.911 511.518C237.916 514.131 236.818 520.05 238.911 520.57C241.003 521.09 243.338 513.981 246.355 511.692C248.863 510.105 251.46 508.665 254.135 507.38C254.135 507.38 260.389 506.34 259.349 511.033C258.308 515.726 249.962 515.206 249.43 518.339C248.898 521.472 257.256 518.859 259.349 518.859C261.441 518.859 269.256 516.778 269.753 511.033C270.25 505.288 262.412 498.513 258.262 496.953Z" fill="#FFC2B0" stroke="#263238" stroke-miterlimit="10"/>
<path d="M234.263 502.166C235.358 501.167 236.516 500.24 237.731 499.392C239.31 499.001 240.919 498.742 242.54 498.617" fill="white"/>
<path d="M234.263 502.166C235.358 501.167 236.516 500.24 237.731 499.392C239.31 499.001 240.919 498.742 242.54 498.617" stroke="#263238" stroke-miterlimit="10"/>
<path d="M228.31 498.236C228.31 498.236 230.772 495.924 231.928 495.716C233.084 495.508 236.356 495.138 236.356 495.138" fill="white"/>
<path d="M228.31 498.236C228.31 498.236 230.772 495.924 231.928 495.716C233.084 495.508 236.356 495.138 236.356 495.138" stroke="#263238" stroke-miterlimit="10"/>
<path d="M315.126 401.999C315.126 401.999 333.356 471.266 334.431 479.728C335.506 488.19 332.859 522.5 332.859 522.5H457.556C459.646 513.08 460.693 503.458 460.678 493.809C460.678 477.624 449.476 379.642 447.904 373.897C446.332 368.151 440.598 355.643 434.344 351.459C428.09 347.274 379.561 326.42 379.561 326.42L342.003 343.112C342.003 343.112 303.855 363.458 303.392 367.111C302.93 370.764 305.485 385.376 305.485 385.376" fill="#F7931E"/>
<path d="M315.126 401.999C315.126 401.999 333.356 471.266 334.431 479.728C335.506 488.19 332.859 522.5 332.859 522.5H457.556C459.646 513.08 460.693 503.458 460.678 493.809C460.678 477.625 449.476 379.642 447.904 373.897C446.332 368.151 440.598 355.643 434.344 351.459C428.09 347.274 379.561 326.42 379.561 326.42L342.003 343.112C342.003 343.112 303.855 363.458 303.392 367.111C302.93 370.764 305.485 385.376 305.485 385.376" stroke="#263238" stroke-miterlimit="10"/>
<path d="M340.107 355.956L344.315 371.492L346.268 490.687L357.909 505.577L368.267 489.069L348.846 371.168L354.996 355.632L347.228 343.02L340.107 355.956Z" fill="#50D6B6" stroke="#263238" stroke-miterlimit="10"/>
<path d="M364.475 495.115L354.256 500.895L357.909 505.577L364.475 495.115Z" fill="#263238" stroke="#263238" stroke-miterlimit="10"/>
<path d="M351.933 391.468L351.112 384.786L344.904 387.711L344.835 394.994L351.933 391.468Z" fill="#263238" stroke="#263238" stroke-miterlimit="10"/>
<path d="M340.107 355.956L343.205 367.377L352.418 362.175L354.996 355.632L350.384 348.129L341.725 353.031L340.107 355.956Z" fill="#263238" stroke="#263238" stroke-miterlimit="10"/>
<path d="M365.03 466.4L363.019 452.354L346.118 461.914L346.199 477.047L365.03 466.4Z" fill="#263238" stroke="#263238" stroke-miterlimit="10"/>
<path d="M358.152 428.182L355.678 414.299L345.205 419.952L345.274 435.095L358.152 428.182Z" fill="#263238" stroke="#263238" stroke-miterlimit="10"/>
<path d="M341.089 340.43L335.263 364.371L347.228 352.73L341.089 340.43Z" fill="white" stroke="#263238" stroke-miterlimit="10"/>
<path d="M295.774 280.885C295.127 276.677 294.375 270.758 294.375 270.758C294.375 270.758 289.89 271.776 287.948 269.51C286.006 267.244 285.035 256.886 292.48 251.384C299.924 245.881 318.998 236.471 332.604 238.448C346.21 240.425 362.707 250.736 364.972 262.389C367.238 274.041 365.412 287.081 365.735 295.173C366.059 303.265 373.827 321.056 373.827 321.056L347.239 352.776L339.147 338.211C339.147 338.211 332.674 342.095 327.818 342.419C322.963 342.742 320.374 341.124 318.755 339.182C317.137 337.24 307.806 320.799 307.806 320.799C308.556 317.169 302.172 306.192 302.5 302.5C302.5 302.5 297.069 297.392 296.745 293.508C296.422 289.624 296.422 285.093 295.774 280.885Z" fill="#FFC2B0" stroke="#263238" stroke-miterlimit="10"/>
<path d="M339.147 338.165L347.228 352.73L347.332 352.603L351.667 328.454L339.147 338.165Z" fill="#263238" stroke="#263238" stroke-miterlimit="10"/>
<path d="M313.785 268.192C321.553 265.279 329.645 257.511 335.471 258.805C341.298 260.1 334.616 267.961 335.263 270.55C335.911 273.14 341.043 275.082 344.315 275.729C347.586 276.376 347.875 279.613 347.875 283.174C347.875 286.734 351.112 289.971 353.054 287.705C354.996 285.44 354.349 275.729 360.175 275.405C366.001 275.082 365.354 287.382 364.383 291.589C363.412 295.797 359.204 300.329 359.204 300.329C359.204 300.329 362.868 303.993 367.296 303.427C366.452 300.736 365.906 297.96 365.666 295.15C365.342 287.058 367.169 274.018 364.903 262.366C362.637 250.713 346.141 240.402 332.535 238.425C318.929 236.448 299.855 245.858 292.41 251.361C284.966 256.863 285.937 267.221 287.879 269.487C289.821 271.752 294.352 270.781 294.352 270.781C294.352 270.781 306.016 271.082 313.785 268.192Z" fill="#263238" stroke="#263238" stroke-miterlimit="10"/>
<path d="M360.175 300.629C360.175 300.629 362.487 312.132 360.568 315.657C358.825 318.614 356.894 321.456 354.788 324.166" stroke="#263238" stroke-miterlimit="10"/>
<path d="M375.064 317.125L347.228 352.73L358.557 367.608L384.127 326.189L375.064 317.125Z" fill="white" stroke="#263238" stroke-miterlimit="10"/>
<path d="M334.396 471.266H318.466C317.145 471.266 315.871 470.771 314.895 469.879C313.92 468.987 313.313 467.762 313.195 466.446L310.421 435.026H342.453L339.679 466.446C339.561 467.764 338.952 468.991 337.975 469.883C336.997 470.775 335.72 471.269 334.396 471.266Z" fill="white" stroke="#263238" stroke-miterlimit="10" stroke-linecap="round"/>
<path d="M434.91 351.99C437.5 354.141 445.765 361.238 449.938 368.336C452.331 372.382 458.504 381.873 463.383 389.295C467.773 395.983 470.806 403.469 472.307 411.328C475.717 429.188 482.006 461.51 484.087 468.677C487 478.711 485.058 488.098 482.144 489.716C479.231 491.335 458.516 489.393 442.02 486.803C425.524 484.214 387.688 472.238 387.688 472.238C387.688 472.238 377.284 473.209 370.856 473.532C364.429 473.856 353.054 471.59 350.788 470.296C348.522 469.001 346.268 460.909 346.268 460.909C344.574 459.598 343.051 458.08 341.737 456.389C339.795 453.799 341.413 448.944 341.413 448.944C341.413 448.944 339.471 444.413 340.766 441.5C342.06 438.586 357.585 438.586 357.585 438.586C357.585 438.586 365.03 438.586 367.296 440.529C369.562 442.471 390.925 454.401 390.925 454.401L431.049 456.343C431.049 456.343 426.194 446.309 425.87 442.748C425.547 439.188 427.812 431.096 427.812 430.125C427.812 429.153 416.807 398.739 416.484 395.826C415.373 389.034 416.509 382.065 419.72 375.977" fill="#F7931E"/>
<path d="M434.91 351.99C437.5 354.141 445.765 361.238 449.938 368.336C452.331 372.382 458.504 381.873 463.383 389.295C467.773 395.983 470.806 403.469 472.307 411.328C475.717 429.188 482.006 461.51 484.087 468.677C487 478.711 485.058 488.098 482.144 489.716C479.231 491.335 458.516 489.393 442.02 486.803C425.524 484.214 387.688 472.238 387.688 472.238C387.688 472.238 377.284 473.209 370.856 473.532C364.429 473.856 353.054 471.59 350.788 470.296C348.522 469.001 346.268 460.909 346.268 460.909C344.574 459.598 343.051 458.08 341.737 456.389C339.795 453.799 341.413 448.944 341.413 448.944C341.413 448.944 339.471 444.413 340.766 441.5C342.06 438.586 357.585 438.586 357.585 438.586C357.585 438.586 365.03 438.586 367.296 440.529C369.562 442.471 390.925 454.401 390.925 454.401L431.049 456.343C431.049 456.343 426.194 446.309 425.87 442.748C425.547 439.188 427.812 431.096 427.812 430.125C427.812 429.153 416.807 398.739 416.484 395.826C415.373 389.034 416.509 382.065 419.72 375.977" stroke="#263238" stroke-miterlimit="10" stroke-linecap="round"/>
<path d="M465.868 439.28C467.622 440.562 469.22 442.044 470.631 443.696" stroke="#263238" stroke-miterlimit="10" stroke-linecap="round"/>
<path d="M433.026 428.078C433.026 428.078 451.349 429.882 463.845 437.939" stroke="#263238" stroke-miterlimit="10" stroke-linecap="round"/>
<path d="M403.536 467.706C403.867 463.309 402.971 458.907 400.947 454.99L390.925 454.505C390.925 454.505 369.562 442.528 367.296 440.633C365.03 438.737 357.585 438.69 357.585 438.69C357.585 438.69 342.06 438.69 340.766 441.604C339.471 444.517 341.413 449.048 341.413 449.048C341.413 449.048 339.795 453.903 341.737 456.493C343.051 458.184 344.574 459.702 346.268 461.013C346.268 461.013 348.58 469.105 350.788 470.4C352.996 471.694 364.383 473.96 370.856 473.636C377.33 473.313 387.688 472.342 387.688 472.342C387.688 472.342 393.71 474.249 402.011 476.711C402.89 473.784 403.403 470.759 403.536 467.706Z" fill="#FFC2B0" stroke="#263238" stroke-miterlimit="10" stroke-linecap="round"/>
<path d="M412.183 474.677C411.699 475.873 411.079 477.01 410.334 478.064" stroke="#263238" stroke-miterlimit="10" stroke-linecap="round"/>
<path d="M412.276 457.684C413.749 462.181 414.048 466.98 413.143 471.625" stroke="#263238" stroke-miterlimit="10" stroke-linecap="round"/>
<path d="M461.152 455.464C463.649 455.95 465.348 456.354 465.348 456.354" stroke="#263238" stroke-miterlimit="10" stroke-linecap="round"/>
<path d="M431.049 456.389C431.049 456.389 440.112 453.799 447.233 453.799C450.173 453.855 453.106 454.121 456.007 454.597" stroke="#263238" stroke-miterlimit="10" stroke-linecap="round"/>
<path d="M313.126 431.28C313.126 428.968 315.218 428.968 315.218 426.656C315.218 424.344 313.126 424.344 313.126 422.032C313.126 419.72 315.218 419.72 315.218 417.408C315.218 415.096 313.126 415.096 313.126 412.784C313.126 410.472 315.218 410.472 315.218 408.16" stroke="#263238" stroke-miterlimit="10" stroke-linecap="round"/>
<path d="M328.581 431.697C328.581 429.986 330.662 429.986 330.662 428.229C330.662 426.472 328.581 426.518 328.581 424.761C328.581 423.004 330.662 423.05 330.662 421.293C330.662 419.536 328.581 419.582 328.581 417.825C328.581 416.068 330.662 416.102 330.662 414.357" stroke="#263238" stroke-miterlimit="10" stroke-linecap="round"/>
<path d="M336.939 431.28C336.939 428.61 339.02 428.61 339.02 425.94C339.02 423.269 336.939 423.269 336.939 420.599C336.939 417.929 339.02 417.929 339.02 415.247C339.02 412.565 336.939 412.576 336.939 409.906C336.939 407.236 339.02 407.224 339.02 404.554" stroke="#263238" stroke-miterlimit="10" stroke-linecap="round"/>
<path d="M328.154 517.31H117.184V522.512H328.154V517.31Z" fill="#9C9C9C" stroke="#263238" stroke-miterlimit="10"/>
<path d="M195.006 420.784H94.792C94.2941 420.783 93.8027 420.897 93.3558 421.117C92.9089 421.336 92.5184 421.655 92.2145 422.05C91.9106 422.444 91.7014 422.903 91.6032 423.391C91.5049 423.879 91.5201 424.383 91.6477 424.865L117.184 522.512H224.114L198.162 423.212C197.978 422.515 197.568 421.899 196.997 421.46C196.426 421.021 195.726 420.783 195.006 420.784Z" fill="#9C9C9C" stroke="#263238" stroke-miterlimit="10"/>
<path d="M117.184 522.512H224.114L206.982 456.967C193.919 462.816 176.348 468.527 150.708 478.584C130.385 486.537 118.733 495.277 112.086 503.033L117.184 522.512Z" fill="#828282" stroke="#263238" stroke-miterlimit="10"/>
<path d="M218.773 512.917L219.675 516.35" stroke="#263238" stroke-miterlimit="10"/>
<path d="M197.884 433.939L217.305 507.391" stroke="#263238" stroke-miterlimit="10"/>
<path d="M104.849 423.096H192.509C193.226 423.095 193.923 423.331 194.492 423.769C195.061 424.206 195.469 424.819 195.653 425.512L196.809 429.963" stroke="#263238" stroke-miterlimit="10"/>
<path d="M537.54 522.512H551.412" stroke="#263238" stroke-miterlimit="10" stroke-linecap="round"/>
<path d="M38.148 522.512H525.98" stroke="#263238" stroke-miterlimit="10" stroke-linecap="round"/>
</svg>
